<?xml version="1.0" encoding="UTF-8" standalone="no"?>
<!-- Created with Inkscape (http://www.inkscape.org/) -->

<svg
   width="1080"
   height="1080"
   viewBox="0 0 285.74999 285.75001"
   version="1.1"
   id="svg5"
   inkscape:version="1.1.2 (0a00cf5339, 2022-02-04)"
   sodipodi:docname="icon.svg"
   inkscape:export-filename="/home/origin/.Data/inkscape/black-marker.png"
   inkscape:export-xdpi="96"
   inkscape:export-ydpi="96"
   xmlns:inkscape="http://www.inkscape.org/namespaces/inkscape"
   xmlns:sodipodi="http://sodipodi.sourceforge.net/DTD/sodipodi-0.dtd"
   xmlns="http://www.w3.org/2000/svg"
   xmlns:svg="http://www.w3.org/2000/svg">
  <sodipodi:namedview
     id="namedview7"
     pagecolor="#ffffff"
     bordercolor="#666666"
     borderopacity="1.0"
     inkscape:pageshadow="2"
     inkscape:pageopacity="0.0"
     inkscape:pagecheckerboard="0"
     inkscape:document-units="mm"
     showgrid="false"
     units="px"
     width="1080px"
     inkscape:zoom="0.35024006"
     inkscape:cx="502.51248"
     inkscape:cy="573.89209"
     inkscape:window-width="1284"
     inkscape:window-height="768"
     inkscape:window-x="41"
     inkscape:window-y="0"
     inkscape:window-maximized="1"
     inkscape:current-layer="layer1"
     inkscape:lockguides="false" />
  <defs
     id="defs2" />
  <g
     inkscape:label="Layer 1"
     inkscape:groupmode="layer"
     id="layer1">
    <path
       style="fill:#000000;stroke-width:0.172208"
       id="path1256"
       d="" />
    <path
       d="m 142.89885,11.189764 c -51.075954,0 -92.63766,41.414775 -92.63766,92.347856 0,13.7655 5.811892,30.32365 14.081175,48.36776 8.26927,18.04448 19.187413,37.33965 30.075242,55.10412 21.777323,35.53043 43.498453,65.05418 43.498453,65.05418 1.16437,1.57023 3.00335,2.49656 4.95875,2.49656 1.95541,0 3.79439,-0.92633 4.95876,-2.49656 0,0 21.76826,-29.52375 43.54577,-65.05418 10.88967,-17.76447 21.80707,-37.05964 30.07598,-55.10412 8.26891,-18.04411 14.03349,-34.60226 14.03349,-48.36776 0,-50.933081 -41.51458,-92.347856 -92.58996,-92.347856 z"
       style="fill:#990000;fill-opacity:1;fill-rule:nonzero;stroke:#cccccc;stroke-width:15;stroke-linecap:round;stroke-miterlimit:4;stroke-dasharray:none;stroke-opacity:1;paint-order:stroke fill markers"
       id="path14"
       sodipodi:nodetypes="sscccscccss" />
    <path
       d="m 95.708314,155.91585 c 0,1.18291 0.959626,2.14221 2.143527,2.14221 h 32.147049 v -25.72451 h 25.72452 v 25.72451 h 32.14706 c 1.18389,0 2.14385,-0.9593 2.14385,-2.14221 V 106.61813 H 95.708284 c 0,0 0,49.29772 3e-5,49.29772 z M 198.00612,94.434364 190.01521,87.412361 V 55.18047 c 0,-4.735907 -3.83905,-8.575051 -8.57484,-8.575051 -4.73579,0 -8.57482,3.839144 -8.57482,8.575051 V 72.329934 L 144.42024,47.377409 c -0.81021,-0.858852 -2.16394,-0.900974 -3.026,-0.09732 l -0.0941,0.09732 -53.58502,46.844054 c -0.809581,0.865283 -0.765191,2.219962 0.09732,3.030184 0.389858,0.366235 0.901931,0.570403 1.436025,0.580134 l 15.033425,0.226884 h 92.15205 c 1.1839,0.0027 2.14676,-0.952826 2.15098,-2.135723 0.002,-0.547719 -0.20422,-1.075979 -0.57981,-1.474598 z"
       id="path2"
       style="display:none;fill:#ffffff;fill-opacity:1;stroke:none;stroke-width:3.17834;stroke-linecap:round;stroke-linejoin:round;stroke-miterlimit:4;stroke-dasharray:none;stroke-opacity:1;paint-order:normal" />
    <path
       d="M 112.46382,77.00151 V 56.737353 c 0,-5.595747 4.53636,-10.132115 10.13234,-10.132115 h 40.52823 c 5.59598,0 10.13196,4.536368 10.13196,10.132115 V 77.00151 h 15.19834 c 5.59597,0 10.13195,4.53636 10.13195,10.13211 v 60.79254 c 0,5.59594 -4.53598,10.13208 -10.13195,10.13208 H 97.265873 c -5.59598,0 -10.13196,-4.53614 -10.13196,-10.13208 V 87.13362 c 0,-5.59575 4.53637,-10.13211 10.13196,-10.13211 z M 122.59616,56.737353 V 77.00151 h 40.52823 V 56.737353 Z"
       id="path2-3"
       style="display:none;fill:#ffffff;fill-opacity:1;stroke:none;stroke-width:10.1321" />
    <path
       d="m 190.60173,155.43068 c -0.55476,1.43818 -1.94167,2.38324 -3.48408,2.37231 -0.43988,0.0785 -0.89378,0.0785 -1.33367,0 l -42.92237,-18.08814 -42.996343,18.08814 c -1.90804,0.74501 -4.05649,-0.19612 -4.80065,-2.10389 -0.006,-0.0155 -0.012,-0.0308 -0.0179,-0.0448 -0.95822,-1.8097 -0.25216,-4.05279 1.54381,-5.00909 0.19613,-0.10366 0.39506,-0.18772 0.6052,-0.25496 l 35.953923,-14.8264 -35.953933,-14.82636 c -1.95848,-0.59539 -3.0638,-2.66566 -2.46842,-4.62434 0.59399,-1.95848 2.66455,-3.06386 4.62415,-2.46869 0.16811,0.0532 0.34743,0.12047 0.51273,0.19893 l 42.996343,17.86576 42.99662,-17.86576 c 1.84921,-0.87838 4.06013,-0.0925 4.93851,1.75702 0.87977,1.84893 0.084,4.06019 -1.75675,4.93865 -0.16811,0.0784 -0.33622,0.1457 -0.51274,0.19893 l -36.02818,14.82637 35.95393,14.82636 c 1.93327,0.67468 2.95286,2.7881 2.27789,4.7207 -0.028,0.10927 -0.084,0.21574 -0.14009,0.32024 z M 176.22021,77.96297 v 3.335944 c -0.0157,1.578271 -0.53515,3.110565 -1.48217,4.37377 -4.14082,4.583572 -8.59993,8.86914 -13.34372,12.824793 v 8.599293 c 0.0112,1.54185 -0.93301,2.92895 -2.37315,3.48419 l -16.01246,6.44948 h -0.51834 l -16.08671,-6.44948 c -1.32247,-0.64638 -2.1378,-2.01339 -2.07616,-3.48419 v -8.599293 c -4.79786,-3.9475 -9.30656,-8.233796 -13.49222,-12.824793 -0.89378,-1.280997 -1.36169,-2.811805 -1.33367,-4.37377 V 77.96297 c 1.23841,-16.444641 14.06575,-29.647521 30.46823,-31.357731 h 2.67014 v 0 h 2.89094 c 16.50334,1.57968 29.46601,14.82413 30.69069,31.357731 z m -44.47906,-1.704911 c 0,-4.09429 -3.31878,-7.41317 -7.41309,-7.41317 -4.09432,0 -7.41336,3.31888 -7.41336,7.41317 0,4.094312 3.31904,7.413193 7.41336,7.413193 4.09431,0 7.41309,-3.318881 7.41309,-7.413193 z m 7.41308,22.23953 c 0,-2.046738 -1.65868,-3.70657 -3.70654,-3.70657 -2.04534,0 -3.70654,1.659805 -3.70654,3.70657 v 3.706601 c 0,2.04674 1.65868,3.7066 3.70654,3.7066 2.04814,0 3.70654,-1.65981 3.70654,-3.7066 z m 14.82645,0 c 0,-2.046738 -1.65869,-3.70657 -3.70654,-3.70657 -2.04814,0 -3.70655,1.659805 -3.70655,3.70657 v 3.706601 c 0,2.04674 1.65869,3.7066 3.70655,3.7066 2.04534,0 3.70654,-1.65981 3.70654,-3.7066 z m 14.82644,-22.23953 c 0,-4.09429 -3.31904,-7.41317 -7.41336,-7.41317 -4.09431,0 -7.41308,3.31888 -7.41308,7.41317 0,4.094312 3.31877,7.413193 7.41308,7.413193 4.09432,0 7.41336,-3.318881 7.41336,-7.413193 z"
       id="path2-6"
       style="display:none;fill:#ffffff;fill-opacity:1;stroke:none;stroke-width:1.5;stroke-miterlimit:4;stroke-dasharray:none;stroke-opacity:1" />
    <path
       d="m 97.265863,46.60524 v 111.453 h 50.660467 v -30.39627 h 30.39628 v 30.39627 h 10.13208 v -111.453 z m 40.528357,101.32092 h -30.39628 v -20.26419 h 30.39628 z m 0,-30.39628 H 107.39794 V 97.265687 h 30.39628 z m 0,-30.396284 H 107.39794 V 66.869401 h 30.39628 z m 40.52839,30.396284 H 147.92633 V 97.265687 h 30.39628 z m 0,-30.396284 H 147.92633 V 66.869401 h 30.39628 z"
       id="path2-36"
       style="display:none;fill:#ffffff;fill-opacity:1;stroke-width:10.1321" />
    <path
       d="m 208.71901,107.3978 c 0,5.59594 -4.53637,10.13208 -10.13236,10.13208 H 87.133891 c -5.59598,0 -10.13235,-4.53614 -10.13235,-10.13208 0,-5.59598 4.53637,-10.132122 10.13235,-10.132122 H 198.58665 c 5.59599,0 10.13236,4.536142 10.13236,10.132122 z M 102.33184,127.66196 H 87.133892 c 0,16.78786 13.608338,30.39628 30.396278,30.39628 h 50.66021 c 16.78794,0 30.39627,-13.60842 30.39627,-30.39628 z M 97.265861,87.133599 H 87.133891 V 66.869403 c 0,-11.191881 9.07197,-20.264161 20.263929,-20.264161 h 70.9249 c 11.19196,0 20.26393,9.07228 20.26393,20.264161 V 87.133599 Z M 178.32272,71.935462 c 0,2.797415 2.26704,5.066059 5.06599,5.066059 2.79933,0 5.06598,-2.268568 5.06598,-5.066059 0,-2.797415 -2.26704,-5.066059 -5.06598,-5.066059 -2.7955,0 -5.06599,2.268568 -5.06599,5.066059 z m -20.2643,-10.132081 c 0,2.797416 2.26703,5.066022 5.06597,5.066022 2.79933,0 5.06599,-2.268568 5.06599,-5.066022 0,-2.797415 -2.26704,-5.066058 -5.06599,-5.066058 -2.79549,0 -5.06597,2.268567 -5.06597,5.066058 z M 137.7941,71.935462 c 0,2.797415 2.26703,5.066059 5.06598,5.066059 2.79933,0 5.06637,-2.268568 5.06637,-5.066059 0,-2.797415 -2.26704,-5.066059 -5.06637,-5.066059 -2.79933,0 -5.06598,2.268568 -5.06598,5.066059 z M 117.53017,61.803381 c 0,2.797416 2.26703,5.066022 5.06598,5.066022 2.7955,0 5.06598,-2.268568 5.06598,-5.066022 0,-2.797415 -2.26703,-5.066058 -5.06598,-5.066058 -2.79933,0 -5.06598,2.268567 -5.06598,5.066058 z M 97.265861,71.935462 c 0,2.797415 2.26704,5.066059 5.065979,5.066059 2.79933,0 5.06598,-2.268568 5.06598,-5.066059 0,-2.797415 -2.26703,-5.066059 -5.06598,-5.066059 -2.795499,0 -5.065979,2.268568 -5.065979,5.066059 z"
       id="path2-7"
       style="display:none;fill:#ffffff;fill-opacity:1;stroke-width:10.1321" />
    <circle
       style="fill:#fffdfd;fill-opacity:1;stroke:#ffffff;stroke-width:0.318471;stroke-opacity:0.5"
       id="path1912"
       cx="142.86028"
       cy="102.33174"
       r="55.567265" />
  </g>
</svg>
