<?xml version="1.0" encoding="UTF-8"?>
<!DOCTYPE svg PUBLIC "-//W3C//DTD SVG 1.1//EN" "http://www.w3.org/Graphics/SVG/1.1/DTD/svg11.dtd">
<svg xmlns="http://www.w3.org/2000/svg" version="1.1" width="1298px" height="1344px" style="shape-rendering:geometricPrecision; text-rendering:geometricPrecision; image-rendering:optimizeQuality; fill-rule:evenodd; clip-rule:evenodd" xmlns:xlink="http://www.w3.org/1999/xlink">
<g><path style="opacity:0.989" fill="#cbcaca" d="M 587.5,10.5 C 739.499,5.40402 866.666,58.404 969,169.5C 1052.83,268.653 1090.49,383.32 1082,513.5C 1075.69,556.734 1064.69,598.734 1049,639.5C 1027.64,695.56 1002.97,750.226 975,803.5C 928.572,891.037 878.572,976.37 825,1059.5C 773.897,1137.93 721.231,1215.26 667,1291.5C 647.976,1315.62 623.476,1323.79 593.5,1316C 581.663,1311.66 571.83,1304.49 564,1294.5C 461.447,1152.54 366.78,1005.2 280,852.5C 242.923,785.608 210.256,716.608 182,645.5C 169.989,612.462 159.989,578.796 152,544.5C 139.653,473.643 144.653,403.977 167,335.5C 206.786,216.695 281.286,126.862 390.5,66C 452.318,33.6732 517.985,15.1732 587.5,10.5 Z"/></g>
<g><path style="opacity:1" fill="#c387d4" d="M 639.5,43.5 C 623.5,43.5 607.5,43.5 591.5,43.5C 599.138,42.1689 607.138,41.5022 615.5,41.5C 623.862,41.5022 631.862,42.1689 639.5,43.5 Z"/></g>
<g><path style="opacity:1" fill="#b767dc" d="M 583.5,43.5 C 577.634,44.2476 571.634,44.9143 565.5,45.5C 571.074,43.5467 577.074,42.88 583.5,43.5 Z"/></g>
<g><path style="opacity:1" fill="#d0bfcc" d="M 553.5,45.5 C 553.082,46.2216 552.416,46.7216 551.5,47C 545.487,47.8381 539.487,48.6714 533.5,49.5C 533.721,48.2652 534.388,47.2652 535.5,46.5C 539.211,45.6557 542.877,44.6557 546.5,43.5C 548.777,44.4783 551.11,45.1449 553.5,45.5 Z"/></g>
<g><path style="opacity:1" fill="#c58ed7" d="M 671.5,45.5 C 674.553,45.1107 677.22,45.7773 679.5,47.5C 676.572,47.4349 673.905,46.7682 671.5,45.5 Z"/></g>
<g><path style="opacity:1" fill="#da8fee" d="M 695.5,49.5 C 698.698,48.9644 701.365,49.631 703.5,51.5C 700.572,51.4349 697.905,50.7682 695.5,49.5 Z"/></g>
<g><path style="opacity:1" fill="#d1a2e3" d="M 705.5,51.5 C 708.698,50.9644 711.365,51.631 713.5,53.5C 710.572,53.4349 707.905,52.7682 705.5,51.5 Z"/></g>
<g><path style="opacity:1" fill="#cdc1cb" d="M 719.5,53.5 C 726.167,53.5 732.833,53.5 739.5,53.5C 739.5,54.8333 739.5,56.1667 739.5,57.5C 737.517,57.1568 736.183,57.8235 735.5,59.5C 730.849,58.1784 726.183,56.8451 721.5,55.5C 720.287,55.2528 719.62,54.5862 719.5,53.5 Z"/></g>
<g><path style="opacity:1" fill="#6f00a6" d="M 779.5,75.5 C 785.061,76.9497 790.395,78.9497 795.5,81.5C 807.915,86.6022 819.915,92.6022 831.5,99.5C 835.833,102.669 840.5,105.336 845.5,107.5C 851.148,111.993 857.148,115.993 863.5,119.5C 864.733,121.796 866.733,123.13 869.5,123.5C 872.101,126.777 875.435,128.777 879.5,129.5C 879.281,130.675 879.614,131.675 880.5,132.5C 890.229,140.244 899.895,147.911 909.5,155.5C 911.167,159.167 913.833,161.833 917.5,163.5C 918.5,165.167 919.833,166.5 921.5,167.5C 926.548,173.215 931.881,178.548 937.5,183.5C 939.791,186.803 942.125,190.137 944.5,193.5C 946.185,194.953 947.851,196.286 949.5,197.5C 958.549,209.876 967.883,222.21 977.5,234.5C 1001.9,271.297 1020.56,310.964 1033.5,353.5C 1027.97,354.344 1026.64,352.677 1029.5,348.5C 1029.17,347.5 1028.83,346.5 1028.5,345.5C 1027.83,346.833 1027.17,348.167 1026.5,349.5C 1025.36,347.579 1025.19,345.579 1026,343.5C 1026.65,344.696 1027.15,344.696 1027.5,343.5C 1026.3,342.033 1026.3,340.533 1027.5,339C 1027.17,338.5 1026.83,338 1026.5,337.5C 1024.35,345.209 1023.35,345.209 1023.5,337.5C 1021.83,337.5 1020.17,337.5 1018.5,337.5C 1018.5,340.167 1018.5,342.833 1018.5,345.5C 1017.5,345.5 1016.5,345.5 1015.5,345.5C 1015.5,348.167 1015.5,350.833 1015.5,353.5C 1018.17,353.5 1020.83,353.5 1023.5,353.5C 1025.26,356.956 1026.59,360.623 1027.5,364.5C 1027.17,366.167 1026.83,367.833 1026.5,369.5C 1025.92,366.412 1024.59,363.745 1022.5,361.5C 1022.17,362.833 1021.83,364.167 1021.5,365.5C 1023.52,370.866 1025.52,376.199 1027.5,381.5C 1030.34,381.917 1033.01,382.917 1035.5,384.5C 1034.31,385.429 1032.98,385.762 1031.5,385.5C 1031.5,417.5 1031.5,449.5 1031.5,481.5C 1028.83,481.5 1026.17,481.5 1023.5,481.5C 1023.72,492.24 1023.05,502.906 1021.5,513.5C 1024.83,513.5 1028.17,513.5 1031.5,513.5C 1031.5,516.167 1031.5,518.833 1031.5,521.5C 1032.5,521.5 1033.5,521.5 1034.5,521.5C 1034.5,524.167 1034.5,526.833 1034.5,529.5C 1036.17,529.5 1037.83,529.5 1039.5,529.5C 1040.18,532.062 1040.35,534.729 1040,537.5C 1041.82,534.832 1041.99,531.999 1040.5,529C 1040.94,527.238 1041.44,527.405 1042,529.5C 1041.18,518.755 1042.01,508.089 1044.5,497.5C 1045.83,500.167 1047.17,502.833 1048.5,505.5C 1048.83,504.167 1049.17,502.833 1049.5,501.5C 1048.47,497.227 1047.8,492.894 1047.5,488.5C 1047.95,481.146 1048.61,473.813 1049.5,466.5C 1049.02,462.469 1048.35,458.469 1047.5,454.5C 1048.17,451.167 1048.83,447.833 1049.5,444.5C 1048.24,438.72 1046.57,433.053 1044.5,427.5C 1043.63,413.477 1042.63,399.477 1041.5,385.5C 1045.68,403.232 1049.01,421.232 1051.5,439.5C 1051.5,458.833 1051.5,478.167 1051.5,497.5C 1050.45,502.646 1049.78,507.979 1049.5,513.5C 1048.18,518.737 1047.52,524.07 1047.5,529.5C 1045.96,534.67 1044.63,540.003 1043.5,545.5C 1039.63,561.508 1035.63,577.508 1031.5,593.5C 1029.6,596.518 1028.27,599.851 1027.5,603.5C 1025.56,607.987 1024.23,612.654 1023.5,617.5C 1020.71,622.594 1018.21,627.927 1016,633.5C 1014.86,636.777 1014.02,640.11 1013.5,643.5C 1010.55,647.679 1008.55,652.346 1007.5,657.5C 1005.65,660.54 1004.32,663.873 1003.5,667.5C 1001.54,672.089 999.545,676.755 997.5,681.5C 994.599,685.761 992.599,690.428 991.5,695.5C 988.326,700.516 985.659,705.849 983.5,711.5C 981.785,714.303 980.452,717.303 979.5,720.5C 977.895,723.378 976.561,726.378 975.5,729.5C 973.659,731.849 972.326,734.515 971.5,737.5C 970.186,740.128 968.853,742.795 967.5,745.5C 967.5,745.833 967.5,746.167 967.5,746.5C 964.597,751.302 961.93,756.302 959.5,761.5C 957.909,764.352 956.576,767.352 955.5,770.5C 951.138,777.873 947.138,785.54 943.5,793.5C 941.659,795.849 940.326,798.515 939.5,801.5C 935.917,805.514 933.25,810.181 931.5,815.5C 931.5,815.833 931.5,816.167 931.5,816.5C 929.412,818.336 928.079,820.669 927.5,823.5C 920.644,835.406 913.978,847.406 907.5,859.5C 904.441,863.904 901.775,868.571 899.5,873.5C 892.588,884.987 885.921,896.653 879.5,908.5C 876.586,912.658 873.919,916.991 871.5,921.5C 869.754,923.584 868.421,925.917 867.5,928.5C 865.412,930.336 864.079,932.669 863.5,935.5C 852.353,952.446 841.686,969.78 831.5,987.5C 828.449,991.223 825.782,995.223 823.5,999.5C 823.5,999.833 823.5,1000.17 823.5,1000.5C 820.048,1004.42 817.381,1008.75 815.5,1013.5C 811.779,1018.56 808.445,1023.9 805.5,1029.5C 803.147,1031.86 801.147,1034.53 799.5,1037.5C 799.762,1038.98 799.429,1040.31 798.5,1041.5C 795.37,1044.29 793.037,1047.63 791.5,1051.5C 788.34,1055.15 785.673,1059.15 783.5,1063.5C 774.325,1076.52 765.658,1089.85 757.5,1103.5C 752.957,1109.11 748.957,1115.11 745.5,1121.5C 739.697,1129.08 734.364,1137.08 729.5,1145.5C 725.185,1149.46 721.851,1154.13 719.5,1159.5C 718.833,1160.5 718.167,1161.5 717.5,1162.5C 711.923,1169.98 706.59,1177.65 701.5,1185.5C 699.018,1188.43 696.518,1191.43 694,1194.5C 693.517,1195.45 693.351,1196.45 693.5,1197.5C 689.21,1201.39 685.877,1206.05 683.5,1211.5C 681.674,1213.15 680.34,1215.15 679.5,1217.5C 675.21,1221.39 671.877,1226.05 669.5,1231.5C 661.014,1242.46 653.014,1253.8 645.5,1265.5C 643.037,1267.73 641.037,1270.4 639.5,1273.5C 636.5,1275.83 633.833,1278.5 631.5,1281.5C 619.491,1288.17 607.491,1288.17 595.5,1281.5C 595.833,1278.5 594.5,1277.17 591.5,1277.5C 584.04,1264.62 575.54,1252.29 566,1240.5C 565.517,1239.55 565.351,1238.55 565.5,1237.5C 566.735,1237.72 567.735,1238.39 568.5,1239.5C 572.892,1234.25 578.559,1232.25 585.5,1233.5C 585.5,1230.83 585.5,1228.17 585.5,1225.5C 582.167,1225.5 578.833,1225.5 575.5,1225.5C 575.714,1221.74 574.714,1221.08 572.5,1223.5C 570.477,1221.83 568.144,1221.16 565.5,1221.5C 567.148,1214.97 567.815,1208.3 567.5,1201.5C 566.167,1201.5 564.833,1201.5 563.5,1201.5C 563.5,1196.17 563.5,1190.83 563.5,1185.5C 562.167,1185.5 560.833,1185.5 559.5,1185.5C 559.5,1180.17 559.5,1174.83 559.5,1169.5C 554.167,1169.5 548.833,1169.5 543.5,1169.5C 543.5,1158.83 543.5,1148.17 543.5,1137.5C 538.167,1137.5 532.833,1137.5 527.5,1137.5C 527.5,1126.83 527.5,1116.17 527.5,1105.5C 522.167,1105.5 516.833,1105.5 511.5,1105.5C 511.5,1100.17 511.5,1094.83 511.5,1089.5C 506.167,1089.5 500.833,1089.5 495.5,1089.5C 495.5,1084.17 495.5,1078.83 495.5,1073.5C 490.125,1073.83 484.792,1073.49 479.5,1072.5C 477.167,1070.17 474.833,1067.83 472.5,1065.5C 471.52,1062.91 471.187,1060.25 471.5,1057.5C 467.975,1057.21 464.642,1057.88 461.5,1059.5C 459.666,1058.25 457.666,1057.58 455.5,1057.5C 455.5,1054.83 455.5,1052.17 455.5,1049.5C 452.833,1049.5 450.167,1049.5 447.5,1049.5C 447.421,1047.33 446.754,1045.33 445.5,1043.5C 447.409,1032.29 448.075,1020.96 447.5,1009.5C 444.833,1009.5 442.167,1009.5 439.5,1009.5C 439.5,1006.83 439.5,1004.17 439.5,1001.5C 436.833,1001.5 434.167,1001.5 431.5,1001.5C 431.5,993.5 431.5,985.5 431.5,977.5C 426.167,977.5 420.833,977.5 415.5,977.5C 415.5,972.167 415.5,966.833 415.5,961.5C 410.167,961.5 404.833,961.5 399.5,961.5C 399.5,950.833 399.5,940.167 399.5,929.5C 392.833,929.5 386.167,929.5 379.5,929.5C 379.5,924.167 379.5,918.833 379.5,913.5C 380.833,913.5 382.167,913.5 383.5,913.5C 383.5,908.167 383.5,902.833 383.5,897.5C 378.167,897.5 372.833,897.5 367.5,897.5C 367.5,886.833 367.5,876.167 367.5,865.5C 360.167,865.5 352.833,865.5 345.5,865.5C 345.478,869.593 344.811,873.593 343.5,877.5C 343.86,879.608 344.527,881.608 345.5,883.5C 342.709,886.278 341.376,889.611 341.5,893.5C 333.831,880.161 326.164,866.828 318.5,853.5C 317.221,850.562 315.555,847.896 313.5,845.5C 306.134,831.432 298.801,817.432 291.5,803.5C 291.13,800.733 289.796,798.733 287.5,797.5C 284.034,789.236 280.034,781.236 275.5,773.5C 275.5,771.5 275.5,769.5 275.5,767.5C 273.801,767.473 272.467,766.806 271.5,765.5C 270.636,763.081 269.303,761.081 267.5,759.5C 266.587,755.766 265.253,752.1 263.5,748.5C 263.043,747.702 262.376,747.369 261.5,747.5C 261.978,744.722 260.978,742.722 258.5,741.5C 256.336,735.977 254.002,730.644 251.5,725.5C 251.843,723.517 251.176,722.183 249.5,721.5C 245.386,710.604 240.719,699.938 235.5,689.5C 237.984,690.587 240.651,691.253 243.5,691.5C 246.915,691.043 250.248,690.377 253.5,689.5C 251.759,694.725 250.426,700.058 249.5,705.5C 250.833,705.5 252.167,705.5 253.5,705.5C 254.683,710.754 255.35,716.088 255.5,721.5C 258.167,721.5 260.833,721.5 263.5,721.5C 263.5,722.833 263.5,724.167 263.5,725.5C 264.833,725.5 266.167,725.5 267.5,725.5C 267.5,724.167 267.5,722.833 267.5,721.5C 268.833,721.5 270.167,721.5 271.5,721.5C 271.5,705.5 271.5,689.5 271.5,673.5C 266.167,673.5 260.833,673.5 255.5,673.5C 255.5,668.167 255.5,662.833 255.5,657.5C 250.167,657.5 244.833,657.5 239.5,657.5C 239.5,641.5 239.5,625.5 239.5,609.5C 234.167,609.5 228.833,609.5 223.5,609.5C 223.5,598.833 223.5,588.167 223.5,577.5C 217.5,577.5 211.5,577.5 205.5,577.5C 205.799,579.604 205.466,581.604 204.5,583.5C 203.833,582.833 203.167,582.167 202.5,581.5C 201.176,576.875 200.176,572.208 199.5,567.5C 200.833,567.5 202.167,567.5 203.5,567.5C 203.917,570.343 204.917,573.01 206.5,575.5C 207.874,571.365 207.54,567.365 205.5,563.5C 207.44,546.944 208.106,530.277 207.5,513.5C 204.833,513.5 202.167,513.5 199.5,513.5C 199.5,508.167 199.5,502.833 199.5,497.5C 196.833,497.5 194.167,497.5 191.5,497.5C 191.813,500.247 191.48,502.914 190.5,505.5C 189.008,496.416 189.341,487.416 191.5,478.5C 189.6,463.588 188.933,448.588 189.5,433.5C 192.833,433.5 196.167,433.5 199.5,433.5C 200.167,428.167 200.833,422.833 201.5,417.5C 203.5,417.5 205.5,417.5 207.5,417.5C 207.5,406.833 207.5,396.167 207.5,385.5C 212.833,385.5 218.167,385.5 223.5,385.5C 223.5,374.833 223.5,364.167 223.5,353.5C 228.833,353.5 234.167,353.5 239.5,353.5C 239.5,348.167 239.5,342.833 239.5,337.5C 244.833,337.5 250.167,337.5 255.5,337.5C 255.5,326.833 255.5,316.167 255.5,305.5C 260.833,305.5 266.167,305.5 271.5,305.5C 271.5,294.833 271.5,284.167 271.5,273.5C 276.833,273.5 282.167,273.5 287.5,273.5C 287.5,262.833 287.5,252.167 287.5,241.5C 292.833,241.5 298.167,241.5 303.5,241.5C 303.5,236.167 303.5,230.833 303.5,225.5C 308.833,225.5 314.167,225.5 319.5,225.5C 319.5,220.167 319.5,214.833 319.5,209.5C 324.833,209.5 330.167,209.5 335.5,209.5C 335.5,204.167 335.5,198.833 335.5,193.5C 340.833,193.5 346.167,193.5 351.5,193.5C 351.5,188.167 351.5,182.833 351.5,177.5C 362.167,177.5 372.833,177.5 383.5,177.5C 383.5,172.167 383.5,166.833 383.5,161.5C 388.833,161.5 394.167,161.5 399.5,161.5C 399.5,156.167 399.5,150.833 399.5,145.5C 404.833,145.5 410.167,145.5 415.5,145.5C 415.5,134.833 415.5,124.167 415.5,113.5C 412.833,113.5 410.167,113.5 407.5,113.5C 408.562,109.412 410.896,106.079 414.5,103.5C 419.938,105.388 425.605,106.054 431.5,105.5C 431.5,113.5 431.5,121.5 431.5,129.5C 436.833,129.5 442.167,129.5 447.5,129.5C 447.5,124.167 447.5,118.833 447.5,113.5C 458.167,113.5 468.833,113.5 479.5,113.5C 479.5,108.167 479.5,102.833 479.5,97.5C 482.167,97.5 484.833,97.5 487.5,97.5C 487.5,98.5 487.5,99.5 487.5,100.5C 490.167,100.5 492.833,100.5 495.5,100.5C 495.5,99.5 495.5,98.5 495.5,97.5C 500.833,97.5 506.167,97.5 511.5,97.5C 511.5,92.1667 511.5,86.8333 511.5,81.5C 516.833,81.5 522.167,81.5 527.5,81.5C 527.5,76.1667 527.5,70.8333 527.5,65.5C 538.167,64.8333 538.167,64.1667 527.5,63.5C 527.5,62.1667 527.5,60.8333 527.5,59.5C 530.187,59.3359 532.854,59.5026 535.5,60C 537.884,61.9019 540.551,63.0686 543.5,63.5C 543.5,69.5 543.5,75.5 543.5,81.5C 551.5,81.5 559.5,81.5 567.5,81.5C 567.5,80.5 567.5,79.5 567.5,78.5C 564.833,78.5 562.167,78.5 559.5,78.5C 559.5,74.1667 559.5,69.8333 559.5,65.5C 586.167,65.5 612.833,65.5 639.5,65.5C 639.5,70.8333 639.5,76.1667 639.5,81.5C 650.167,81.5 660.833,81.5 671.5,81.5C 671.5,76.1667 671.5,70.8333 671.5,65.5C 678.2,65.83 684.866,65.4967 691.5,64.5C 693.005,63.1585 693.672,61.4918 693.5,59.5C 699.743,59.4486 705.743,60.6153 711.5,63C 706.798,63.1717 702.132,63.6717 697.5,64.5C 699.396,65.4656 701.396,65.7989 703.5,65.5C 703.5,71.8333 703.5,78.1667 703.5,84.5C 706.167,84.5 708.833,84.5 711.5,84.5C 711.5,83.5 711.5,82.5 711.5,81.5C 714.167,81.5 716.833,81.5 719.5,81.5C 719.5,78.8333 719.5,76.1667 719.5,73.5C 726.2,73.17 732.866,73.5033 739.5,74.5C 742.146,76.1319 743.479,78.4652 743.5,81.5C 748.814,80.8407 754.147,80.174 759.5,79.5C 764.853,80.174 770.186,80.8407 775.5,81.5C 775.5,84.1667 775.5,86.8333 775.5,89.5C 778.167,89.5 780.833,89.5 783.5,89.5C 783.5,90.8333 783.5,92.1667 783.5,93.5C 784.833,93.5 786.167,93.5 787.5,93.5C 787.5,94.8333 787.5,96.1667 787.5,97.5C 790.898,97.8204 794.232,97.487 797.5,96.5C 794.167,94.5 790.833,92.5 787.5,90.5C 791.5,89.8333 795.5,89.1667 799.5,88.5C 798.359,87.5745 798.359,86.7412 799.5,86C 795.263,87.5452 792.929,86.0452 792.5,81.5C 788.205,80.7588 783.872,80.5921 779.5,81C 778.833,80.6667 778.167,80.3333 777.5,80C 779.577,79.8078 781.577,79.3078 783.5,78.5C 781.668,77.9432 780.335,76.9432 779.5,75.5 Z"/></g>
<g><path style="opacity:1" fill="#cfbdd4" d="M 795.5,81.5 C 790.395,78.9497 785.061,76.9497 779.5,75.5C 775.737,72.952 771.737,70.952 767.5,69.5C 770.135,68.8581 772.802,68.1914 775.5,67.5C 780.627,67.9741 780.627,68.9741 775.5,70.5C 780.854,70.9988 785.52,72.9988 789.5,76.5C 791.396,77.4656 793.396,77.7989 795.5,77.5C 795.5,78.8333 795.5,80.1667 795.5,81.5 Z"/></g>
<g><path style="opacity:1" fill="#d1addc" d="M 831.5,99.5 C 833.604,99.2011 835.604,99.5344 837.5,100.5C 840.686,102.397 843.353,104.731 845.5,107.5C 840.5,105.336 835.833,102.669 831.5,99.5 Z"/></g>
<g><path style="opacity:1" fill="#7201a8" d="M 583.5,43.5 C 586.167,43.5 588.833,43.5 591.5,43.5C 607.5,43.5 623.5,43.5 639.5,43.5C 650.223,43.4449 660.89,44.1116 671.5,45.5C 673.905,46.7682 676.572,47.4349 679.5,47.5C 684.743,48.8097 690.077,49.4763 695.5,49.5C 697.905,50.7682 700.572,51.4349 703.5,51.5C 704.167,51.5 704.833,51.5 705.5,51.5C 707.905,52.7682 710.572,53.4349 713.5,53.5C 715.5,53.5 717.5,53.5 719.5,53.5C 719.62,54.5862 720.287,55.2528 721.5,55.5C 726.183,56.8451 730.849,58.1784 735.5,59.5C 746.162,62.8301 756.829,66.1634 767.5,69.5C 771.737,70.952 775.737,72.952 779.5,75.5C 780.335,76.9432 781.668,77.9432 783.5,78.5C 781.577,79.3078 779.577,79.8078 777.5,80C 778.167,80.3333 778.833,80.6667 779.5,81C 783.872,80.5921 788.205,80.7588 792.5,81.5C 792.929,86.0452 795.263,87.5452 799.5,86C 798.359,86.7412 798.359,87.5745 799.5,88.5C 795.5,89.1667 791.5,89.8333 787.5,90.5C 790.833,92.5 794.167,94.5 797.5,96.5C 794.232,97.487 790.898,97.8204 787.5,97.5C 787.5,96.1667 787.5,94.8333 787.5,93.5C 786.167,93.5 784.833,93.5 783.5,93.5C 783.5,92.1667 783.5,90.8333 783.5,89.5C 780.833,89.5 778.167,89.5 775.5,89.5C 775.5,86.8333 775.5,84.1667 775.5,81.5C 770.186,80.8407 764.853,80.174 759.5,79.5C 754.147,80.174 748.814,80.8407 743.5,81.5C 743.479,78.4652 742.146,76.1319 739.5,74.5C 732.866,73.5033 726.2,73.17 719.5,73.5C 719.5,76.1667 719.5,78.8333 719.5,81.5C 716.833,81.5 714.167,81.5 711.5,81.5C 711.5,82.5 711.5,83.5 711.5,84.5C 708.833,84.5 706.167,84.5 703.5,84.5C 703.5,78.1667 703.5,71.8333 703.5,65.5C 701.396,65.7989 699.396,65.4656 697.5,64.5C 702.132,63.6717 706.798,63.1717 711.5,63C 705.743,60.6153 699.743,59.4486 693.5,59.5C 693.672,61.4918 693.005,63.1585 691.5,64.5C 684.866,65.4967 678.2,65.83 671.5,65.5C 671.5,70.8333 671.5,76.1667 671.5,81.5C 660.833,81.5 650.167,81.5 639.5,81.5C 639.5,76.1667 639.5,70.8333 639.5,65.5C 612.833,65.5 586.167,65.5 559.5,65.5C 559.5,69.8333 559.5,74.1667 559.5,78.5C 562.167,78.5 564.833,78.5 567.5,78.5C 567.5,79.5 567.5,80.5 567.5,81.5C 559.5,81.5 551.5,81.5 543.5,81.5C 543.5,75.5 543.5,69.5 543.5,63.5C 540.551,63.0686 537.884,61.9019 535.5,60C 532.854,59.5026 530.187,59.3359 527.5,59.5C 527.5,60.8333 527.5,62.1667 527.5,63.5C 538.167,64.1667 538.167,64.8333 527.5,65.5C 527.5,70.8333 527.5,76.1667 527.5,81.5C 522.167,81.5 516.833,81.5 511.5,81.5C 511.5,86.8333 511.5,92.1667 511.5,97.5C 506.167,97.5 500.833,97.5 495.5,97.5C 495.5,98.5 495.5,99.5 495.5,100.5C 492.833,100.5 490.167,100.5 487.5,100.5C 487.5,99.5 487.5,98.5 487.5,97.5C 484.833,97.5 482.167,97.5 479.5,97.5C 479.5,102.833 479.5,108.167 479.5,113.5C 468.833,113.5 458.167,113.5 447.5,113.5C 447.5,118.833 447.5,124.167 447.5,129.5C 442.167,129.5 436.833,129.5 431.5,129.5C 431.5,121.5 431.5,113.5 431.5,105.5C 425.605,106.054 419.938,105.388 414.5,103.5C 410.896,106.079 408.562,109.412 407.5,113.5C 410.167,113.5 412.833,113.5 415.5,113.5C 415.5,124.167 415.5,134.833 415.5,145.5C 410.167,145.5 404.833,145.5 399.5,145.5C 399.5,150.833 399.5,156.167 399.5,161.5C 394.167,161.5 388.833,161.5 383.5,161.5C 383.5,166.833 383.5,172.167 383.5,177.5C 372.833,177.5 362.167,177.5 351.5,177.5C 351.5,182.833 351.5,188.167 351.5,193.5C 346.167,193.5 340.833,193.5 335.5,193.5C 335.5,198.833 335.5,204.167 335.5,209.5C 330.167,209.5 324.833,209.5 319.5,209.5C 319.5,214.833 319.5,220.167 319.5,225.5C 314.167,225.5 308.833,225.5 303.5,225.5C 303.5,230.833 303.5,236.167 303.5,241.5C 298.167,241.5 292.833,241.5 287.5,241.5C 287.5,252.167 287.5,262.833 287.5,273.5C 282.167,273.5 276.833,273.5 271.5,273.5C 271.5,284.167 271.5,294.833 271.5,305.5C 266.167,305.5 260.833,305.5 255.5,305.5C 255.5,316.167 255.5,326.833 255.5,337.5C 250.167,337.5 244.833,337.5 239.5,337.5C 239.5,342.833 239.5,348.167 239.5,353.5C 234.167,353.5 228.833,353.5 223.5,353.5C 223.5,364.167 223.5,374.833 223.5,385.5C 218.167,385.5 212.833,385.5 207.5,385.5C 207.5,396.167 207.5,406.833 207.5,417.5C 205.5,417.5 203.5,417.5 201.5,417.5C 200.833,422.833 200.167,428.167 199.5,433.5C 196.167,433.5 192.833,433.5 189.5,433.5C 188.933,448.588 189.6,463.588 191.5,478.5C 189.341,487.416 189.008,496.416 190.5,505.5C 191.48,502.914 191.813,500.247 191.5,497.5C 194.167,497.5 196.833,497.5 199.5,497.5C 199.5,502.833 199.5,508.167 199.5,513.5C 202.167,513.5 204.833,513.5 207.5,513.5C 208.106,530.277 207.44,546.944 205.5,563.5C 207.54,567.365 207.874,571.365 206.5,575.5C 204.917,573.01 203.917,570.343 203.5,567.5C 202.167,567.5 200.833,567.5 199.5,567.5C 200.176,572.208 201.176,576.875 202.5,581.5C 203.167,582.167 203.833,582.833 204.5,583.5C 205.466,581.604 205.799,579.604 205.5,577.5C 211.5,577.5 217.5,577.5 223.5,577.5C 223.5,588.167 223.5,598.833 223.5,609.5C 228.833,609.5 234.167,609.5 239.5,609.5C 239.5,625.5 239.5,641.5 239.5,657.5C 244.833,657.5 250.167,657.5 255.5,657.5C 255.5,662.833 255.5,668.167 255.5,673.5C 260.833,673.5 266.167,673.5 271.5,673.5C 271.5,689.5 271.5,705.5 271.5,721.5C 270.167,721.5 268.833,721.5 267.5,721.5C 267.5,722.833 267.5,724.167 267.5,725.5C 266.167,725.5 264.833,725.5 263.5,725.5C 263.5,724.167 263.5,722.833 263.5,721.5C 260.833,721.5 258.167,721.5 255.5,721.5C 255.35,716.088 254.683,710.754 253.5,705.5C 252.167,705.5 250.833,705.5 249.5,705.5C 250.426,700.058 251.759,694.725 253.5,689.5C 250.248,690.377 246.915,691.043 243.5,691.5C 240.651,691.253 237.984,690.587 235.5,689.5C 226.778,668.137 218.111,646.804 209.5,625.5C 208.019,619.89 206.019,614.557 203.5,609.5C 185.904,563.116 177.238,515.116 177.5,465.5C 177.5,460.167 177.5,454.833 177.5,449.5C 179.446,444.604 180.113,439.271 179.5,433.5C 179.5,431.5 179.5,429.5 179.5,427.5C 180.581,424.373 181.247,421.04 181.5,417.5C 182.167,412.167 182.833,406.833 183.5,401.5C 184.581,398.373 185.247,395.04 185.5,391.5C 186.458,389.698 187.125,387.698 187.5,385.5C 188.167,380.167 188.833,374.833 189.5,369.5C 195.88,348.733 203.214,328.067 211.5,307.5C 213.341,305.151 214.674,302.485 215.5,299.5C 215.66,297.847 216.326,296.514 217.5,295.5C 218.735,295.279 219.735,294.612 220.5,293.5C 222.096,289.969 223.93,286.636 226,283.5C 227.47,280.236 228.637,276.903 229.5,273.5C 231.494,268.844 233.494,264.177 235.5,259.5C 238.476,256.904 240.476,253.57 241.5,249.5C 243.104,248.713 243.771,247.38 243.5,245.5C 244.496,245.586 245.329,245.252 246,244.5C 249.856,238.111 253.689,231.778 257.5,225.5C 327.011,132.05 419.011,73.383 533.5,49.5C 539.487,48.6714 545.487,47.8381 551.5,47C 552.416,46.7216 553.082,46.2216 553.5,45.5C 557.5,45.5 561.5,45.5 565.5,45.5C 571.634,44.9143 577.634,44.2476 583.5,43.5 Z"/></g>
<g><path style="opacity:1" fill="#d6badb" d="M 845.5,107.5 C 848.247,107.187 850.914,107.52 853.5,108.5C 855.005,109.842 855.672,111.508 855.5,113.5C 859.309,113.975 861.975,115.975 863.5,119.5C 857.148,115.993 851.148,111.993 845.5,107.5 Z"/></g>
<g><path style="opacity:1" fill="#d3addb" d="M 863.5,119.5 C 866.554,119.354 868.554,120.687 869.5,123.5C 866.733,123.13 864.733,121.796 863.5,119.5 Z"/></g>
<g><path style="opacity:1" fill="#d9bada" d="M 909.5,155.5 C 914.167,156.167 916.833,158.833 917.5,163.5C 913.833,161.833 911.167,159.167 909.5,155.5 Z"/></g>
<g><path style="opacity:1" fill="#dbb9e0" d="M 921.5,167.5 C 922.978,167.238 924.311,167.571 925.5,168.5C 928.983,172.278 932.649,175.945 936.5,179.5C 937.429,180.689 937.762,182.022 937.5,183.5C 931.881,178.548 926.548,173.215 921.5,167.5 Z"/></g>
<g><path style="opacity:1" fill="#d3bdd2" d="M 937.5,183.5 C 938.833,183.5 940.167,183.5 941.5,183.5C 941.5,184.833 941.5,186.167 941.5,187.5C 948.321,187.268 950.987,190.601 949.5,197.5C 947.851,196.286 946.185,194.953 944.5,193.5C 942.125,190.137 939.791,186.803 937.5,183.5 Z"/></g>
<g><path style="opacity:1" fill="#fefdfe" d="M 626.5,196.5 C 629.112,197.371 631.779,198.037 634.5,198.5C 635.234,199.708 635.567,201.041 635.5,202.5C 627.804,202.268 620.138,202.601 612.5,203.5C 610.112,204.315 608.112,205.648 606.5,207.5C 603.55,209.115 600.884,211.115 598.5,213.5C 595.256,215.071 592.589,217.405 590.5,220.5C 589.571,221.689 589.238,223.022 589.5,224.5C 583.854,229.801 581.521,236.468 582.5,244.5C 581.649,250.58 582.983,255.913 586.5,260.5C 587.82,262.832 589.487,264.832 591.5,266.5C 594.236,274.235 599.57,279.235 607.5,281.5C 608.129,284.129 609.795,285.796 612.5,286.5C 620.145,287.331 627.812,287.831 635.5,288C 630.931,290.856 625.931,292.523 620.5,293C 618.327,295.698 617.994,298.531 619.5,301.5C 621.833,305.833 625.167,309.167 629.5,311.5C 630.348,313.093 631.681,314.26 633.5,315C 641.672,317.86 649.672,320.693 657.5,323.5C 661.85,326.628 666.85,328.628 672.5,329.5C 675.497,332.496 679.164,334.163 683.5,334.5C 683.47,335.497 683.97,336.164 685,336.5C 687.677,337.222 690.177,338.222 692.5,339.5C 693.924,343.047 696.591,344.88 700.5,345C 702.989,348.688 706.322,350.855 710.5,351.5C 713.167,354.833 716.167,357.833 719.5,360.5C 719.343,361.873 719.51,363.207 720,364.5C 722.998,366.668 725.831,369.001 728.5,371.5C 728.259,374.034 729.259,375.7 731.5,376.5C 731.5,377.833 731.5,379.167 731.5,380.5C 732.669,383.511 734.336,386.178 736.5,388.5C 739.719,397.938 743.219,407.272 747,416.5C 748.713,424.036 749.713,431.702 750,439.5C 751.848,442.041 754.348,443.041 757.5,442.5C 766.113,443.442 774.779,443.775 783.5,443.5C 783.5,443.833 783.5,444.167 783.5,444.5C 783.333,492.834 783.5,541.168 784,589.5C 784.5,590 785,590.5 785.5,591C 809.164,591.5 832.831,591.667 856.5,591.5C 858.722,591.822 860.556,591.155 862,589.5C 862.667,538.5 862.667,487.5 862,436.5C 860.259,435.242 858.426,434.242 856.5,433.5C 856.027,432.094 855.027,431.427 853.5,431.5C 850.36,430.359 847.027,430.192 843.5,431C 841.924,433.077 839.924,434.577 837.5,435.5C 836.5,474.494 836.167,513.494 836.5,552.5C 823.833,552.5 811.167,552.5 798.5,552.5C 798.5,543.167 798.5,533.833 798.5,524.5C 801.518,524.665 804.518,524.498 807.5,524C 808.333,523.167 809.167,522.333 810,521.5C 810.333,491.5 810.667,461.5 811,431.5C 811.395,428.793 811.895,426.127 812.5,423.5C 814.234,421.91 815.4,419.91 816,417.5C 820.922,412.729 826.089,408.396 831.5,404.5C 834.839,402.433 838.506,401.1 842.5,400.5C 843.833,398.5 845.5,396.833 847.5,395.5C 848.429,394.311 848.762,392.978 848.5,391.5C 853.851,394.008 858.185,397.842 861.5,403C 869.379,405.609 876.379,409.776 882.5,415.5C 883.723,418.274 885.223,420.941 887,423.5C 887.363,426.544 887.863,429.544 888.5,432.5C 888.5,494.5 888.5,556.5 888.5,618.5C 751.833,618.5 615.167,618.5 478.5,618.5C 478.5,609.5 478.5,600.5 478.5,591.5C 570.167,591.667 661.834,591.5 753.5,591C 754.025,590.308 754.692,589.808 755.5,589.5C 756.667,550.838 756.833,512.171 756,473.5C 755.5,473 755,472.5 754.5,472C 743.505,471.5 732.505,471.333 721.5,471.5C 721.845,455.467 721.345,439.467 720,423.5C 718.784,421.038 718.118,418.371 718,415.5C 716.842,415.002 716.009,414.169 715.5,413C 714.359,406.524 711.359,401.358 706.5,397.5C 706.5,396.833 706.5,396.167 706.5,395.5C 703.759,392.239 701.592,388.572 700,384.5C 697.894,381.882 695.394,379.882 692.5,378.5C 690.754,376.748 688.754,375.415 686.5,374.5C 684.53,370.849 681.53,368.849 677.5,368.5C 677.5,368.167 677.5,367.833 677.5,367.5C 674.844,365.837 672.177,364.171 669.5,362.5C 669.5,361.5 669.5,360.5 669.5,359.5C 666.625,358.377 663.625,357.544 660.5,357C 657.643,354.13 654.31,352.13 650.5,351C 642.351,349.113 634.351,346.946 626.5,344.5C 623.485,341.992 620.152,339.992 616.5,338.5C 613.099,336.616 609.433,336.116 605.5,337C 600.453,339.454 595.787,342.454 591.5,346C 586.223,346.115 581.223,347.281 576.5,349.5C 571.52,349.893 567.187,351.56 563.5,354.5C 562.609,355.11 561.609,355.443 560.5,355.5C 557.849,356.49 555.183,357.49 552.5,358.5C 549.289,360.6 546.289,362.934 543.5,365.5C 532.138,369.688 523.305,377.021 517,387.5C 510.423,393.55 506.256,400.883 504.5,409.5C 503.5,409.5 502.5,409.5 501.5,409.5C 501.054,416.396 499.721,423.062 497.5,429.5C 496.504,443.323 496.171,457.323 496.5,471.5C 485.828,471.333 475.161,471.5 464.5,472C 461.757,475.21 460.423,479.044 460.5,483.5C 461.419,492.807 461.752,502.14 461.5,511.5C 452.249,511.818 443.083,511.485 434,510.5C 433.5,488.503 433.333,466.503 433.5,444.5C 444.505,444.667 455.505,444.5 466.5,444C 467.333,443.167 468.167,442.333 469,441.5C 469.333,436.833 469.667,432.167 470,427.5C 472.581,418.919 474.748,410.253 476.5,401.5C 477.419,394.66 480.252,388.66 485,383.5C 485.847,381.146 486.68,378.812 487.5,376.5C 488.496,376.586 489.329,376.252 490,375.5C 494.721,369.779 499.054,363.779 503,357.5C 505.664,356.002 507.83,354.002 509.5,351.5C 510.552,351.649 511.552,351.483 512.5,351C 515.585,347.981 518.919,345.314 522.5,343C 526.121,342.544 528.788,340.711 530.5,337.5C 546.843,328.882 563.843,321.716 581.5,316C 583.993,314.581 586.326,313.081 588.5,311.5C 593.556,308.777 597.223,304.777 599.5,299.5C 600.925,296.277 600.592,293.11 598.5,290C 593.011,289.221 588.011,287.388 583.5,284.5C 578.245,280.817 573.745,276.15 570,270.5C 568.48,264.31 566.647,258.31 564.5,252.5C 564.001,243.628 565.001,234.962 567.5,226.5C 572.56,216.753 579.56,208.42 588.5,201.5C 591.331,200.921 593.664,199.588 595.5,197.5C 605.759,195.328 616.093,194.995 626.5,196.5 Z"/></g>
<g><path style="opacity:1" fill="#8b35b7" d="M 636.5,198.5 C 635.833,198.5 635.167,198.5 634.5,198.5C 631.34,196 627.673,194.667 623.5,194.5C 614.822,193.19 606.156,193.357 597.5,195C 596.244,195.417 595.577,196.25 595.5,197.5C 591.591,199.025 587.591,200.359 583.5,201.5C 587.86,199.269 592.193,196.603 596.5,193.5C 608.049,192.127 619.549,192.46 631,194.5C 633.476,195.145 635.309,196.478 636.5,198.5 Z"/></g>
<g><path style="opacity:1" fill="#ac6bcb" d="M 623.5,194.5 C 627.673,194.667 631.34,196 634.5,198.5C 631.779,198.037 629.112,197.371 626.5,196.5C 625.5,195.833 624.5,195.167 623.5,194.5 Z"/></g>
<g><path style="opacity:1" fill="#caa1de" d="M 623.5,194.5 C 624.5,195.167 625.5,195.833 626.5,196.5C 616.093,194.995 605.759,195.328 595.5,197.5C 595.577,196.25 596.244,195.417 597.5,195C 606.156,193.357 614.822,193.19 623.5,194.5 Z"/></g>
<g><path style="opacity:1" fill="#d9bce8" d="M 634.5,198.5 C 635.167,198.5 635.833,198.5 636.5,198.5C 637.167,199.167 637.833,199.833 638.5,200.5C 640.766,201.759 642.766,203.426 644.5,205.5C 642.604,206.466 640.604,206.799 638.5,206.5C 638.119,205.069 637.119,204.236 635.5,204C 629.167,203.333 622.833,203.333 616.5,204C 613.009,204.922 609.675,206.089 606.5,207.5C 608.112,205.648 610.112,204.315 612.5,203.5C 620.138,202.601 627.804,202.268 635.5,202.5C 635.567,201.041 635.234,199.708 634.5,198.5 Z"/></g>
<g><path style="opacity:1" fill="#ae70cd" d="M 638.5,206.5 C 626.719,204.257 615.386,205.424 604.5,210C 600.997,214.669 596.997,218.836 592.5,222.5C 594.5,219.5 596.5,216.5 598.5,213.5C 600.884,211.115 603.55,209.115 606.5,207.5C 609.675,206.089 613.009,204.922 616.5,204C 622.833,203.333 629.167,203.333 635.5,204C 637.119,204.236 638.119,205.069 638.5,206.5 Z"/></g>
<g><path style="opacity:1" fill="#ac6bcb" d="M 638.5,200.5 C 639.873,200.343 641.207,200.51 642.5,201C 653.445,210.94 652.112,212.773 638.5,206.5C 640.604,206.799 642.604,206.466 644.5,205.5C 642.766,203.426 640.766,201.759 638.5,200.5 Z"/></g>
<g><path style="opacity:1" fill="#b67ed2" d="M 595.5,197.5 C 593.664,199.588 591.331,200.921 588.5,201.5C 587.448,201.351 586.448,201.517 585.5,202C 579.043,207.782 573.376,214.115 568.5,221C 567.767,222.766 567.433,224.599 567.5,226.5C 565.432,229.174 564.099,232.174 563.5,235.5C 563.337,233.143 563.503,230.81 564,228.5C 565.846,225.796 567.013,222.796 567.5,219.5C 572.477,213.189 577.81,207.189 583.5,201.5C 587.591,200.359 591.591,199.025 595.5,197.5 Z"/></g>
<g><path style="opacity:1" fill="#e1caec" d="M 588.5,201.5 C 579.56,208.42 572.56,216.753 567.5,226.5C 567.433,224.599 567.767,222.766 568.5,221C 573.376,214.115 579.043,207.782 585.5,202C 586.448,201.517 587.448,201.351 588.5,201.5 Z"/></g>
<g><path style="opacity:1" fill="#ddc2ea" d="M 598.5,213.5 C 596.5,216.5 594.5,219.5 592.5,222.5C 591.833,222.5 591.5,222.833 591.5,223.5C 590.833,223.833 590.167,224.167 589.5,224.5C 589.238,223.022 589.571,221.689 590.5,220.5C 592.589,217.405 595.256,215.071 598.5,213.5 Z"/></g>
<g><path style="opacity:1" fill="#d3bed5" d="M 257.5,225.5 C 253.689,231.778 249.856,238.111 246,244.5C 245.329,245.252 244.496,245.586 243.5,245.5C 244.919,241.007 245.919,236.341 246.5,231.5C 247.842,233.005 249.508,233.672 251.5,233.5C 251.357,229.235 253.357,226.569 257.5,225.5 Z"/></g>
<g><path style="opacity:1" fill="#f9f4fb" d="M 627.5,233.5 C 627.511,235.017 628.177,236.184 629.5,237C 633.014,238.562 636.681,239.395 640.5,239.5C 640.67,240.822 640.337,241.989 639.5,243C 636.966,243.516 634.8,244.683 633,246.5C 632.612,249.849 632.779,253.183 633.5,256.5C 631.435,256.483 629.435,256.15 627.5,255.5C 627.209,254.351 626.376,253.684 625,253.5C 622.412,254.568 619.912,255.901 617.5,257.5C 617.29,254.614 617.123,251.614 617,248.5C 615.254,245.25 612.754,242.917 609.5,241.5C 612.441,240.478 615.441,239.645 618.5,239C 621.75,237.254 624.083,234.754 625.5,231.5C 626.182,232.243 626.849,232.909 627.5,233.5 Z"/></g>
<g><path style="opacity:1" fill="#e2cced" d="M 589.5,224.5 C 588.18,228.122 586.847,231.788 585.5,235.5C 584.041,243.798 584.374,252.131 586.5,260.5C 582.983,255.913 581.649,250.58 582.5,244.5C 581.521,236.468 583.854,229.801 589.5,224.5 Z"/></g>
<g><path style="opacity:1" fill="#9d53c2" d="M 641.5,242.5 C 641.5,241.167 641.5,239.833 641.5,238.5C 636.201,238.402 631.535,236.735 627.5,233.5C 628.244,230.05 626.91,228.384 623.5,228.5C 623.608,233.021 621.608,236.188 617.5,238C 614.183,238.498 610.85,238.665 607.5,238.5C 607.5,239.5 607.5,240.5 607.5,241.5C 605.896,240.713 605.229,239.38 605.5,237.5C 610.449,238.041 615.116,237.208 619.5,235C 621.074,233.174 621.907,231.007 622,228.5C 624,227.167 626,227.167 628,228.5C 630.538,235.026 635.372,237.859 642.5,237C 643.98,239.235 643.647,241.068 641.5,242.5 Z"/></g>
<g><path style="opacity:1" fill="#9f54c3" d="M 591.5,223.5 C 590.268,227.247 588.768,230.914 587,234.5C 586.501,240.491 586.334,246.491 586.5,252.5C 585.511,247.025 585.178,241.358 585.5,235.5C 586.847,231.788 588.18,228.122 589.5,224.5C 590.167,224.167 590.833,223.833 591.5,223.5 Z"/></g>
<g><path style="opacity:1" fill="#d9bce8" d="M 567.5,226.5 C 565.001,234.962 564.001,243.628 564.5,252.5C 563.512,247.36 563.179,242.026 563.5,236.5C 563.5,236.167 563.5,235.833 563.5,235.5C 564.099,232.174 565.432,229.174 567.5,226.5 Z"/></g>
<g><path style="opacity:1" fill="#cba2df" d="M 627.5,233.5 C 626.849,232.909 626.182,232.243 625.5,231.5C 624.083,234.754 621.75,237.254 618.5,239C 615.441,239.645 612.441,240.478 609.5,241.5C 612.754,242.917 615.254,245.25 617,248.5C 617.123,251.614 617.29,254.614 617.5,257.5C 619.912,255.901 622.412,254.568 625,253.5C 626.376,253.684 627.209,254.351 627.5,255.5C 624.99,255.054 622.99,255.72 621.5,257.5C 619.442,258.933 617.108,259.6 614.5,259.5C 615.19,255.51 615.357,251.51 615,247.5C 614.292,246.619 613.458,245.953 612.5,245.5C 610.251,244.92 608.585,243.587 607.5,241.5C 607.5,240.5 607.5,239.5 607.5,238.5C 610.85,238.665 614.183,238.498 617.5,238C 621.608,236.188 623.608,233.021 623.5,228.5C 626.91,228.384 628.244,230.05 627.5,233.5 Z"/></g>
<g><path style="opacity:1" fill="#c89ddd" d="M 627.5,233.5 C 631.535,236.735 636.201,238.402 641.5,238.5C 641.5,239.833 641.5,241.167 641.5,242.5C 639.982,244.772 637.815,246.105 635,246.5C 635.002,251.524 635.502,256.524 636.5,261.5C 635.448,261.649 634.448,261.483 633.5,261C 631.525,258.908 629.525,257.075 627.5,255.5C 629.435,256.15 631.435,256.483 633.5,256.5C 632.779,253.183 632.612,249.849 633,246.5C 634.8,244.683 636.966,243.516 639.5,243C 640.337,241.989 640.67,240.822 640.5,239.5C 636.681,239.395 633.014,238.562 629.5,237C 628.177,236.184 627.511,235.017 627.5,233.5 Z"/></g>
<g><path style="opacity:1" fill="#d3b5d6" d="M 241.5,249.5 C 240.476,253.57 238.476,256.904 235.5,259.5C 235.046,254.634 237.046,251.301 241.5,249.5 Z"/></g>
<g><path style="opacity:1" fill="#ba85d5" d="M 585.5,235.5 C 585.178,241.358 585.511,247.025 586.5,252.5C 587.2,257.526 588.867,262.192 591.5,266.5C 589.487,264.832 587.82,262.832 586.5,260.5C 584.374,252.131 584.041,243.798 585.5,235.5 Z"/></g>
<g><path style="opacity:1" fill="#9647be" d="M 612.5,245.5 C 613.458,245.953 614.292,246.619 615,247.5C 615.357,251.51 615.19,255.51 614.5,259.5C 617.108,259.6 619.442,258.933 621.5,257.5C 619.503,260.843 616.503,262.51 612.5,262.5C 613.545,256.8 613.545,251.133 612.5,245.5 Z"/></g>
<g><path style="opacity:1" fill="#b77fd2" d="M 563.5,236.5 C 563.179,242.026 563.512,247.36 564.5,252.5C 566.647,258.31 568.48,264.31 570,270.5C 573.745,276.15 578.245,280.817 583.5,284.5C 586.712,286.631 589.712,288.964 592.5,291.5C 591.127,291.657 589.793,291.49 588.5,291C 585.092,287.917 581.425,285.251 577.5,283C 565.601,270.307 560.435,255.141 562,237.5C 562.383,236.944 562.883,236.611 563.5,236.5 Z"/></g>
<g><path style="opacity:1" fill="#b47ad0" d="M 591.5,266.5 C 594.268,268.93 596.601,271.763 598.5,275C 602.24,276.198 605.24,278.365 607.5,281.5C 599.57,279.235 594.236,274.235 591.5,266.5 Z"/></g>
<g><path style="opacity:1" fill="#b378d0" d="M 635.5,290.5 C 637.429,288.852 639.429,287.185 641.5,285.5C 641.333,285.167 641.167,284.833 641,284.5C 632.068,285.828 623.235,285.828 614.5,284.5C 622.84,284.666 631.173,284.5 639.5,284C 640.381,283.292 641.047,282.458 641.5,281.5C 643.856,280.425 646.189,280.425 648.5,281.5C 645.504,286.506 641.171,289.506 635.5,290.5 Z"/></g>
<g><path style="opacity:1" fill="#6b1c92" d="M 229.5,273.5 C 228.637,276.903 227.47,280.236 226,283.5C 223.93,286.636 222.096,289.969 220.5,293.5C 219.735,294.612 218.735,295.279 217.5,295.5C 220.52,287.447 224.52,280.114 229.5,273.5 Z"/></g>
<g><path style="opacity:1" fill="#9a4dc1" d="M 641.5,281.5 C 641.047,282.458 640.381,283.292 639.5,284C 631.173,284.5 622.84,284.666 614.5,284.5C 612.302,284.88 610.635,284.213 609.5,282.5C 620.356,284.157 631.023,283.823 641.5,281.5 Z"/></g>
<g><path style="opacity:1" fill="#d7b8e6" d="M 607.5,281.5 C 608.492,281.328 609.158,281.662 609.5,282.5C 610.635,284.213 612.302,284.88 614.5,284.5C 623.235,285.828 632.068,285.828 641,284.5C 641.167,284.833 641.333,285.167 641.5,285.5C 639.429,287.185 637.429,288.852 635.5,290.5C 632.457,291.345 629.457,292.345 626.5,293.5C 620.671,293 618.337,295.666 619.5,301.5C 617.994,298.531 618.327,295.698 620.5,293C 625.931,292.523 630.931,290.856 635.5,288C 627.812,287.831 620.145,287.331 612.5,286.5C 609.795,285.796 608.129,284.129 607.5,281.5 Z"/></g>
<g><path style="opacity:1" fill="#e6d3ef" d="M 583.5,284.5 C 588.011,287.388 593.011,289.221 598.5,290C 600.592,293.11 600.925,296.277 599.5,299.5C 599.662,297.473 599.495,295.473 599,293.5C 598.184,292.177 597.017,291.511 595.5,291.5C 594.5,291.5 593.5,291.5 592.5,291.5C 589.712,288.964 586.712,286.631 583.5,284.5 Z"/></g>
<g><path style="opacity:1" fill="#d6b0d9" d="M 215.5,299.5 C 214.674,302.485 213.341,305.151 211.5,307.5C 210.958,303.741 212.292,301.074 215.5,299.5 Z"/></g>
<g><path style="opacity:1" fill="#bd89d6" d="M 626.5,293.5 C 621.268,294.259 619.434,297.259 621,302.5C 624.038,305.369 626.871,308.369 629.5,311.5C 625.167,309.167 621.833,305.833 619.5,301.5C 618.337,295.666 620.671,293 626.5,293.5 Z"/></g>
<g><path style="opacity:1" fill="#b880d3" d="M 595.5,291.5 C 597.017,291.511 598.184,292.177 599,293.5C 599.495,295.473 599.662,297.473 599.5,299.5C 597.223,304.777 593.556,308.777 588.5,311.5C 591.446,308.378 594.279,305.044 597,301.5C 597.963,297.851 597.463,294.518 595.5,291.5 Z"/></g>
<g><path style="opacity:1" fill="#bd8ad6" d="M 629.5,311.5 C 644.023,316.921 658.69,322.088 673.5,327C 675.747,328.277 677.747,329.777 679.5,331.5C 677.079,331.122 674.746,330.455 672.5,329.5C 667.723,327.126 662.723,325.126 657.5,323.5C 649.672,320.693 641.672,317.86 633.5,315C 631.681,314.26 630.348,313.093 629.5,311.5 Z"/></g>
<g><path style="opacity:1" fill="#be8cd7" d="M 588.5,311.5 C 586.326,313.081 583.993,314.581 581.5,316C 563.843,321.716 546.843,328.882 530.5,337.5C 522.71,340.901 515.71,345.568 509.5,351.5C 507.246,352.415 505.246,353.748 503.5,355.5C 503.859,353.629 504.859,352.129 506.5,351C 510.072,349.431 513.072,347.098 515.5,344C 524.3,339.098 532.966,333.932 541.5,328.5C 557.415,323.2 573.081,317.534 588.5,311.5 Z"/></g>
<g><path style="opacity:1" fill="#dec5eb" d="M 657.5,323.5 C 662.723,325.126 667.723,327.126 672.5,329.5C 666.85,328.628 661.85,326.628 657.5,323.5 Z"/></g>
<g><path style="opacity:1" fill="#dabde8" d="M 672.5,329.5 C 674.746,330.455 677.079,331.122 679.5,331.5C 680.833,332.5 682.167,333.5 683.5,334.5C 679.164,334.163 675.497,332.496 672.5,329.5 Z"/></g>
<g><path style="opacity:1" fill="#caa0de" d="M 683.5,334.5 C 687.272,334.884 690.272,336.55 692.5,339.5C 690.177,338.222 687.677,337.222 685,336.5C 683.97,336.164 683.47,335.497 683.5,334.5 Z"/></g>
<g><path style="opacity:1" fill="#ba84d4" d="M 616.5,338.5 C 618.157,340.965 620.157,342.965 622.5,344.5C 618.523,343.514 615.19,341.514 612.5,338.5C 610.579,337.359 608.579,337.192 606.5,338C 600.576,341.636 594.576,345.303 588.5,349C 581.878,349.603 575.545,351.103 569.5,353.5C 571.833,352.167 574.167,350.833 576.5,349.5C 581.223,347.281 586.223,346.115 591.5,346C 595.787,342.454 600.453,339.454 605.5,337C 609.433,336.116 613.099,336.616 616.5,338.5 Z"/></g>
<g><path style="opacity:1" fill="#ddc3ea" d="M 616.5,338.5 C 620.152,339.992 623.485,341.992 626.5,344.5C 625.167,344.5 623.833,344.5 622.5,344.5C 620.157,342.965 618.157,340.965 616.5,338.5 Z"/></g>
<g><path style="opacity:1" fill="#c89ddd" d="M 692.5,339.5 C 695.067,340.75 697.733,341.917 700.5,343C 704.367,345.228 707.7,348.061 710.5,351.5C 706.322,350.855 702.989,348.688 700.5,345C 696.591,344.88 693.924,343.047 692.5,339.5 Z"/></g>
<g><path style="opacity:1" fill="#e2cbed" d="M 530.5,337.5 C 528.788,340.711 526.121,342.544 522.5,343C 518.919,345.314 515.585,347.981 512.5,351C 511.552,351.483 510.552,351.649 509.5,351.5C 515.71,345.568 522.71,340.901 530.5,337.5 Z"/></g>
<g><path style="opacity:1" fill="#b378d0" d="M 622.5,344.5 C 623.833,344.5 625.167,344.5 626.5,344.5C 635.96,348.764 645.627,352.43 655.5,355.5C 650.205,354.237 644.872,353.07 639.5,352C 635.184,349.465 630.518,347.798 625.5,347C 624.429,346.148 623.429,345.315 622.5,344.5 Z"/></g>
<g><path style="opacity:1" fill="#ddc2ea" d="M 576.5,349.5 C 574.167,350.833 571.833,352.167 569.5,353.5C 567.435,353.517 565.435,353.85 563.5,354.5C 567.187,351.56 571.52,349.893 576.5,349.5 Z"/></g>
<g><path style="opacity:1" fill="#b073ce" d="M 710.5,351.5 C 714.5,353.5 717.5,356.5 719.5,360.5C 716.167,357.833 713.167,354.833 710.5,351.5 Z"/></g>
<g><path style="opacity:1" fill="#b378d0" d="M 569.5,353.5 C 565.539,355.481 561.539,357.481 557.5,359.5C 556.833,359.5 556.167,359.5 555.5,359.5C 557.662,358.872 559.328,357.539 560.5,355.5C 561.609,355.443 562.609,355.11 563.5,354.5C 565.435,353.85 567.435,353.517 569.5,353.5 Z"/></g>
<g><path style="opacity:1" fill="#e3ceee" d="M 626.5,344.5 C 634.351,346.946 642.351,349.113 650.5,351C 654.31,352.13 657.643,354.13 660.5,357C 663.625,357.544 666.625,358.377 669.5,359.5C 669.5,360.5 669.5,361.5 669.5,362.5C 668.833,362.5 668.167,362.5 667.5,362.5C 667.158,361.662 666.492,361.328 665.5,361.5C 665.586,360.504 665.252,359.671 664.5,359C 661.301,358.599 658.301,357.766 655.5,356.5C 655.5,356.167 655.5,355.833 655.5,355.5C 645.627,352.43 635.96,348.764 626.5,344.5 Z"/></g>
<g><path style="opacity:1" fill="#af71cd" d="M 655.5,356.5 C 658.301,357.766 661.301,358.599 664.5,359C 665.252,359.671 665.586,360.504 665.5,361.5C 661.749,360.588 658.416,358.922 655.5,356.5 Z"/></g>
<g><path style="opacity:1" fill="#be8bd7" d="M 613.5,361.5 C 614.527,363.194 615.861,364.527 617.5,365.5C 614.769,364.393 611.936,363.393 609,362.5C 605.214,363.976 601.381,365.31 597.5,366.5C 590.334,370.154 582.667,372.821 574.5,374.5C 576.364,372.986 578.364,371.653 580.5,370.5C 584.559,368.702 588.892,367.536 593.5,367C 593.998,365.842 594.831,365.009 596,364.5C 600.586,363.404 605.086,362.071 609.5,360.5C 610.849,360.846 612.183,361.179 613.5,361.5 Z"/></g>
<g><path style="opacity:1" fill="#d9bbe7" d="M 560.5,355.5 C 559.328,357.539 557.662,358.872 555.5,359.5C 551.458,361.521 547.458,363.521 543.5,365.5C 546.289,362.934 549.289,360.6 552.5,358.5C 555.183,357.49 557.849,356.49 560.5,355.5 Z"/></g>
<g><path style="opacity:1" fill="#fefefe" d="M 617.5,365.5 C 621.625,367.763 625.959,369.43 630.5,370.5C 630.611,371.117 630.944,371.617 631.5,372C 637.865,373.857 644.198,375.69 650.5,377.5C 650.821,379.048 651.821,379.715 653.5,379.5C 657.391,383.107 662.057,385.107 667.5,385.5C 667.5,386.833 668.167,387.5 669.5,387.5C 673.439,393.108 678.106,398.108 683.5,402.5C 687.295,407.61 690.628,412.944 693.5,418.5C 693.5,419.833 693.5,421.167 693.5,422.5C 693.58,427.316 694.414,431.983 696,436.5C 696.333,464.833 696.667,493.167 697,521.5C 697.833,522.333 698.667,523.167 699.5,524C 713.496,524.5 727.496,524.667 741.5,524.5C 741.5,533.833 741.5,543.167 741.5,552.5C 717.833,552.5 694.167,552.5 670.5,552.5C 670.667,515.832 670.5,479.165 670,442.5C 669.617,441.944 669.117,441.611 668.5,441.5C 668.664,438.813 668.497,436.146 668,433.5C 666.359,431.16 664.859,428.827 663.5,426.5C 661.322,419.122 656.656,414.122 649.5,411.5C 649.092,410.357 648.425,409.357 647.5,408.5C 641.745,405.363 635.745,403.029 629.5,401.5C 629.389,400.883 629.056,400.383 628.5,400C 623.554,398.184 618.554,396.684 613.5,395.5C 613.389,394.883 613.056,394.383 612.5,394C 608.307,393.38 604.307,394.046 600.5,396C 599.619,396.708 598.953,397.542 598.5,398.5C 594.742,398.395 591.408,399.395 588.5,401.5C 579.065,403.753 570.732,408.087 563.5,414.5C 562.504,414.414 561.671,414.748 561,415.5C 558.049,419.827 555.049,424.16 552,428.5C 550.471,432.017 549.471,435.683 549,439.5C 548.5,477.165 548.333,514.832 548.5,552.5C 492.833,552.5 437.167,552.5 381.5,552.5C 381.833,514.161 381.5,475.828 380.5,437.5C 378.408,435.395 376.075,433.728 373.5,432.5C 373.389,431.883 373.056,431.383 372.5,431C 369.167,430.333 365.833,430.333 362.5,431C 360.121,433.599 358.121,436.433 356.5,439.5C 355.167,464.158 354.5,489.158 354.5,514.5C 354.833,539.5 355.167,564.5 355.5,589.5C 367.845,590.814 380.345,591.481 393,591.5C 405.338,591.5 417.505,591.167 429.5,590.5C 430.512,589.128 431.512,587.795 432.5,586.5C 433.491,579.687 433.825,572.687 433.5,565.5C 442.833,565.5 452.167,565.5 461.5,565.5C 462.04,574.368 461.373,583.035 459.5,591.5C 461.379,600.3 462.045,609.3 461.5,618.5C 417.167,618.5 372.833,618.5 328.5,618.5C 327.335,559.001 327.168,499.335 328,439.5C 329.316,436.312 329.816,432.978 329.5,429.5C 329.578,424.999 331.245,421.332 334.5,418.5C 340.348,411.968 347.015,406.635 354.5,402.5C 359.124,398.888 363.79,395.221 368.5,391.5C 369.735,392.34 370.735,393.34 371.5,394.5C 373.123,398.123 375.79,400.79 379.5,402.5C 381.396,403.466 383.396,403.799 385.5,403.5C 387.5,404.167 389.5,404.833 391.5,405.5C 392.5,406.833 393.5,408.167 394.5,409.5C 397.717,414.976 401.383,420.143 405.5,425C 405.728,428.641 406.728,431.808 408.5,434.5C 408.333,463.169 408.5,491.835 409,520.5C 409.417,521.756 410.25,522.423 411.5,522.5C 411.611,523.117 411.944,523.617 412.5,524C 448.171,524.833 483.838,524.667 519.5,523.5C 521.481,493.99 522.148,464.323 521.5,434.5C 521.338,432.473 521.505,430.473 522,428.5C 524.873,423.039 527.04,417.373 528.5,411.5C 532.195,405.002 536.528,398.835 541.5,393C 542.094,392.536 542.761,392.369 543.5,392.5C 545.196,392.315 546.529,391.481 547.5,390C 549.134,389.506 550.801,389.34 552.5,389.5C 552.33,388.178 552.663,387.011 553.5,386C 558.696,385.713 562.696,383.379 565.5,379C 575.055,375.727 584.722,372.727 594.5,370C 595.71,368.961 596.71,367.794 597.5,366.5C 601.381,365.31 605.214,363.976 609,362.5C 611.936,363.393 614.769,364.393 617.5,365.5 Z"/></g>
<g><path style="opacity:1" fill="#c190d8" d="M 667.5,362.5 C 668.167,362.5 668.833,362.5 669.5,362.5C 672.177,364.171 674.844,365.837 677.5,367.5C 673.316,367.408 669.983,365.741 667.5,362.5 Z"/></g>
<g><path style="opacity:1" fill="#bc88d5" d="M 719.5,360.5 C 722.871,363.871 725.871,367.537 728.5,371.5C 725.831,369.001 722.998,366.668 720,364.5C 719.51,363.207 719.343,361.873 719.5,360.5 Z"/></g>
<g><path style="opacity:1" fill="#c394da" d="M 617.5,365.5 C 623.039,367.232 628.706,368.566 634.5,369.5C 635.243,370.182 635.909,370.849 636.5,371.5C 634.435,371.483 632.435,371.15 630.5,370.5C 625.959,369.43 621.625,367.763 617.5,365.5 Z"/></g>
<g><path style="opacity:1" fill="#984bbf" d="M 555.5,359.5 C 556.167,359.5 556.833,359.5 557.5,359.5C 553.211,362.282 548.877,365.116 544.5,368C 543.207,368.49 541.873,368.657 540.5,368.5C 541.306,367.272 542.306,366.272 543.5,365.5C 547.458,363.521 551.458,361.521 555.5,359.5 Z"/></g>
<g><path style="opacity:1" fill="#d9bbe8" d="M 509.5,351.5 C 507.83,354.002 505.664,356.002 503,357.5C 499.054,363.779 494.721,369.779 490,375.5C 489.329,376.252 488.496,376.586 487.5,376.5C 489.629,371.85 492.795,367.85 497,364.5C 497.904,361.767 499.404,359.433 501.5,357.5C 501.833,356.5 502.5,355.833 503.5,355.5C 505.246,353.748 507.246,352.415 509.5,351.5 Z"/></g>
<g><path style="opacity:1" fill="#c292d9" d="M 677.5,368.5 C 681.53,368.849 684.53,370.849 686.5,374.5C 683.218,372.86 680.218,370.86 677.5,368.5 Z"/></g>
<g><path style="opacity:1" fill="#7300a9" d="M 1033.5,353.5 C 1037.36,363.776 1040.03,374.442 1041.5,385.5C 1042.63,399.477 1043.63,413.477 1044.5,427.5C 1046.57,433.053 1048.24,438.72 1049.5,444.5C 1048.83,447.833 1048.17,451.167 1047.5,454.5C 1048.35,458.469 1049.02,462.469 1049.5,466.5C 1048.61,473.813 1047.95,481.146 1047.5,488.5C 1047.8,492.894 1048.47,497.227 1049.5,501.5C 1049.17,502.833 1048.83,504.167 1048.5,505.5C 1047.17,502.833 1045.83,500.167 1044.5,497.5C 1042.01,508.089 1041.18,518.755 1042,529.5C 1041.44,527.405 1040.94,527.238 1040.5,529C 1041.99,531.999 1041.82,534.832 1040,537.5C 1040.35,534.729 1040.18,532.062 1039.5,529.5C 1037.83,529.5 1036.17,529.5 1034.5,529.5C 1034.5,526.833 1034.5,524.167 1034.5,521.5C 1033.5,521.5 1032.5,521.5 1031.5,521.5C 1031.5,518.833 1031.5,516.167 1031.5,513.5C 1028.17,513.5 1024.83,513.5 1021.5,513.5C 1023.05,502.906 1023.72,492.24 1023.5,481.5C 1026.17,481.5 1028.83,481.5 1031.5,481.5C 1031.5,449.5 1031.5,417.5 1031.5,385.5C 1032.98,385.762 1034.31,385.429 1035.5,384.5C 1033.01,382.917 1030.34,381.917 1027.5,381.5C 1025.52,376.199 1023.52,370.866 1021.5,365.5C 1021.83,364.167 1022.17,362.833 1022.5,361.5C 1024.59,363.745 1025.92,366.412 1026.5,369.5C 1026.83,367.833 1027.17,366.167 1027.5,364.5C 1026.59,360.623 1025.26,356.956 1023.5,353.5C 1020.83,353.5 1018.17,353.5 1015.5,353.5C 1015.5,350.833 1015.5,348.167 1015.5,345.5C 1016.5,345.5 1017.5,345.5 1018.5,345.5C 1018.5,342.833 1018.5,340.167 1018.5,337.5C 1020.17,337.5 1021.83,337.5 1023.5,337.5C 1023.35,345.209 1024.35,345.209 1026.5,337.5C 1026.83,338 1027.17,338.5 1027.5,339C 1026.3,340.533 1026.3,342.033 1027.5,343.5C 1027.15,344.696 1026.65,344.696 1026,343.5C 1025.19,345.579 1025.36,347.579 1026.5,349.5C 1027.17,348.167 1027.83,346.833 1028.5,345.5C 1028.83,346.5 1029.17,347.5 1029.5,348.5C 1026.64,352.677 1027.97,354.344 1033.5,353.5 Z"/></g>
<g><path style="opacity:1" fill="#aa68ca" d="M 580.5,370.5 C 578.364,371.653 576.364,372.986 574.5,374.5C 570.901,375.699 567.235,376.699 563.5,377.5C 567.721,375.25 572.054,373.084 576.5,371C 577.793,370.51 579.127,370.343 580.5,370.5 Z"/></g>
<g><path style="opacity:1" fill="#dec4eb" d="M 630.5,370.5 C 632.435,371.15 634.435,371.483 636.5,371.5C 641.968,371.907 646.635,373.907 650.5,377.5C 644.198,375.69 637.865,373.857 631.5,372C 630.944,371.617 630.611,371.117 630.5,370.5 Z"/></g>
<g><path style="opacity:1" fill="#9647be" d="M 613.5,361.5 C 619.177,363.953 625.177,365.453 631.5,366C 636.997,369.559 642.997,372.059 649.5,373.5C 653.74,376.774 658.073,379.774 662.5,382.5C 659.426,381.698 656.426,380.698 653.5,379.5C 651.821,379.715 650.821,379.048 650.5,377.5C 646.635,373.907 641.968,371.907 636.5,371.5C 635.909,370.849 635.243,370.182 634.5,369.5C 628.706,368.566 623.039,367.232 617.5,365.5C 615.861,364.527 614.527,363.194 613.5,361.5 Z"/></g>
<g><path style="opacity:1" fill="#af71ce" d="M 728.5,371.5 C 730.25,372.659 731.25,374.326 731.5,376.5C 729.259,375.7 728.259,374.034 728.5,371.5 Z"/></g>
<g><path style="opacity:1" fill="#a45ec6" d="M 535.5,371.5 C 533.766,374.901 531.099,377.234 527.5,378.5C 529.336,375.244 532.003,372.911 535.5,371.5 Z"/></g>
<g><path style="opacity:1" fill="#b379d0" d="M 686.5,374.5 C 688.754,375.415 690.754,376.748 692.5,378.5C 695.239,381.233 697.573,384.233 699.5,387.5C 694.833,383.5 690.5,379.167 686.5,374.5 Z"/></g>
<g><path style="opacity:1" fill="#b880d3" d="M 501.5,357.5 C 499.404,359.433 497.904,361.767 497,364.5C 492.795,367.85 489.629,371.85 487.5,376.5C 486.68,378.812 485.847,381.146 485,383.5C 480.252,388.66 477.419,394.66 476.5,401.5C 475.883,401.611 475.383,401.944 475,402.5C 473.511,410.495 471.345,418.162 468.5,425.5C 470.294,412.748 473.461,400.414 478,388.5C 479.643,386.023 481.476,383.69 483.5,381.5C 485.422,374.056 489.589,368.056 496,363.5C 496.649,360.353 498.482,358.353 501.5,357.5 Z"/></g>
<g><path style="opacity:1" fill="#e5d1ef" d="M 597.5,366.5 C 596.71,367.794 595.71,368.961 594.5,370C 584.722,372.727 575.055,375.727 565.5,379C 562.696,383.379 558.696,385.713 553.5,386C 552.663,387.011 552.33,388.178 552.5,389.5C 550.801,389.34 549.134,389.506 547.5,390C 546.529,391.481 545.196,392.315 543.5,392.5C 544.167,391.5 544.833,390.5 545.5,389.5C 551.095,385.026 557.095,381.026 563.5,377.5C 567.235,376.699 570.901,375.699 574.5,374.5C 582.667,372.821 590.334,370.154 597.5,366.5 Z"/></g>
<g><path style="opacity:1" fill="#d1ace2" d="M 653.5,379.5 C 656.426,380.698 659.426,381.698 662.5,382.5C 664.434,383.11 666.101,384.11 667.5,385.5C 662.057,385.107 657.391,383.107 653.5,379.5 Z"/></g>
<g><path style="opacity:1" fill="#b275cf" d="M 731.5,376.5 C 734.839,379.835 737.172,383.835 738.5,388.5C 737.833,388.5 737.167,388.5 736.5,388.5C 736.293,384.826 734.626,382.16 731.5,380.5C 731.5,379.167 731.5,377.833 731.5,376.5 Z"/></g>
<g><path style="opacity:1" fill="#ddc2ea" d="M 731.5,380.5 C 734.626,382.16 736.293,384.826 736.5,388.5C 734.336,386.178 732.669,383.511 731.5,380.5 Z"/></g>
<g><path style="opacity:1" fill="#d49fe4" d="M 187.5,385.5 C 187.125,387.698 186.458,389.698 185.5,391.5C 185.025,388.918 185.692,386.918 187.5,385.5 Z"/></g>
<g><path style="opacity:1" fill="#a35cc6" d="M 372.5,392.5 C 370.477,390.299 368.144,389.966 365.5,391.5C 366.495,388.408 368.495,387.741 371.5,389.5C 372.386,390.325 372.719,391.325 372.5,392.5 Z"/></g>
<g><path style="opacity:1" fill="#ddc4ea" d="M 669.5,387.5 C 674.894,391.892 679.561,396.892 683.5,402.5C 678.106,398.108 673.439,393.108 669.5,387.5 Z"/></g>
<g><path style="opacity:1" fill="#cda6e0" d="M 692.5,378.5 C 695.394,379.882 697.894,381.882 700,384.5C 701.592,388.572 703.759,392.239 706.5,395.5C 703.427,393.431 701.094,390.764 699.5,387.5C 697.573,384.233 695.239,381.233 692.5,378.5 Z"/></g>
<g><path style="opacity:1" fill="#d6b5e5" d="M 543.5,365.5 C 542.306,366.272 541.306,367.272 540.5,368.5C 538.326,368.75 536.659,369.75 535.5,371.5C 532.003,372.911 529.336,375.244 527.5,378.5C 526.504,378.414 525.671,378.748 525,379.5C 522.089,384.912 518.256,389.579 513.5,393.5C 510.733,397.068 508.899,401.068 508,405.5C 506.595,406.731 505.429,408.064 504.5,409.5C 506.256,400.883 510.423,393.55 517,387.5C 523.305,377.021 532.138,369.688 543.5,365.5 Z"/></g>
<g><path style="opacity:1" fill="#b57bd1" d="M 545.5,389.5 C 544.833,390.5 544.167,391.5 543.5,392.5C 542.761,392.369 542.094,392.536 541.5,393C 536.528,398.835 532.195,405.002 528.5,411.5C 530.642,401.309 536.308,393.976 545.5,389.5 Z"/></g>
<g><path style="opacity:1" fill="#e4ceee" d="M 613.5,395.5 C 608.198,395.119 603.198,396.119 598.5,398.5C 598.953,397.542 599.619,396.708 600.5,396C 604.307,394.046 608.307,393.38 612.5,394C 613.056,394.383 613.389,394.883 613.5,395.5 Z"/></g>
<g><path style="opacity:1" fill="#d9b2e8" d="M 185.5,391.5 C 185.247,395.04 184.581,398.373 183.5,401.5C 182.931,397.671 183.598,394.337 185.5,391.5 Z"/></g>
<g><path style="opacity:1" fill="#e1caed" d="M 371.5,394.5 C 373.573,396.58 375.907,398.246 378.5,399.5C 381.406,400.108 383.74,401.441 385.5,403.5C 383.396,403.799 381.396,403.466 379.5,402.5C 375.79,400.79 373.123,398.123 371.5,394.5 Z"/></g>
<g><path style="opacity:1" fill="#dec5eb" d="M 613.5,395.5 C 618.554,396.684 623.554,398.184 628.5,400C 629.056,400.383 629.389,400.883 629.5,401.5C 623.871,400.071 618.537,398.071 613.5,395.5 Z"/></g>
<g><path style="opacity:1" fill="#b67dd2" d="M 845.5,392.5 C 844.234,397.589 840.901,400.422 835.5,401C 833.907,401.949 832.574,403.115 831.5,404.5C 830.167,404.833 828.833,405.167 827.5,405.5C 829.401,403.204 831.734,401.371 834.5,400C 839.418,399.236 843.084,396.736 845.5,392.5 Z"/></g>
<g><path style="opacity:1" fill="#ae70cd" d="M 613.5,395.5 C 618.537,398.071 623.871,400.071 629.5,401.5C 631.934,402.985 634.267,404.652 636.5,406.5C 627.694,403.423 618.861,400.423 610,397.5C 601.901,399.146 594.068,401.479 586.5,404.5C 587.167,403.5 587.833,402.5 588.5,401.5C 591.408,399.395 594.742,398.395 598.5,398.5C 603.198,396.119 608.198,395.119 613.5,395.5 Z"/></g>
<g><path style="opacity:1" fill="#b074ce" d="M 738.5,389.5 C 743.763,397.031 747.096,405.364 748.5,414.5C 744.997,406.456 741.664,398.123 738.5,389.5 Z"/></g>
<g><path style="opacity:1" fill="#dabde8" d="M 629.5,401.5 C 635.745,403.029 641.745,405.363 647.5,408.5C 648.425,409.357 649.092,410.357 649.5,411.5C 645.421,408.952 641.087,407.285 636.5,406.5C 634.267,404.652 631.934,402.985 629.5,401.5 Z"/></g>
<g><path style="opacity:1" fill="#d6b6e5" d="M 882.5,415.5 C 876.379,409.776 869.379,405.609 861.5,403C 858.185,397.842 853.851,394.008 848.5,391.5C 848.762,392.978 848.429,394.311 847.5,395.5C 845.5,396.833 843.833,398.5 842.5,400.5C 838.506,401.1 834.839,402.433 831.5,404.5C 832.574,403.115 833.907,401.949 835.5,401C 840.901,400.422 844.234,397.589 845.5,392.5C 847.496,390.667 849.829,390.167 852.5,391C 855.5,394 858.5,397 861.5,400C 866.725,401.279 871.391,403.612 875.5,407C 878.447,409.436 880.78,412.269 882.5,415.5 Z"/></g>
<g><path style="opacity:1" fill="#af71cd" d="M 391.5,405.5 C 396.328,406.331 399.662,408.998 401.5,413.5C 399.637,411.295 397.303,409.961 394.5,409.5C 393.5,408.167 392.5,406.833 391.5,405.5 Z"/></g>
<g><path style="opacity:1" fill="#b67ed2" d="M 667.5,385.5 C 679,392.502 687.5,402.169 693,414.5C 693.49,415.793 693.657,417.127 693.5,418.5C 690.628,412.944 687.295,407.61 683.5,402.5C 679.561,396.892 674.894,391.892 669.5,387.5C 668.167,387.5 667.5,386.833 667.5,385.5 Z"/></g>
<g><path style="opacity:1" fill="#e3cced" d="M 394.5,409.5 C 397.303,409.961 399.637,411.295 401.5,413.5C 401.025,416.313 402.025,418.313 404.5,419.5C 407.041,424.13 408.374,429.13 408.5,434.5C 406.728,431.808 405.728,428.641 405.5,425C 401.383,420.143 397.717,414.976 394.5,409.5 Z"/></g>
<g><path style="opacity:1" fill="#e9d9f2" d="M 476.5,401.5 C 474.748,410.253 472.581,418.919 470,427.5C 469.667,432.167 469.333,436.833 469,441.5C 468.167,442.333 467.333,443.167 466.5,444C 455.505,444.5 444.505,444.667 433.5,444.5C 443.167,443.833 452.833,443.167 462.5,442.5C 465.091,441.746 466.924,440.079 468,437.5C 468.499,433.514 468.666,429.514 468.5,425.5C 471.345,418.162 473.511,410.495 475,402.5C 475.383,401.944 475.883,401.611 476.5,401.5 Z"/></g>
<g><path style="opacity:1" fill="#d9bbe7" d="M 736.5,388.5 C 737.167,388.5 737.833,388.5 738.5,388.5C 738.5,388.833 738.5,389.167 738.5,389.5C 741.664,398.123 744.997,406.456 748.5,414.5C 748.5,415.167 748.5,415.833 748.5,416.5C 748.068,419.877 748.735,422.877 750.5,425.5C 749.903,430.294 750.57,434.627 752.5,438.5C 752.833,439.167 753.167,439.833 753.5,440.5C 754.833,441.167 756.167,441.833 757.5,442.5C 754.348,443.041 751.848,442.041 750,439.5C 749.713,431.702 748.713,424.036 747,416.5C 743.219,407.272 739.719,397.938 736.5,388.5 Z"/></g>
<g><path style="opacity:1" fill="#b176cf" d="M 825.5,406.5 C 821.859,409.805 818.192,413.138 814.5,416.5C 816.892,411.775 820.559,408.442 825.5,406.5 Z"/></g>
<g><path style="opacity:1" fill="#dfc6eb" d="M 831.5,404.5 C 826.089,408.396 820.922,412.729 816,417.5C 815.4,419.91 814.234,421.91 812.5,423.5C 813.167,421.167 813.833,418.833 814.5,416.5C 818.192,413.138 821.859,409.805 825.5,406.5C 826.167,406.167 826.833,405.833 827.5,405.5C 828.833,405.167 830.167,404.833 831.5,404.5 Z"/></g>
<g><path style="opacity:1" fill="#cba2df" d="M 588.5,401.5 C 587.833,402.5 587.167,403.5 586.5,404.5C 576.703,406.647 568.37,411.313 561.5,418.5C 561.733,416.938 562.4,415.605 563.5,414.5C 570.732,408.087 579.065,403.753 588.5,401.5 Z"/></g>
<g><path style="opacity:1" fill="#bd8ad6" d="M 372.5,392.5 C 374.5,394.833 376.5,397.167 378.5,399.5C 375.907,398.246 373.573,396.58 371.5,394.5C 370.735,393.34 369.735,392.34 368.5,391.5C 363.79,395.221 359.124,398.888 354.5,402.5C 350.396,402.884 346.729,404.384 343.5,407C 340.262,410.728 337.262,414.561 334.5,418.5C 331.245,421.332 329.578,424.999 329.5,429.5C 328.918,432.313 327.918,434.98 326.5,437.5C 326.368,434.43 326.701,431.43 327.5,428.5C 328.784,424.583 330.45,420.749 332.5,417C 336.18,413.653 339.513,409.987 342.5,406C 350.87,402.156 358.536,397.322 365.5,391.5C 368.144,389.966 370.477,390.299 372.5,392.5 Z"/></g>
<g><path style="opacity:1" fill="#e5d2ef" d="M 354.5,402.5 C 347.015,406.635 340.348,411.968 334.5,418.5C 337.262,414.561 340.262,410.728 343.5,407C 346.729,404.384 350.396,402.884 354.5,402.5 Z"/></g>
<g><path style="opacity:1" fill="#c9c8c3" d="M 189.5,369.5 C 188.833,374.833 188.167,380.167 187.5,385.5C 185.692,386.918 185.025,388.918 185.5,391.5C 183.598,394.337 182.931,397.671 183.5,401.5C 182.833,406.833 182.167,412.167 181.5,417.5C 179.598,420.337 178.931,423.671 179.5,427.5C 179.5,429.5 179.5,431.5 179.5,433.5C 177.554,438.396 176.887,443.729 177.5,449.5C 177.5,454.833 177.5,460.167 177.5,465.5C 175.842,481.146 174.842,497.146 174.5,513.5C 172.09,494.891 171.423,476.225 172.5,457.5C 172.167,454.833 171.833,452.167 171.5,449.5C 170.505,454.792 170.172,460.125 170.5,465.5C 169.5,465.5 168.5,465.5 167.5,465.5C 168.173,454.808 168.173,444.141 167.5,433.5C 168.833,433.5 170.167,433.5 171.5,433.5C 171.5,428.167 171.5,422.833 171.5,417.5C 172.833,417.5 174.167,417.5 175.5,417.5C 175.201,419.604 175.534,421.604 176.5,423.5C 177.809,417.278 177.809,411.111 176.5,405C 180.825,393.535 183.825,381.701 185.5,369.5C 186.833,369.5 188.167,369.5 189.5,369.5 Z"/></g>
<g><path style="opacity:1" fill="#b377d0" d="M 401.5,413.5 C 403.245,415.033 404.245,417.033 404.5,419.5C 402.025,418.313 401.025,416.313 401.5,413.5 Z"/></g>
<g><path style="opacity:1" fill="#aa68ca" d="M 748.5,416.5 C 749.117,416.611 749.617,416.944 750,417.5C 750.497,420.146 750.664,422.813 750.5,425.5C 748.735,422.877 748.068,419.877 748.5,416.5 Z"/></g>
<g><path style="opacity:1" fill="#a865c9" d="M 404.5,419.5 C 405.458,419.953 406.292,420.619 407,421.5C 409.352,426.407 410.852,431.574 411.5,437C 411.43,437.765 411.097,438.265 410.5,438.5C 410.34,436.847 409.674,435.514 408.5,434.5C 408.374,429.13 407.041,424.13 404.5,419.5 Z"/></g>
<g><path style="opacity:1" fill="#cea8e1" d="M 649.5,411.5 C 656.656,414.122 661.322,419.122 663.5,426.5C 658.833,421.5 654.167,416.5 649.5,411.5 Z"/></g>
<g><path style="opacity:1" fill="#a560c7" d="M 561.5,418.5 C 561.103,422.565 559.103,425.565 555.5,427.5C 557.507,424.495 559.507,421.495 561.5,418.5 Z"/></g>
<g><path style="opacity:1" fill="#c17bda" d="M 181.5,417.5 C 181.247,421.04 180.581,424.373 179.5,427.5C 178.931,423.671 179.598,420.337 181.5,417.5 Z"/></g>
<g><path style="opacity:1" fill="#a25ac5" d="M 750.5,425.5 C 752.43,429.373 753.097,433.706 752.5,438.5C 750.57,434.627 749.903,430.294 750.5,425.5 Z"/></g>
<g><path style="opacity:1" fill="#caa1de" d="M 504.5,409.5 C 503.167,415.5 501.833,421.5 500.5,427.5C 499.778,427.918 499.278,428.584 499,429.5C 498.5,443.829 498.333,458.163 498.5,472.5C 498.167,472.5 497.833,472.5 497.5,472.5C 497.5,458.167 497.5,443.833 497.5,429.5C 499.721,423.062 501.054,416.396 501.5,409.5C 502.5,409.5 503.5,409.5 504.5,409.5 Z"/></g>
<g><path style="opacity:1" fill="#af71cd" d="M 814.5,416.5 C 813.833,418.833 813.167,421.167 812.5,423.5C 811.414,423.62 810.747,424.287 810.5,425.5C 810,427.5 809.5,429.5 809,431.5C 808.667,461.167 808.333,490.833 808,520.5C 807.097,521.701 805.931,522.535 804.5,523C 801.964,523.186 799.631,523.686 797.5,524.5C 797.167,524.5 796.833,524.5 796.5,524.5C 796.167,524.5 795.833,524.5 795.5,524.5C 795.611,523.883 795.944,523.383 796.5,523C 799.687,522.111 802.853,521.278 806,520.5C 806.333,490.833 806.667,461.167 807,431.5C 808.276,425.844 810.776,420.844 814.5,416.5 Z"/></g>
<g><path style="opacity:1" fill="#e6d3ef" d="M 812.5,423.5 C 811.895,426.127 811.395,428.793 811,431.5C 810.667,461.5 810.333,491.5 810,521.5C 809.167,522.333 808.333,523.167 807.5,524C 804.518,524.498 801.518,524.665 798.5,524.5C 798.5,533.833 798.5,543.167 798.5,552.5C 797.506,543.348 797.173,534.015 797.5,524.5C 799.631,523.686 801.964,523.186 804.5,523C 805.931,522.535 807.097,521.701 808,520.5C 808.333,490.833 808.667,461.167 809,431.5C 809.5,429.5 810,427.5 810.5,425.5C 810.747,424.287 811.414,423.62 812.5,423.5 Z"/></g>
<g><path style="opacity:1" fill="#cfabe2" d="M 882.5,415.5 C 885.917,417.592 888.25,420.592 889.5,424.5C 890.475,489.486 890.808,554.486 890.5,619.5C 890.167,619.5 889.833,619.5 889.5,619.5C 889.832,556.998 889.499,494.664 888.5,432.5C 887.863,429.544 887.363,426.544 887,423.5C 885.223,420.941 883.723,418.274 882.5,415.5 Z"/></g>
<g><path style="opacity:1" fill="#b47ad1" d="M 889.5,424.5 C 890.309,426.292 890.809,428.292 891,430.5C 891.5,493.499 891.667,556.499 891.5,619.5C 891.167,619.5 890.833,619.5 890.5,619.5C 890.808,554.486 890.475,489.486 889.5,424.5 Z"/></g>
<g><path style="opacity:1" fill="#a35cc6" d="M 715.5,418.5 C 718.023,423.406 719.357,428.74 719.5,434.5C 719.5,447.167 719.5,459.833 719.5,472.5C 718.669,459.34 718.169,446.006 718,432.5C 716.625,428.006 715.792,423.339 715.5,418.5 Z"/></g>
<g><path style="opacity:1" fill="#d5b4e5" d="M 706.5,397.5 C 711.359,401.358 714.359,406.524 715.5,413C 716.009,414.169 716.842,415.002 718,415.5C 718.118,418.371 718.784,421.038 720,423.5C 721.345,439.467 721.845,455.467 721.5,471.5C 720.833,459.167 720.167,446.833 719.5,434.5C 719.357,428.74 718.023,423.406 715.5,418.5C 712.761,411.359 709.761,404.359 706.5,397.5 Z"/></g>
<g><path style="opacity:1" fill="#eee2f5" d="M 693.5,422.5 C 695.746,426.805 697.08,431.471 697.5,436.5C 697.333,464.502 697.5,492.502 698,520.5C 698.816,521.823 699.983,522.489 701.5,522.5C 714.932,523.15 728.265,523.816 741.5,524.5C 727.496,524.667 713.496,524.5 699.5,524C 698.667,523.167 697.833,522.333 697,521.5C 696.667,493.167 696.333,464.833 696,436.5C 694.414,431.983 693.58,427.316 693.5,422.5 Z"/></g>
<g><path style="opacity:1" fill="#d3b2e4" d="M 697.5,436.5 C 698.167,464.167 698.833,491.833 699.5,519.5C 699.833,519.5 700.167,519.5 700.5,519.5C 700.833,520.167 701.167,520.833 701.5,521.5C 701.5,521.833 701.5,522.167 701.5,522.5C 699.983,522.489 698.816,521.823 698,520.5C 697.5,492.502 697.333,464.502 697.5,436.5 Z"/></g>
<g><path style="opacity:1" fill="#b77fd3" d="M 693.5,418.5 C 697.14,422.679 698.806,427.679 698.5,433.5C 699.484,462.123 699.817,490.789 699.5,519.5C 698.833,491.833 698.167,464.167 697.5,436.5C 697.08,431.471 695.746,426.805 693.5,422.5C 693.5,421.167 693.5,419.833 693.5,418.5 Z"/></g>
<g><path style="opacity:1" fill="#9d51c3" d="M 698.5,433.5 C 699.117,433.611 699.617,433.944 700,434.5C 700.5,462.831 700.667,491.165 700.5,519.5C 700.167,519.5 699.833,519.5 699.5,519.5C 699.817,490.789 699.484,462.123 698.5,433.5 Z"/></g>
<g><path style="opacity:1" fill="#b073ce" d="M 528.5,411.5 C 527.04,417.373 524.873,423.039 522,428.5C 521.505,430.473 521.338,432.473 521.5,434.5C 520.662,434.842 520.328,435.508 520.5,436.5C 519.833,464.167 519.167,491.833 518.5,519.5C 518.333,491.498 518.5,463.498 519,435.5C 520.374,428.277 522.374,421.277 525,414.5C 525.759,412.937 526.926,411.937 528.5,411.5 Z"/></g>
<g><path style="opacity:1" fill="#ddc2ea" d="M 408.5,434.5 C 409.674,435.514 410.34,436.847 410.5,438.5C 409.596,439.209 409.263,440.209 409.5,441.5C 409.333,467.169 409.5,492.835 410,518.5C 410.41,519.901 410.91,521.234 411.5,522.5C 410.25,522.423 409.417,521.756 409,520.5C 408.5,491.835 408.333,463.169 408.5,434.5 Z"/></g>
<g><path style="opacity:1" fill="#caa1de" d="M 520.5,436.5 C 520.667,464.502 520.5,492.502 520,520.5C 519.184,521.823 518.017,522.489 516.5,522.5C 516.5,522.167 516.5,521.833 516.5,521.5C 517.5,521.167 518.167,520.5 518.5,519.5C 519.167,491.833 519.833,464.167 520.5,436.5 Z"/></g>
<g><path style="opacity:1" fill="#872ab4" d="M 327.5,428.5 C 326.701,431.43 326.368,434.43 326.5,437.5C 325.883,437.611 325.383,437.944 325,438.5C 324.5,498.832 324.333,559.166 324.5,619.5C 323.335,559.001 323.168,498.335 324,437.5C 324.182,434.774 324.682,432.107 325.5,429.5C 326.183,429.137 326.85,428.804 327.5,428.5 Z"/></g>
<g><path style="opacity:1" fill="#d5b4e5" d="M 329.5,429.5 C 329.816,432.978 329.316,436.312 328,439.5C 327.168,499.335 327.335,559.001 328.5,618.5C 372.997,619.499 417.664,619.832 462.5,619.5C 417.431,620.832 372.264,620.832 327,619.5C 326.5,558.834 326.333,498.168 326.5,437.5C 327.918,434.98 328.918,432.313 329.5,429.5 Z"/></g>
<g><path style="opacity:1" fill="#e4ceee" d="M 853.5,431.5 C 850.482,431.335 847.482,431.502 844.5,432C 843.177,432.816 842.511,433.983 842.5,435.5C 841.5,435.833 840.833,436.5 840.5,437.5C 839.883,437.611 839.383,437.944 839,438.5C 838.667,476.833 838.333,515.167 838,553.5C 824.735,554.83 811.569,554.83 798.5,553.5C 798.5,553.167 798.5,552.833 798.5,552.5C 811.167,552.5 823.833,552.5 836.5,552.5C 836.167,513.494 836.5,474.494 837.5,435.5C 839.924,434.577 841.924,433.077 843.5,431C 847.027,430.192 850.36,430.359 853.5,431.5 Z"/></g>
<g><path style="opacity:1" fill="#b073ce" d="M 840.5,437.5 C 840.667,476.168 840.5,514.835 840,553.5C 839.292,554.381 838.458,555.047 837.5,555.5C 824.163,555.667 810.829,555.5 797.5,555C 796.944,554.617 796.611,554.117 796.5,553.5C 797.167,553.5 797.833,553.5 798.5,553.5C 811.569,554.83 824.735,554.83 838,553.5C 838.333,515.167 838.667,476.833 839,438.5C 839.383,437.944 839.883,437.611 840.5,437.5 Z"/></g>
<g><path style="opacity:1" fill="#a25bc6" d="M 858.5,438.5 C 859.499,487.664 859.832,536.997 859.5,586.5C 859.586,587.496 859.252,588.329 858.5,589C 835.169,589.5 811.836,589.667 788.5,589.5C 787.833,589.5 787.5,589.167 787.5,588.5C 811.075,588.827 834.575,588.494 858,587.5C 858.5,537.834 858.667,488.168 858.5,438.5 Z"/></g>
<g><path style="opacity:1" fill="#bc88d6" d="M 853.5,431.5 C 855.027,431.427 856.027,432.094 856.5,433.5C 857.5,435.167 858.833,436.5 860.5,437.5C 860.832,487.336 860.499,537.003 859.5,586.5C 859.832,536.997 859.499,487.664 858.5,438.5C 854.209,431.879 848.875,430.879 842.5,435.5C 842.511,433.983 843.177,432.816 844.5,432C 847.482,431.502 850.482,431.335 853.5,431.5 Z"/></g>
<g><path style="opacity:1" fill="#d3b1e4" d="M 860.5,437.5 C 861.665,487.665 861.832,537.998 861,588.5C 859.89,590.037 858.39,590.703 856.5,590.5C 833.661,590.831 810.994,590.497 788.5,589.5C 811.836,589.667 835.169,589.5 858.5,589C 859.252,588.329 859.586,587.496 859.5,586.5C 860.499,537.003 860.832,487.336 860.5,437.5 Z"/></g>
<g><path style="opacity:1" fill="#f2e9f7" d="M 856.5,433.5 C 858.426,434.242 860.259,435.242 862,436.5C 862.667,487.5 862.667,538.5 862,589.5C 860.556,591.155 858.722,591.822 856.5,591.5C 856.5,591.167 856.5,590.833 856.5,590.5C 858.39,590.703 859.89,590.037 861,588.5C 861.832,537.998 861.665,487.665 860.5,437.5C 858.833,436.5 857.5,435.167 856.5,433.5 Z"/></g>
<g><path style="opacity:1" fill="#923fbc" d="M 752.5,438.5 C 763.816,439.487 774.816,440.82 785.5,442.5C 784.833,442.5 784.167,442.5 783.5,442.5C 773.392,442.92 763.392,442.253 753.5,440.5C 753.167,439.833 752.833,439.167 752.5,438.5 Z"/></g>
<g><path style="opacity:1" fill="#e6d3f0" d="M 373.5,432.5 C 376.075,433.728 378.408,435.395 380.5,437.5C 381.5,475.828 381.833,514.161 381.5,552.5C 380.667,515.002 380.167,477.336 380,439.5C 377.628,437.297 375.461,434.963 373.5,432.5 Z"/></g>
<g><path style="opacity:1" fill="#ac6acb" d="M 468.5,425.5 C 468.666,429.514 468.499,433.514 468,437.5C 466.924,440.079 465.091,441.746 462.5,442.5C 452.833,442.5 443.167,442.5 433.5,442.5C 443.5,441.833 453.5,441.167 463.5,440.5C 464.458,440.047 465.292,439.381 466,438.5C 465.892,433.72 466.725,429.386 468.5,425.5 Z"/></g>
<g><path style="opacity:1" fill="#8c52a4" d="M 179.5,433.5 C 180.113,439.271 179.446,444.604 177.5,449.5C 176.887,443.729 177.554,438.396 179.5,433.5 Z"/></g>
<g><path style="opacity:1" fill="#872cb4" d="M 362.5,435.5 C 361.199,436.882 360.366,438.548 360,440.5C 359.5,489.499 359.333,538.499 359.5,587.5C 382.833,587.5 406.167,587.5 429.5,587.5C 406.004,588.663 382.337,588.83 358.5,588C 357.944,587.617 357.611,587.117 357.5,586.5C 357.176,537.458 357.509,488.458 358.5,439.5C 358.833,437.167 360.167,435.833 362.5,435.5 Z"/></g>
<g><path style="opacity:1" fill="#c292d9" d="M 753.5,440.5 C 763.392,442.253 773.392,442.92 783.5,442.5C 783.5,442.833 783.5,443.167 783.5,443.5C 774.779,443.775 766.113,443.442 757.5,442.5C 756.167,441.833 754.833,441.167 753.5,440.5 Z"/></g>
<g><path style="opacity:1" fill="#e1c9ec" d="M 356.5,439.5 C 356.5,439.833 356.5,440.167 356.5,440.5C 356.5,489.167 356.5,537.833 356.5,586.5C 356.511,588.017 357.177,589.184 358.5,590C 382.164,590.5 405.831,590.667 429.5,590.5C 417.505,591.167 405.338,591.5 393,591.5C 380.345,591.481 367.845,590.814 355.5,589.5C 355.167,564.5 354.833,539.5 354.5,514.5C 354.5,489.158 355.167,464.158 356.5,439.5 Z"/></g>
<g><path style="opacity:1" fill="#b276d0" d="M 358.5,439.5 C 357.509,488.458 357.176,537.458 357.5,586.5C 357.167,586.5 356.833,586.5 356.5,586.5C 356.5,537.833 356.5,489.167 356.5,440.5C 357.167,440.167 357.833,439.833 358.5,439.5 Z"/></g>
<g><path style="opacity:1" fill="#e3ceee" d="M 563.5,414.5 C 562.4,415.605 561.733,416.938 561.5,418.5C 559.507,421.495 557.507,424.495 555.5,427.5C 553.589,431.233 552.256,435.233 551.5,439.5C 550.778,439.918 550.278,440.584 550,441.5C 549.833,479.002 549.333,516.336 548.5,553.5C 492.664,553.832 436.998,553.499 381.5,552.5C 437.167,552.5 492.833,552.5 548.5,552.5C 548.333,514.832 548.5,477.165 549,439.5C 549.471,435.683 550.471,432.017 552,428.5C 555.049,424.16 558.049,419.827 561,415.5C 561.671,414.748 562.504,414.414 563.5,414.5 Z"/></g>
<g><path style="opacity:1" fill="#8d35b9" d="M 555.5,427.5 C 555.263,431.69 554.429,435.69 553,439.5C 552.833,477.669 552.333,515.669 551.5,553.5C 551.5,515.5 551.5,477.5 551.5,439.5C 552.256,435.233 553.589,431.233 555.5,427.5 Z"/></g>
<g><path style="opacity:1" fill="#efe3f6" d="M 668.5,441.5 C 669.117,441.611 669.617,441.944 670,442.5C 670.5,479.165 670.667,515.832 670.5,552.5C 669.821,515.627 669.154,478.627 668.5,441.5 Z"/></g>
<g><path style="opacity:1" fill="#8c34b8" d="M 785.5,442.5 C 787.495,490.488 788.162,538.822 787.5,587.5C 786.833,587.5 786.5,587.167 786.5,586.5C 786.828,538.428 786.495,490.428 785.5,442.5 Z"/></g>
<g><path style="opacity:1" fill="#9442bd" d="M 463.5,440.5 C 453.5,441.167 443.5,441.833 433.5,442.5C 432.542,442.953 431.708,443.619 431,444.5C 430.5,466.497 430.333,488.497 430.5,510.5C 429.337,488.337 429.17,466.004 430,443.5C 430.692,442.975 431.192,442.308 431.5,441.5C 442.146,440.501 452.813,440.168 463.5,440.5 Z"/></g>
<g><path style="opacity:1" fill="#c497da" d="M 433.5,442.5 C 443.167,442.5 452.833,442.5 462.5,442.5C 452.833,443.167 443.167,443.833 433.5,444.5C 432.503,466.327 432.169,488.327 432.5,510.5C 432.167,510.5 431.833,510.5 431.5,510.5C 431.167,510.5 430.833,510.5 430.5,510.5C 430.333,488.497 430.5,466.497 431,444.5C 431.708,443.619 432.542,442.953 433.5,442.5 Z"/></g>
<g><path style="opacity:1" fill="#cba1de" d="M 663.5,426.5 C 664.859,428.827 666.359,431.16 668,433.5C 668.497,436.146 668.664,438.813 668.5,441.5C 669.154,478.627 669.821,515.627 670.5,552.5C 670.5,552.833 670.5,553.167 670.5,553.5C 669.833,553.5 669.167,553.5 668.5,553.5C 668.167,553.5 667.833,553.5 667.5,553.5C 667.833,516.161 667.5,478.827 666.5,441.5C 665.58,436.466 664.58,431.466 663.5,426.5 Z"/></g>
<g><path style="opacity:1" fill="#e0c8ec" d="M 783.5,444.5 C 783.835,492.009 784.835,539.342 786.5,586.5C 786.5,587.167 786.833,587.5 787.5,587.5C 787.5,587.833 787.5,588.167 787.5,588.5C 787.5,589.167 787.833,589.5 788.5,589.5C 810.994,590.497 833.661,590.831 856.5,590.5C 856.5,590.833 856.5,591.167 856.5,591.5C 832.831,591.667 809.164,591.5 785.5,591C 785,590.5 784.5,590 784,589.5C 783.5,541.168 783.333,492.834 783.5,444.5 Z"/></g>
<g><path style="opacity:1" fill="#b276cf" d="M 783.5,442.5 C 784.167,442.5 784.833,442.5 785.5,442.5C 786.495,490.428 786.828,538.428 786.5,586.5C 784.835,539.342 783.835,492.009 783.5,444.5C 783.5,444.167 783.5,443.833 783.5,443.5C 783.5,443.167 783.5,442.833 783.5,442.5 Z"/></g>
<g><path style="opacity:1" fill="#e0c8ec" d="M 497.5,429.5 C 497.5,443.833 497.5,458.167 497.5,472.5C 487.068,473.145 476.735,473.811 466.5,474.5C 465.833,474.5 465.5,474.833 465.5,475.5C 464.463,476.93 463.796,478.597 463.5,480.5C 463.673,490.884 463.339,501.384 462.5,512C 452.833,512.667 443.167,512.667 433.5,512C 432.944,511.617 432.611,511.117 432.5,510.5C 432.169,488.327 432.503,466.327 433.5,444.5C 433.333,466.503 433.5,488.503 434,510.5C 443.083,511.485 452.249,511.818 461.5,511.5C 461.752,502.14 461.419,492.807 460.5,483.5C 460.423,479.044 461.757,475.21 464.5,472C 475.161,471.5 485.828,471.333 496.5,471.5C 496.171,457.323 496.504,443.323 497.5,429.5 Z"/></g>
<g><path style="opacity:1" fill="#ad6fcc" d="M 497.5,472.5 C 497.833,472.5 498.167,472.5 498.5,472.5C 498.389,473.117 498.056,473.617 497.5,474C 487.172,474.5 476.839,474.666 466.5,474.5C 476.735,473.811 487.068,473.145 497.5,472.5 Z"/></g>
<g><path style="opacity:1" fill="#b881d3" d="M 719.5,434.5 C 720.167,446.833 720.833,459.167 721.5,471.5C 731.5,472.167 741.5,472.833 751.5,473.5C 751.5,473.833 751.5,474.167 751.5,474.5C 741.494,474.666 731.494,474.5 721.5,474C 720.956,473.283 720.289,472.783 719.5,472.5C 719.5,459.833 719.5,447.167 719.5,434.5 Z"/></g>
<g><path style="opacity:1" fill="#ccc0c6" d="M 1051.5,439.5 C 1053.3,445.084 1054.13,451.084 1054,457.5C 1054.33,456.833 1054.67,456.167 1055,455.5C 1055.83,466.848 1055.67,478.181 1054.5,489.5C 1054.13,495.229 1053.13,500.563 1051.5,505.5C 1051.5,502.833 1051.5,500.167 1051.5,497.5C 1051.5,478.167 1051.5,458.833 1051.5,439.5 Z"/></g>
<g><path style="opacity:1" fill="#9849bf" d="M 500.5,427.5 C 500.667,442.837 500.5,458.17 500,473.5C 499.5,474 499,474.5 498.5,475C 487.505,475.5 476.505,475.667 465.5,475.5C 465.5,474.833 465.833,474.5 466.5,474.5C 476.839,474.666 487.172,474.5 497.5,474C 498.056,473.617 498.389,473.117 498.5,472.5C 498.333,458.163 498.5,443.829 499,429.5C 499.278,428.584 499.778,427.918 500.5,427.5 Z"/></g>
<g><path style="opacity:1" fill="#c89edd" d="M 751.5,474.5 C 751.5,474.167 751.5,473.833 751.5,473.5C 753.017,473.511 754.184,474.177 755,475.5C 755.831,512.669 755.664,549.669 754.5,586.5C 754.832,549.663 754.498,512.996 753.5,476.5C 753.167,475.5 752.5,474.833 751.5,474.5 Z"/></g>
<g><path style="opacity:1" fill="#b67ed2" d="M 463.5,480.5 C 463.325,482.621 463.659,484.621 464.5,486.5C 464.666,495.173 464.5,503.84 464,512.5C 463.5,513 463,513.5 462.5,514C 453.173,514.5 443.839,514.666 434.5,514.5C 432.468,513.952 431.468,512.619 431.5,510.5C 431.833,510.5 432.167,510.5 432.5,510.5C 432.611,511.117 432.944,511.617 433.5,512C 443.167,512.667 452.833,512.667 462.5,512C 463.339,501.384 463.673,490.884 463.5,480.5 Z"/></g>
<g><path style="opacity:1" fill="#d098e1" d="M 1051.5,497.5 C 1051.5,500.167 1051.5,502.833 1051.5,505.5C 1052.04,508.698 1051.37,511.365 1049.5,513.5C 1049.78,507.979 1050.45,502.646 1051.5,497.5 Z"/></g>
<g><path style="opacity:1" fill="#8f3aba" d="M 464.5,486.5 C 465.657,495.324 465.824,504.324 465,513.5C 464.5,514 464,514.5 463.5,515C 453.658,515.825 443.991,515.658 434.5,514.5C 443.839,514.666 453.173,514.5 462.5,514C 463,513.5 463.5,513 464,512.5C 464.5,503.84 464.666,495.173 464.5,486.5 Z"/></g>
<g><path style="opacity:1" fill="#b47bd1" d="M 409.5,441.5 C 411.171,467.72 412.171,494.22 412.5,521C 447.165,521.5 481.832,521.667 516.5,521.5C 516.5,521.833 516.5,522.167 516.5,522.5C 481.5,522.5 446.5,522.5 411.5,522.5C 410.91,521.234 410.41,519.901 410,518.5C 409.5,492.835 409.333,467.169 409.5,441.5 Z"/></g>
<g><path style="opacity:1" fill="#e4ceee" d="M 521.5,434.5 C 522.148,464.323 521.481,493.99 519.5,523.5C 483.838,524.667 448.171,524.833 412.5,524C 411.944,523.617 411.611,523.117 411.5,522.5C 446.5,522.5 481.5,522.5 516.5,522.5C 518.017,522.489 519.184,521.823 520,520.5C 520.5,492.502 520.667,464.502 520.5,436.5C 520.328,435.508 520.662,434.842 521.5,434.5 Z"/></g>
<g><path style="opacity:1" fill="#c99fde" d="M 701.5,522.5 C 701.5,522.167 701.5,521.833 701.5,521.5C 715.344,521.171 729.01,521.504 742.5,522.5C 743.818,532.931 743.818,543.265 742.5,553.5C 742.827,543.652 742.494,533.986 741.5,524.5C 728.265,523.816 714.932,523.15 701.5,522.5 Z"/></g>
<g><path style="opacity:1" fill="#a15ac3" d="M 795.5,524.5 C 795.833,524.5 796.167,524.5 796.5,524.5C 796.5,534.167 796.5,543.833 796.5,553.5C 796.611,554.117 796.944,554.617 797.5,555C 810.829,555.5 824.163,555.667 837.5,555.5C 824.006,556.661 810.34,556.827 796.5,556C 795.874,555.25 795.374,554.416 795,553.5C 794.194,543.756 794.361,534.089 795.5,524.5 Z"/></g>
<g><path style="opacity:1" fill="#d5b6e5" d="M 796.5,524.5 C 796.833,524.5 797.167,524.5 797.5,524.5C 797.173,534.015 797.506,543.348 798.5,552.5C 798.5,552.833 798.5,553.167 798.5,553.5C 797.833,553.5 797.167,553.5 796.5,553.5C 796.5,543.833 796.5,534.167 796.5,524.5 Z"/></g>
<g><path style="opacity:1" fill="#d5b5db" d="M 1047.5,529.5 C 1047.82,533.555 1047.49,537.555 1046.5,541.5C 1045.94,543.332 1044.94,544.665 1043.5,545.5C 1044.63,540.003 1045.96,534.67 1047.5,529.5 Z"/></g>
<g><path style="opacity:1" fill="#e4cfef" d="M 741.5,524.5 C 742.494,533.986 742.827,543.652 742.5,553.5C 718.5,554.833 694.5,554.833 670.5,553.5C 670.5,553.167 670.5,552.833 670.5,552.5C 694.167,552.5 717.833,552.5 741.5,552.5C 741.5,543.167 741.5,533.833 741.5,524.5 Z"/></g>
<g><path style="opacity:1" fill="#c89edd" d="M 373.5,432.5 C 375.461,434.963 377.628,437.297 380,439.5C 380.167,477.336 380.667,515.002 381.5,552.5C 436.998,553.499 492.664,553.832 548.5,553.5C 493.002,554.499 437.336,554.832 381.5,554.5C 380.833,554.167 380.167,553.833 379.5,553.5C 378.667,515.669 378.167,477.669 378,439.5C 375.833,437.333 373.667,435.167 371.5,433C 369.167,432.333 366.833,432.333 364.5,433C 363.619,433.708 362.953,434.542 362.5,435.5C 360.167,435.833 358.833,437.167 358.5,439.5C 357.833,439.833 357.167,440.167 356.5,440.5C 356.5,440.167 356.5,439.833 356.5,439.5C 358.121,436.433 360.121,433.599 362.5,431C 365.833,430.333 369.167,430.333 372.5,431C 373.056,431.383 373.389,431.883 373.5,432.5 Z"/></g>
<g><path style="opacity:1" fill="#b57bd1" d="M 551.5,439.5 C 551.5,477.5 551.5,515.5 551.5,553.5C 550.5,553.833 549.833,554.5 549.5,555.5C 493.331,555.832 437.331,555.499 381.5,554.5C 437.336,554.832 493.002,554.499 548.5,553.5C 549.333,516.336 549.833,479.002 550,441.5C 550.278,440.584 550.778,439.918 551.5,439.5 Z"/></g>
<g><path style="opacity:1" fill="#b073ce" d="M 742.5,522.5 C 743.5,522.5 744.5,522.5 745.5,522.5C 745.666,532.839 745.5,543.172 745,553.5C 744.292,554.381 743.458,555.047 742.5,555.5C 718.164,555.667 693.831,555.5 669.5,555C 668.944,554.617 668.611,554.117 668.5,553.5C 669.167,553.5 669.833,553.5 670.5,553.5C 694.5,554.833 718.5,554.833 742.5,553.5C 743.818,543.265 743.818,532.931 742.5,522.5 Z"/></g>
<g><path style="opacity:1" fill="#994ac0" d="M 379.5,553.5 C 380.167,553.833 380.833,554.167 381.5,554.5C 437.331,555.499 493.331,555.832 549.5,555.5C 493.002,556.499 436.336,556.832 379.5,556.5C 379.5,555.5 379.5,554.5 379.5,553.5 Z"/></g>
<g><path style="opacity:1" fill="#994ac0" d="M 667.5,553.5 C 667.833,553.5 668.167,553.5 668.5,553.5C 668.611,554.117 668.944,554.617 669.5,555C 693.831,555.5 718.164,555.667 742.5,555.5C 718.003,556.663 693.337,556.83 668.5,556C 667.748,555.329 667.414,554.496 667.5,553.5 Z"/></g>
<g><path style="opacity:1" fill="#af72ce" d="M 461.5,564.5 C 451.652,564.173 441.986,564.506 432.5,565.5C 432.167,565.5 431.833,565.5 431.5,565.5C 431.577,564.25 432.244,563.417 433.5,563C 438.167,562.833 442.833,562.667 447.5,562.5C 452.551,562.507 457.217,563.173 461.5,564.5 Z"/></g>
<g><path style="opacity:1" fill="#e0c8ec" d="M 461.5,564.5 C 461.5,564.833 461.5,565.167 461.5,565.5C 452.167,565.5 442.833,565.5 433.5,565.5C 433.825,572.687 433.491,579.687 432.5,586.5C 432.5,579.5 432.5,572.5 432.5,565.5C 441.986,564.506 451.652,564.173 461.5,564.5 Z"/></g>
<g><path style="opacity:1" fill="#c598db" d="M 751.5,589.5 C 660.5,590.167 569.5,590.833 478.5,591.5C 477.507,600.318 477.173,609.318 477.5,618.5C 476.172,609.098 476.172,599.598 477.5,590C 568.833,589.5 660.166,589.333 751.5,589.5 Z"/></g>
<g><path style="opacity:1" fill="#e2cbec" d="M 721.5,471.5 C 732.505,471.333 743.505,471.5 754.5,472C 755,472.5 755.5,473 756,473.5C 756.833,512.171 756.667,550.838 755.5,589.5C 754.692,589.808 754.025,590.308 753.5,591C 661.834,591.5 570.167,591.667 478.5,591.5C 569.5,590.833 660.5,590.167 751.5,589.5C 753.5,589.5 754.5,588.5 754.5,586.5C 755.664,549.669 755.831,512.669 755,475.5C 754.184,474.177 753.017,473.511 751.5,473.5C 741.5,472.833 731.5,472.167 721.5,471.5 Z"/></g>
<g><path style="opacity:1" fill="#c89edd" d="M 461.5,565.5 C 461.5,565.167 461.5,564.833 461.5,564.5C 462.609,564.557 463.609,564.89 464.5,565.5C 464.287,583.675 463.62,601.675 462.5,619.5C 462.83,601.326 462.497,583.326 461.5,565.5 Z"/></g>
<g><path style="opacity:1" fill="#dcb0e5" d="M 1031.5,593.5 C 1031.7,597.606 1030.36,600.939 1027.5,603.5C 1028.27,599.851 1029.6,596.518 1031.5,593.5 Z"/></g>
<g><path style="opacity:1" fill="#e5d2ef" d="M 888.5,432.5 C 889.499,494.664 889.832,556.998 889.5,619.5C 751.999,619.833 614.666,619.5 477.5,618.5C 477.173,609.318 477.507,600.318 478.5,591.5C 478.5,600.5 478.5,609.5 478.5,618.5C 615.167,618.5 751.833,618.5 888.5,618.5C 888.5,556.5 888.5,494.5 888.5,432.5 Z"/></g>
<g><path style="opacity:1" fill="#ac6ccc" d="M 326.5,437.5 C 326.333,498.168 326.5,558.834 327,619.5C 372.264,620.832 417.431,620.832 462.5,619.5C 463.62,601.675 464.287,583.675 464.5,565.5C 464.993,579.029 465.327,592.695 465.5,606.5C 465.333,610.833 465.167,615.167 465,619.5C 464.5,620 464,620.5 463.5,621C 417.833,621.667 372.167,621.667 326.5,621C 325.956,620.283 325.289,619.783 324.5,619.5C 324.333,559.166 324.5,498.832 325,438.5C 325.383,437.944 325.883,437.611 326.5,437.5 Z"/></g>
<g><path style="opacity:1" fill="#e5d2ef" d="M 461.5,565.5 C 462.497,583.326 462.83,601.326 462.5,619.5C 417.664,619.832 372.997,619.499 328.5,618.5C 372.833,618.5 417.167,618.5 461.5,618.5C 462.045,609.3 461.379,600.3 459.5,591.5C 461.373,583.035 462.04,574.368 461.5,565.5 Z"/></g>
<g><path style="opacity:1" fill="#bd89d6" d="M 431.5,565.5 C 431.833,565.5 432.167,565.5 432.5,565.5C 432.5,572.5 432.5,579.5 432.5,586.5C 431.512,587.795 430.512,589.128 429.5,590.5C 405.831,590.667 382.164,590.5 358.5,590C 357.177,589.184 356.511,588.017 356.5,586.5C 356.833,586.5 357.167,586.5 357.5,586.5C 357.611,587.117 357.944,587.617 358.5,588C 382.337,588.83 406.004,588.663 429.5,587.5C 430.167,580.167 430.833,572.833 431.5,565.5 Z"/></g>
<g><path style="opacity:1" fill="#b276cf" d="M 753.5,476.5 C 754.498,512.996 754.832,549.663 754.5,586.5C 754.5,588.5 753.5,589.5 751.5,589.5C 660.166,589.333 568.833,589.5 477.5,590C 476.172,599.598 476.172,609.098 477.5,618.5C 614.666,619.5 751.999,619.833 889.5,619.5C 889.833,619.5 890.167,619.5 890.5,619.5C 890.833,619.5 891.167,619.5 891.5,619.5C 891.167,620.5 890.5,621.167 889.5,621.5C 752.166,621.667 614.833,621.5 477.5,621C 476.956,620.283 476.289,619.783 475.5,619.5C 474.342,610.009 474.175,600.342 475,590.5C 475.5,590 476,589.5 476.5,589C 568.5,588.667 660.5,588.333 752.5,588C 753.496,550.906 753.83,513.739 753.5,476.5 Z"/></g>
<g><path style="opacity:1" fill="#903aba" d="M 475.5,619.5 C 476.289,619.783 476.956,620.283 477.5,621C 614.833,621.5 752.166,621.667 889.5,621.5C 752.001,622.666 614.334,622.833 476.5,622C 475.748,621.329 475.414,620.496 475.5,619.5 Z"/></g>
<g><path style="opacity:1" fill="#dab6db" d="M 203.5,609.5 C 206.019,614.557 208.019,619.89 209.5,625.5C 208.265,625.279 207.265,624.612 206.5,623.5C 204.546,619.02 203.546,614.353 203.5,609.5 Z"/></g>
<g><path style="opacity:1" fill="#cebfd8" d="M 1023.5,617.5 C 1022.82,622.208 1021.82,626.875 1020.5,631.5C 1018.42,632.988 1017.42,634.988 1017.5,637.5C 1018.83,637.5 1020.17,637.5 1021.5,637.5C 1021.5,638.833 1021.5,640.167 1021.5,641.5C 1019.51,641.672 1017.84,641.005 1016.5,639.5C 1015.94,641.332 1014.94,642.665 1013.5,643.5C 1014.02,640.11 1014.86,636.777 1016,633.5C 1018.21,627.927 1020.71,622.594 1023.5,617.5 Z"/></g>
<g><path style="opacity:1" fill="#d9b3e4" d="M 1013.5,643.5 C 1013.09,648.981 1011.09,653.648 1007.5,657.5C 1008.55,652.346 1010.55,647.679 1013.5,643.5 Z"/></g>
<g><path style="opacity:1" fill="#deb0e2" d="M 1007.5,657.5 C 1007.7,661.606 1006.36,664.939 1003.5,667.5C 1004.32,663.873 1005.65,660.54 1007.5,657.5 Z"/></g>
<g><path style="opacity:1" fill="#d9b5e4" d="M 997.5,681.5 C 997.126,685.629 996.126,689.629 994.5,693.5C 993.735,694.612 992.735,695.279 991.5,695.5C 992.599,690.428 994.599,685.761 997.5,681.5 Z"/></g>
<g><path style="opacity:1" fill="#d8b4dd" d="M 991.5,695.5 C 990.989,700.533 989.323,705.199 986.5,709.5C 985.735,710.612 984.735,711.279 983.5,711.5C 985.659,705.849 988.326,700.516 991.5,695.5 Z"/></g>
<g><path style="opacity:1" fill="#d5afdc" d="M 983.5,711.5 C 983.876,715.409 982.543,718.409 979.5,720.5C 980.452,717.303 981.785,714.303 983.5,711.5 Z"/></g>
<g><path style="opacity:1" fill="#ba96d2" d="M 249.5,721.5 C 251.176,722.183 251.843,723.517 251.5,725.5C 249.824,724.817 249.157,723.483 249.5,721.5 Z"/></g>
<g><path style="opacity:1" fill="#d9ade0" d="M 975.5,729.5 C 976.042,733.259 974.708,735.926 971.5,737.5C 972.326,734.515 973.659,731.849 975.5,729.5 Z"/></g>
<g><path style="opacity:1" fill="#d3a9da" d="M 971.5,737.5 C 972.042,741.259 970.708,743.926 967.5,745.5C 968.853,742.795 970.186,740.128 971.5,737.5 Z"/></g>
<g><path style="opacity:1" fill="#d1b6d4" d="M 261.5,747.5 C 262.376,747.369 263.043,747.702 263.5,748.5C 265.253,752.1 266.587,755.766 267.5,759.5C 266.265,759.279 265.265,758.612 264.5,757.5C 262.483,754.45 261.483,751.117 261.5,747.5 Z"/></g>
<g><path style="opacity:1" fill="#d3b4da" d="M 967.5,746.5 C 966.919,750.247 965.919,753.914 964.5,757.5C 963.083,759.261 961.417,760.594 959.5,761.5C 961.93,756.302 964.597,751.302 967.5,746.5 Z"/></g>
<g><path style="opacity:1" fill="#a059bb" d="M 271.5,765.5 C 272.467,766.806 273.801,767.473 275.5,767.5C 275.5,769.5 275.5,771.5 275.5,773.5C 273.153,771.473 271.819,768.806 271.5,765.5 Z"/></g>
<g><path style="opacity:1" fill="#d5b9da" d="M 955.5,770.5 C 953.293,778.356 950.627,786.023 947.5,793.5C 946.167,793.5 944.833,793.5 943.5,793.5C 947.138,785.54 951.138,777.873 955.5,770.5 Z"/></g>
<g><path style="opacity:1" fill="#d8a5de" d="M 287.5,797.5 C 289.796,798.733 291.13,800.733 291.5,803.5C 288.687,802.554 287.354,800.554 287.5,797.5 Z"/></g>
<g><path style="opacity:1" fill="#d2aeda" d="M 939.5,801.5 C 939.799,803.604 939.466,805.604 938.5,807.5C 936.603,810.686 934.269,813.353 931.5,815.5C 933.25,810.181 935.917,805.514 939.5,801.5 Z"/></g>
<g><path style="opacity:1" fill="#d7b0e6" d="M 931.5,816.5 C 931.876,819.923 930.543,822.256 927.5,823.5C 928.079,820.669 929.412,818.336 931.5,816.5 Z"/></g>
<g><path style="opacity:1" fill="#d1c1d0" d="M 927.5,823.5 C 926.767,828.31 925.434,832.977 923.5,837.5C 923.86,839.608 924.527,841.608 925.5,843.5C 924.21,845.792 922.543,847.792 920.5,849.5C 919.239,846.18 917.572,845.846 915.5,848.5C 917.345,850.536 917.845,852.87 917,855.5C 916.029,854.802 914.863,854.802 913.5,855.5C 911.464,856.885 909.464,858.218 907.5,859.5C 913.978,847.406 920.644,835.406 927.5,823.5 Z"/></g>
<g><path style="opacity:1" fill="#d8b0e2" d="M 313.5,845.5 C 315.555,847.896 317.221,850.562 318.5,853.5C 314.47,852.494 312.803,849.827 313.5,845.5 Z"/></g>
<g><path style="opacity:1" fill="#ddb6db" d="M 907.5,859.5 C 907.799,861.604 907.466,863.604 906.5,865.5C 904.603,868.686 902.269,871.353 899.5,873.5C 901.775,868.571 904.441,863.904 907.5,859.5 Z"/></g>
<g><path style="opacity:1" fill="#deb3e7" d="M 879.5,908.5 C 879.098,914.316 876.432,918.65 871.5,921.5C 873.919,916.991 876.586,912.658 879.5,908.5 Z"/></g>
<g><path style="opacity:1" fill="#dab4e8" d="M 867.5,928.5 C 867.876,931.923 866.543,934.256 863.5,935.5C 864.079,932.669 865.412,930.336 867.5,928.5 Z"/></g>
<g><path style="opacity:1" fill="#cea0d8" d="M 387.5,971.5 C 389.326,973.147 390.66,975.147 391.5,977.5C 388.687,976.554 387.354,974.554 387.5,971.5 Z"/></g>
<g><path style="opacity:1" fill="#d1afce" d="M 391.5,977.5 C 394.225,980.263 396.225,983.597 397.5,987.5C 395.718,986.28 393.718,985.614 391.5,985.5C 391.5,982.833 391.5,980.167 391.5,977.5 Z"/></g>
<g><path style="opacity:1" fill="#d3aed7" d="M 831.5,987.5 C 830.715,990.858 829.715,994.191 828.5,997.5C 827.158,999.005 825.492,999.672 823.5,999.5C 825.782,995.223 828.449,991.223 831.5,987.5 Z"/></g>
<g><path style="opacity:1" fill="#d1add6" d="M 823.5,1000.5 C 821.7,1004.66 820.367,1008.99 819.5,1013.5C 818.167,1013.5 816.833,1013.5 815.5,1013.5C 817.381,1008.75 820.048,1004.42 823.5,1000.5 Z"/></g>
<g><path style="opacity:1" fill="#d9b2db" d="M 815.5,1013.5 C 815.097,1020.76 811.764,1026.09 805.5,1029.5C 808.445,1023.9 811.779,1018.56 815.5,1013.5 Z"/></g>
<g><path style="opacity:1" fill="#d2a0dd" d="M 805.5,1029.5 C 804.833,1032.17 804.167,1034.83 803.5,1037.5C 802.167,1037.5 800.833,1037.5 799.5,1037.5C 801.147,1034.53 803.147,1031.86 805.5,1029.5 Z"/></g>
<g><path style="opacity:1" fill="#ddb3e2" d="M 791.5,1051.5 C 790.81,1056.9 788.144,1060.9 783.5,1063.5C 785.673,1059.15 788.34,1055.15 791.5,1051.5 Z"/></g>
<g><path style="opacity:1" fill="#cbb1d4" d="M 451.5,1073.5 C 454.449,1075.37 456.449,1078.04 457.5,1081.5C 453.975,1079.98 451.975,1077.31 451.5,1073.5 Z"/></g>
<g><path style="opacity:1" fill="#7201a8" d="M 565.5,1237.5 C 563.583,1236.59 561.917,1235.26 560.5,1233.5C 559.6,1230.28 557.933,1227.62 555.5,1225.5C 554.449,1222.04 552.449,1219.37 549.5,1217.5C 531.509,1190.84 513.509,1164.17 495.5,1137.5C 493.853,1134.53 491.853,1131.86 489.5,1129.5C 488.449,1126.04 486.449,1123.37 483.5,1121.5C 475.332,1107.83 466.665,1094.49 457.5,1081.5C 456.449,1078.04 454.449,1075.37 451.5,1073.5C 451.649,1072.45 451.483,1071.45 451,1070.5C 434.215,1045.55 418.048,1020.22 402.5,994.5C 401.675,993.614 400.675,993.281 399.5,993.5C 399.946,990.99 399.28,988.99 397.5,987.5C 396.225,983.597 394.225,980.263 391.5,977.5C 390.66,975.147 389.326,973.147 387.5,971.5C 372.155,945.472 356.821,919.472 341.5,893.5C 341.376,889.611 342.709,886.278 345.5,883.5C 344.527,881.608 343.86,879.608 343.5,877.5C 344.811,873.593 345.478,869.593 345.5,865.5C 352.833,865.5 360.167,865.5 367.5,865.5C 367.5,876.167 367.5,886.833 367.5,897.5C 372.833,897.5 378.167,897.5 383.5,897.5C 383.5,902.833 383.5,908.167 383.5,913.5C 382.167,913.5 380.833,913.5 379.5,913.5C 379.5,918.833 379.5,924.167 379.5,929.5C 386.167,929.5 392.833,929.5 399.5,929.5C 399.5,940.167 399.5,950.833 399.5,961.5C 404.833,961.5 410.167,961.5 415.5,961.5C 415.5,966.833 415.5,972.167 415.5,977.5C 420.833,977.5 426.167,977.5 431.5,977.5C 431.5,985.5 431.5,993.5 431.5,1001.5C 434.167,1001.5 436.833,1001.5 439.5,1001.5C 439.5,1004.17 439.5,1006.83 439.5,1009.5C 442.167,1009.5 444.833,1009.5 447.5,1009.5C 448.075,1020.96 447.409,1032.29 445.5,1043.5C 446.754,1045.33 447.421,1047.33 447.5,1049.5C 450.167,1049.5 452.833,1049.5 455.5,1049.5C 455.5,1052.17 455.5,1054.83 455.5,1057.5C 457.666,1057.58 459.666,1058.25 461.5,1059.5C 464.642,1057.88 467.975,1057.21 471.5,1057.5C 471.187,1060.25 471.52,1062.91 472.5,1065.5C 474.833,1067.83 477.167,1070.17 479.5,1072.5C 484.792,1073.49 490.125,1073.83 495.5,1073.5C 495.5,1078.83 495.5,1084.17 495.5,1089.5C 500.833,1089.5 506.167,1089.5 511.5,1089.5C 511.5,1094.83 511.5,1100.17 511.5,1105.5C 516.833,1105.5 522.167,1105.5 527.5,1105.5C 527.5,1116.17 527.5,1126.83 527.5,1137.5C 532.833,1137.5 538.167,1137.5 543.5,1137.5C 543.5,1148.17 543.5,1158.83 543.5,1169.5C 548.833,1169.5 554.167,1169.5 559.5,1169.5C 559.5,1174.83 559.5,1180.17 559.5,1185.5C 560.833,1185.5 562.167,1185.5 563.5,1185.5C 563.5,1190.83 563.5,1196.17 563.5,1201.5C 564.833,1201.5 566.167,1201.5 567.5,1201.5C 567.815,1208.3 567.148,1214.97 565.5,1221.5C 568.144,1221.16 570.477,1221.83 572.5,1223.5C 574.714,1221.08 575.714,1221.74 575.5,1225.5C 578.833,1225.5 582.167,1225.5 585.5,1225.5C 585.5,1228.17 585.5,1230.83 585.5,1233.5C 578.559,1232.25 572.892,1234.25 568.5,1239.5C 567.735,1238.39 566.735,1237.72 565.5,1237.5 Z"/></g>
<g><path style="opacity:1" fill="#d5b9d7" d="M 757.5,1103.5 C 756.424,1106.73 755.757,1110.07 755.5,1113.5C 754.167,1113.5 752.833,1113.5 751.5,1113.5C 751.025,1117.31 749.025,1119.98 745.5,1121.5C 748.957,1115.11 752.957,1109.11 757.5,1103.5 Z"/></g>
<g><path style="opacity:1" fill="#dab4da" d="M 483.5,1121.5 C 486.449,1123.37 488.449,1126.04 489.5,1129.5C 485.975,1127.98 483.975,1125.31 483.5,1121.5 Z"/></g>
<g><path style="opacity:1" fill="#d4aadc" d="M 489.5,1129.5 C 491.853,1131.86 493.853,1134.53 495.5,1137.5C 494.167,1137.5 492.833,1137.5 491.5,1137.5C 490.833,1134.83 490.167,1132.17 489.5,1129.5 Z"/></g>
<g><path style="opacity:1" fill="#d9b7dc" d="M 729.5,1145.5 C 727.477,1149.24 725.81,1153.24 724.5,1157.5C 723.158,1159 721.492,1159.67 719.5,1159.5C 721.851,1154.13 725.185,1149.46 729.5,1145.5 Z"/></g>
<g><path style="opacity:1" fill="#dab5e0" d="M 717.5,1162.5 C 717.785,1164.29 717.452,1165.95 716.5,1167.5C 713.353,1170.47 710.686,1173.8 708.5,1177.5C 707.534,1179.4 707.201,1181.4 707.5,1183.5C 705.282,1183.61 703.282,1184.28 701.5,1185.5C 706.59,1177.65 711.923,1169.98 717.5,1162.5 Z"/></g>
<g><path style="opacity:1" fill="#d6b3da" d="M 693.5,1197.5 C 690.984,1201.87 688.984,1206.54 687.5,1211.5C 686.167,1211.5 684.833,1211.5 683.5,1211.5C 685.877,1206.05 689.21,1201.39 693.5,1197.5 Z"/></g>
<g><path style="opacity:1" fill="#d2abdb" d="M 549.5,1217.5 C 552.449,1219.37 554.449,1222.04 555.5,1225.5C 551.975,1223.98 549.975,1221.31 549.5,1217.5 Z"/></g>
<g><path style="opacity:1" fill="#d6bfdb" d="M 679.5,1217.5 C 678.661,1220.69 677.328,1223.69 675.5,1226.5C 676.478,1228.78 677.145,1231.11 677.5,1233.5C 674.833,1232.83 672.167,1232.17 669.5,1231.5C 671.877,1226.05 675.21,1221.39 679.5,1217.5 Z"/></g>
<g><path style="opacity:1" fill="#daaee3" d="M 645.5,1265.5 C 645.025,1269.31 643.025,1271.98 639.5,1273.5C 641.037,1270.4 643.037,1267.73 645.5,1265.5 Z"/></g>
<g><path style="opacity:1" fill="#dcaee0" d="M 639.5,1273.5 C 638.833,1278.17 636.167,1280.83 631.5,1281.5C 633.833,1278.5 636.5,1275.83 639.5,1273.5 Z"/></g>
<g><path style="opacity:1" fill="#dbbbdf" d="M 591.5,1277.5 C 594.5,1277.17 595.833,1278.5 595.5,1281.5C 607.491,1288.17 619.491,1288.17 631.5,1281.5C 630.594,1283.42 629.261,1285.08 627.5,1286.5C 616.724,1288.02 606.057,1287.52 595.5,1285C 594.031,1282.56 592.698,1280.06 591.5,1277.5 Z"/></g>
</svg>
