<?xml version="1.0" encoding="UTF-8"?>
<!DOCTYPE svg PUBLIC "-//W3C//DTD SVG 1.1//EN" "http://www.w3.org/Graphics/SVG/1.1/DTD/svg11.dtd">
<svg xmlns="http://www.w3.org/2000/svg" version="1.1" width="1298px" height="1344px" style="shape-rendering:geometricPrecision; text-rendering:geometricPrecision; image-rendering:optimizeQuality; fill-rule:evenodd; clip-rule:evenodd" xmlns:xlink="http://www.w3.org/1999/xlink">
<g><path style="opacity:0.989" fill="#cbcaca" d="M 587.5,10.5 C 739.499,5.40402 866.666,58.404 969,169.5C 1052.83,268.653 1090.49,383.32 1082,513.5C 1075.69,556.734 1064.69,598.734 1049,639.5C 1027.64,695.56 1002.97,750.226 975,803.5C 928.572,891.037 878.572,976.37 825,1059.5C 773.897,1137.93 721.231,1215.26 667,1291.5C 647.976,1315.62 623.476,1323.79 593.5,1316C 581.663,1311.66 571.83,1304.49 564,1294.5C 461.447,1152.54 366.78,1005.2 280,852.5C 242.923,785.608 210.256,716.608 182,645.5C 169.989,612.462 159.989,578.796 152,544.5C 139.653,473.643 144.653,403.977 167,335.5C 206.786,216.695 281.286,126.862 390.5,66C 452.318,33.6732 517.985,15.1732 587.5,10.5 Z"/></g>
<g><path style="opacity:1" fill="#c387d4" d="M 639.5,43.5 C 623.5,43.5 607.5,43.5 591.5,43.5C 599.138,42.1689 607.138,41.5022 615.5,41.5C 623.862,41.5022 631.862,42.1689 639.5,43.5 Z"/></g>
<g><path style="opacity:1" fill="#b767dc" d="M 583.5,43.5 C 577.634,44.2476 571.634,44.9143 565.5,45.5C 571.074,43.5467 577.074,42.88 583.5,43.5 Z"/></g>
<g><path style="opacity:1" fill="#7f41a0" d="M 647.5,43.5 C 652.619,42.8969 657.285,43.5636 661.5,45.5C 656.381,46.1031 651.715,45.4364 647.5,43.5 Z"/></g>
<g><path style="opacity:1" fill="#d0bfcc" d="M 553.5,45.5 C 553.082,46.2216 552.416,46.7216 551.5,47C 545.487,47.8381 539.487,48.6714 533.5,49.5C 533.721,48.2652 534.388,47.2652 535.5,46.5C 539.211,45.6557 542.877,44.6557 546.5,43.5C 548.777,44.4783 551.11,45.1449 553.5,45.5 Z"/></g>
<g><path style="opacity:1" fill="#c58ed7" d="M 671.5,45.5 C 674.553,45.1107 677.22,45.7773 679.5,47.5C 676.572,47.4349 673.905,46.7682 671.5,45.5 Z"/></g>
<g><path style="opacity:1" fill="#da8fee" d="M 695.5,49.5 C 698.698,48.9644 701.365,49.631 703.5,51.5C 700.572,51.4349 697.905,50.7682 695.5,49.5 Z"/></g>
<g><path style="opacity:1" fill="#d1a2e3" d="M 705.5,51.5 C 708.698,50.9644 711.365,51.631 713.5,53.5C 710.572,53.4349 707.905,52.7682 705.5,51.5 Z"/></g>
<g><path style="opacity:1" fill="#cdc1cb" d="M 719.5,53.5 C 726.167,53.5 732.833,53.5 739.5,53.5C 739.5,54.8333 739.5,56.1667 739.5,57.5C 737.517,57.1568 736.183,57.8235 735.5,59.5C 730.849,58.1784 726.183,56.8451 721.5,55.5C 720.287,55.2528 719.62,54.5862 719.5,53.5 Z"/></g>
<g><path style="opacity:1" fill="#6f00a5" d="M 903.5,151.5 C 905.205,153.192 907.205,154.525 909.5,155.5C 918.478,164.48 927.145,173.814 935.5,183.5C 932.23,181.073 929.064,178.406 926,175.5C 924.026,177.372 921.859,177.705 919.5,176.5C 922.342,175.996 923.675,174.329 923.5,171.5C 922.448,171.649 921.448,171.483 920.5,171C 920.833,170.667 921.167,170.333 921.5,170C 920.338,169.173 919.171,168.34 918,167.5C 916.27,168.649 914.604,168.649 913,167.5C 911.563,171.972 911.063,176.639 911.5,181.5C 914.167,181.5 916.833,181.5 919.5,181.5C 919.5,182.833 919.5,184.167 919.5,185.5C 922.167,185.5 924.833,185.5 927.5,185.5C 927.5,198.833 927.5,212.167 927.5,225.5C 932.167,225.5 936.833,225.5 941.5,225.5C 941.522,229.593 942.189,233.593 943.5,237.5C 942.833,240.167 942.167,242.833 941.5,245.5C 942.811,249.407 943.478,253.407 943.5,257.5C 954.167,257.5 964.833,257.5 975.5,257.5C 974.417,263.803 976.417,268.803 981.5,272.5C 979.604,273.466 977.604,273.799 975.5,273.5C 975.5,284.167 975.5,294.833 975.5,305.5C 980.833,305.5 986.167,305.5 991.5,305.5C 991.5,316.167 991.5,326.833 991.5,337.5C 996.167,337.5 1000.83,337.5 1005.5,337.5C 1005.52,341.593 1006.19,345.593 1007.5,349.5C 1005.34,361.436 1005,373.436 1006.5,385.5C 1007.49,380.208 1007.83,374.875 1007.5,369.5C 1012.17,369.5 1016.83,369.5 1021.5,369.5C 1021.4,382.911 1022.4,396.245 1024.5,409.5C 1025.48,406.914 1025.81,404.247 1025.5,401.5C 1027.5,401.5 1029.5,401.5 1031.5,401.5C 1031.5,428.167 1031.5,454.833 1031.5,481.5C 1028.83,481.5 1026.17,481.5 1023.5,481.5C 1023.72,492.24 1023.05,502.906 1021.5,513.5C 1024.83,513.5 1028.17,513.5 1031.5,513.5C 1031.5,518.833 1031.5,524.167 1031.5,529.5C 1029.5,529.5 1027.5,529.5 1025.5,529.5C 1025.5,526.833 1025.5,524.167 1025.5,521.5C 1024.17,521.5 1022.83,521.5 1021.5,521.5C 1021.5,524.167 1021.5,526.833 1021.5,529.5C 1016.17,529.5 1010.83,529.5 1005.5,529.5C 1005.5,540.167 1005.5,550.833 1005.5,561.5C 1012.17,561.5 1018.83,561.5 1025.5,561.5C 1025.7,566.974 1025.03,572.308 1023.5,577.5C 1018.17,577.5 1012.83,577.5 1007.5,577.5C 1007.81,574.753 1007.48,572.086 1006.5,569.5C 1005.28,580.202 1005.61,590.869 1007.5,601.5C 1007.16,605.558 1006.49,609.558 1005.5,613.5C 1005.97,618.627 1006.97,618.627 1008.5,613.5C 1009.83,616.833 1009.83,620.167 1008.5,623.5C 1003.74,625.37 998.739,626.037 993.5,625.5C 993.828,630.875 993.495,636.208 992.5,641.5C 991.833,630.833 991.167,620.167 990.5,609.5C 989.505,614.792 989.172,620.125 989.5,625.5C 984.833,625.5 980.167,625.5 975.5,625.5C 975.813,622.753 975.48,620.086 974.5,617.5C 973.171,630.89 973.504,644.223 975.5,657.5C 969.5,657.5 963.5,657.5 957.5,657.5C 957.284,668.24 957.951,678.906 959.5,689.5C 954.167,689.5 948.833,689.5 943.5,689.5C 943.5,705.5 943.5,721.5 943.5,737.5C 938.167,737.5 932.833,737.5 927.5,737.5C 927.716,748.24 927.049,758.906 925.5,769.5C 921.5,769.5 917.5,769.5 913.5,769.5C 913.5,766.833 913.5,764.167 913.5,761.5C 912.167,761.5 910.833,761.5 909.5,761.5C 909.509,769.568 910.176,777.568 911.5,785.5C 906.167,785.5 900.833,785.5 895.5,785.5C 895.478,789.593 894.811,793.593 893.5,797.5C 895.154,804.066 895.821,810.733 895.5,817.5C 889.5,817.5 883.5,817.5 877.5,817.5C 878.167,828.167 878.833,838.833 879.5,849.5C 874.167,849.5 868.833,849.5 863.5,849.5C 863.813,846.753 863.48,844.086 862.5,841.5C 861.502,849.472 861.169,857.472 861.5,865.5C 856.833,865.5 852.167,865.5 847.5,865.5C 846.833,870.833 846.167,876.167 845.5,881.5C 840.833,881.5 836.167,881.5 831.5,881.5C 831.5,897.5 831.5,913.5 831.5,929.5C 826.833,929.5 822.167,929.5 817.5,929.5C 817.136,918.913 816.136,918.913 814.5,929.5C 813.505,934.792 813.172,940.125 813.5,945.5C 808.833,945.5 804.167,945.5 799.5,945.5C 797.951,956.094 797.284,966.76 797.5,977.5C 792.833,977.5 788.167,977.5 783.5,977.5C 783.5,988.167 783.5,998.833 783.5,1009.5C 778.833,1009.5 774.167,1009.5 769.5,1009.5C 769.5,1006.83 769.5,1004.17 769.5,1001.5C 768.167,1001.5 766.833,1001.5 765.5,1001.5C 765.509,1009.57 766.176,1017.57 767.5,1025.5C 760.833,1025.5 754.167,1025.5 747.5,1025.5C 747.5,1041.5 747.5,1057.5 747.5,1073.5C 746.167,1073.5 744.833,1073.5 743.5,1073.5C 743.333,1084.17 743.5,1094.84 744,1105.5C 745.626,1105.85 747.459,1105.85 749.5,1105.5C 748.986,1107.51 748.82,1109.51 749,1111.5C 749.417,1110.24 750.25,1109.58 751.5,1109.5C 749.951,1113.72 747.951,1117.72 745.5,1121.5C 739.697,1129.08 734.364,1137.08 729.5,1145.5C 728.206,1146.29 727.039,1147.29 726,1148.5C 717.82,1160.87 709.653,1173.2 701.5,1185.5C 682.344,1211.81 663.677,1238.48 645.5,1265.5C 643.037,1267.73 641.037,1270.4 639.5,1273.5C 636.5,1275.83 633.833,1278.5 631.5,1281.5C 619.491,1288.17 607.491,1288.17 595.5,1281.5C 595.833,1278.5 594.5,1277.17 591.5,1277.5C 591.762,1276.02 591.429,1274.69 590.5,1273.5C 578.767,1257.45 567.1,1241.45 555.5,1225.5C 554.449,1222.04 552.449,1219.37 549.5,1217.5C 547.049,1213.72 545.049,1209.72 543.5,1205.5C 545.176,1204.82 545.843,1203.48 545.5,1201.5C 546.833,1201.5 548.167,1201.5 549.5,1201.5C 549.238,1202.98 549.571,1204.31 550.5,1205.5C 553.927,1208.26 556.593,1211.59 558.5,1215.5C 561.149,1218.04 563.816,1218.04 566.5,1215.5C 567.493,1210.88 567.827,1206.21 567.5,1201.5C 566.167,1201.5 564.833,1201.5 563.5,1201.5C 563.5,1196.17 563.5,1190.83 563.5,1185.5C 562.167,1185.5 560.833,1185.5 559.5,1185.5C 559.5,1180.17 559.5,1174.83 559.5,1169.5C 554.167,1169.5 548.833,1169.5 543.5,1169.5C 543.5,1158.83 543.5,1148.17 543.5,1137.5C 538.167,1137.5 532.833,1137.5 527.5,1137.5C 527.5,1126.83 527.5,1116.17 527.5,1105.5C 522.167,1105.5 516.833,1105.5 511.5,1105.5C 511.5,1100.17 511.5,1094.83 511.5,1089.5C 506.167,1089.5 500.833,1089.5 495.5,1089.5C 495.5,1084.17 495.5,1078.83 495.5,1073.5C 490.125,1073.83 484.792,1073.49 479.5,1072.5C 477.167,1070.17 474.833,1067.83 472.5,1065.5C 471.52,1062.91 471.187,1060.25 471.5,1057.5C 467.975,1057.21 464.642,1057.88 461.5,1059.5C 459.666,1058.25 457.666,1057.58 455.5,1057.5C 455.5,1054.83 455.5,1052.17 455.5,1049.5C 452.833,1049.5 450.167,1049.5 447.5,1049.5C 447.421,1047.33 446.754,1045.33 445.5,1043.5C 447.409,1032.29 448.075,1020.96 447.5,1009.5C 444.833,1009.5 442.167,1009.5 439.5,1009.5C 439.5,1006.83 439.5,1004.17 439.5,1001.5C 436.833,1001.5 434.167,1001.5 431.5,1001.5C 431.5,993.5 431.5,985.5 431.5,977.5C 426.167,977.5 420.833,977.5 415.5,977.5C 415.5,972.167 415.5,966.833 415.5,961.5C 410.167,961.5 404.833,961.5 399.5,961.5C 398.746,965.016 397.413,968.349 395.5,971.5C 396.754,973.334 397.421,975.334 397.5,977.5C 400.167,977.5 402.833,977.5 405.5,977.5C 405.5,978.833 405.5,980.167 405.5,981.5C 395.694,980.135 394.861,982.135 403,987.5C 403.147,991.088 403.98,994.421 405.5,997.5C 403.885,995.626 401.885,994.292 399.5,993.5C 398.403,987.306 395.736,981.973 391.5,977.5C 390.66,975.147 389.326,973.147 387.5,971.5C 363.478,932.792 340.478,893.459 318.5,853.5C 317.221,850.562 315.555,847.896 313.5,845.5C 301.354,821.207 288.687,797.207 275.5,773.5C 275.5,771.5 275.5,769.5 275.5,767.5C 273.801,767.473 272.467,766.806 271.5,765.5C 270.636,763.081 269.303,761.081 267.5,759.5C 266.587,755.766 265.253,752.1 263.5,748.5C 263.043,747.702 262.376,747.369 261.5,747.5C 261.978,744.722 260.978,742.722 258.5,741.5C 256.336,735.977 254.002,730.644 251.5,725.5C 251.5,724.833 251.5,724.167 251.5,723.5C 252.859,724.007 253.859,725.007 254.5,726.5C 258.105,726.203 260.771,724.537 262.5,721.5C 263.429,722.689 263.762,724.022 263.5,725.5C 264.833,725.5 266.167,725.5 267.5,725.5C 267.5,724.167 267.5,722.833 267.5,721.5C 268.833,721.5 270.167,721.5 271.5,721.5C 271.5,705.5 271.5,689.5 271.5,673.5C 266.167,673.5 260.833,673.5 255.5,673.5C 255.5,668.167 255.5,662.833 255.5,657.5C 250.167,657.5 244.833,657.5 239.5,657.5C 239.5,641.5 239.5,625.5 239.5,609.5C 234.167,609.5 228.833,609.5 223.5,609.5C 223.5,604.167 223.5,598.833 223.5,593.5C 221.5,593.5 219.5,593.5 217.5,593.5C 216.833,588.167 216.167,582.833 215.5,577.5C 212.167,577.5 208.833,577.5 205.5,577.5C 205.799,579.604 205.466,581.604 204.5,583.5C 203.833,582.833 203.167,582.167 202.5,581.5C 201.176,576.875 200.176,572.208 199.5,567.5C 200.833,567.5 202.167,567.5 203.5,567.5C 203.917,570.343 204.917,573.01 206.5,575.5C 207.874,571.365 207.54,567.365 205.5,563.5C 207.44,546.944 208.106,530.277 207.5,513.5C 204.833,513.5 202.167,513.5 199.5,513.5C 199.5,508.167 199.5,502.833 199.5,497.5C 196.833,497.5 194.167,497.5 191.5,497.5C 191.813,500.247 191.48,502.914 190.5,505.5C 189.008,496.416 189.341,487.416 191.5,478.5C 189.6,463.588 188.933,448.588 189.5,433.5C 192.833,433.5 196.167,433.5 199.5,433.5C 200.167,428.167 200.833,422.833 201.5,417.5C 203.5,417.5 205.5,417.5 207.5,417.5C 207.5,406.833 207.5,396.167 207.5,385.5C 212.833,385.5 218.167,385.5 223.5,385.5C 223.5,374.833 223.5,364.167 223.5,353.5C 228.833,353.5 234.167,353.5 239.5,353.5C 239.5,348.167 239.5,342.833 239.5,337.5C 244.833,337.5 250.167,337.5 255.5,337.5C 255.5,326.833 255.5,316.167 255.5,305.5C 260.833,305.5 266.167,305.5 271.5,305.5C 271.5,294.833 271.5,284.167 271.5,273.5C 276.833,273.5 282.167,273.5 287.5,273.5C 287.5,262.833 287.5,252.167 287.5,241.5C 292.833,241.5 298.167,241.5 303.5,241.5C 303.5,236.167 303.5,230.833 303.5,225.5C 308.833,225.5 314.167,225.5 319.5,225.5C 319.5,220.167 319.5,214.833 319.5,209.5C 324.833,209.5 330.167,209.5 335.5,209.5C 335.5,204.167 335.5,198.833 335.5,193.5C 340.833,193.5 346.167,193.5 351.5,193.5C 351.5,188.167 351.5,182.833 351.5,177.5C 362.167,177.5 372.833,177.5 383.5,177.5C 383.5,172.167 383.5,166.833 383.5,161.5C 388.833,161.5 394.167,161.5 399.5,161.5C 399.5,156.167 399.5,150.833 399.5,145.5C 404.833,145.5 410.167,145.5 415.5,145.5C 415.5,134.833 415.5,124.167 415.5,113.5C 412.833,113.5 410.167,113.5 407.5,113.5C 408.562,109.412 410.896,106.079 414.5,103.5C 419.938,105.388 425.605,106.054 431.5,105.5C 431.5,113.5 431.5,121.5 431.5,129.5C 436.833,129.5 442.167,129.5 447.5,129.5C 447.5,124.167 447.5,118.833 447.5,113.5C 458.167,113.5 468.833,113.5 479.5,113.5C 479.5,108.167 479.5,102.833 479.5,97.5C 482.167,97.5 484.833,97.5 487.5,97.5C 487.5,98.5 487.5,99.5 487.5,100.5C 490.167,100.5 492.833,100.5 495.5,100.5C 495.5,99.5 495.5,98.5 495.5,97.5C 500.833,97.5 506.167,97.5 511.5,97.5C 511.5,92.1667 511.5,86.8333 511.5,81.5C 516.833,81.5 522.167,81.5 527.5,81.5C 527.5,76.1667 527.5,70.8333 527.5,65.5C 538.167,64.8333 538.167,64.1667 527.5,63.5C 527.5,62.1667 527.5,60.8333 527.5,59.5C 530.187,59.3359 532.854,59.5026 535.5,60C 537.884,61.9019 540.551,63.0686 543.5,63.5C 543.5,69.5 543.5,75.5 543.5,81.5C 551.5,81.5 559.5,81.5 567.5,81.5C 567.5,80.5 567.5,79.5 567.5,78.5C 564.833,78.5 562.167,78.5 559.5,78.5C 559.5,74.1667 559.5,69.8333 559.5,65.5C 586.167,65.5 612.833,65.5 639.5,65.5C 639.5,70.8333 639.5,76.1667 639.5,81.5C 650.167,81.5 660.833,81.5 671.5,81.5C 671.5,76.1667 671.5,70.8333 671.5,65.5C 678.2,65.83 684.866,65.4967 691.5,64.5C 693.005,63.1585 693.672,61.4918 693.5,59.5C 699.743,59.4486 705.743,60.6153 711.5,63C 706.798,63.1717 702.132,63.6717 697.5,64.5C 699.396,65.4656 701.396,65.7989 703.5,65.5C 703.5,71.8333 703.5,78.1667 703.5,84.5C 706.167,84.5 708.833,84.5 711.5,84.5C 711.5,83.5 711.5,82.5 711.5,81.5C 714.167,81.5 716.833,81.5 719.5,81.5C 719.5,78.8333 719.5,76.1667 719.5,73.5C 726.2,73.17 732.866,73.5033 739.5,74.5C 742.146,76.1319 743.479,78.4652 743.5,81.5C 746.167,81.5 748.833,81.5 751.5,81.5C 751.5,86.8333 751.5,92.1667 751.5,97.5C 762.958,98.0754 774.291,97.4087 785.5,95.5C 789.365,97.5404 793.365,97.8738 797.5,96.5C 794.167,94.5 790.833,92.5 787.5,90.5C 788.5,90.1667 789.5,89.8333 790.5,89.5C 793.379,90.7952 796.379,91.4618 799.5,91.5C 799.5,92.8333 799.5,94.1667 799.5,95.5C 804.833,96.1667 804.833,96.8333 799.5,97.5C 799.5,102.167 799.5,106.833 799.5,111.5C 805.956,111.099 812.29,111.766 818.5,113.5C 820.044,113.21 821.377,112.544 822.5,111.5C 824.523,113.173 826.856,113.84 829.5,113.5C 829.5,116.167 829.5,118.833 829.5,121.5C 835.5,121.5 841.5,121.5 847.5,121.5C 847.5,129.5 847.5,137.5 847.5,145.5C 852.833,145.5 858.167,145.5 863.5,145.5C 863.5,150.833 863.5,156.167 863.5,161.5C 874.958,162.075 886.291,161.409 897.5,159.5C 899.652,161.069 901.986,161.569 904.5,161C 901.041,158.909 898.874,156.076 898,152.5C 898.667,153.833 899.333,153.833 900,152.5C 902.946,156.434 904.113,156.1 903.5,151.5 Z"/></g>
<g><path style="opacity:1" fill="#cfbdd4" d="M 795.5,81.5 C 786.116,77.4953 776.783,73.4953 767.5,69.5C 770.135,68.8581 772.802,68.1914 775.5,67.5C 780.627,67.9741 780.627,68.9741 775.5,70.5C 780.854,70.9988 785.52,72.9988 789.5,76.5C 791.396,77.4656 793.396,77.7989 795.5,77.5C 795.5,78.8333 795.5,80.1667 795.5,81.5 Z"/></g>
<g><path style="opacity:1" fill="#d1b2d8" d="M 831.5,99.5 C 833.604,99.2011 835.604,99.5344 837.5,100.5C 840.686,102.397 843.353,104.731 845.5,107.5C 840.5,105.336 835.833,102.669 831.5,99.5 Z"/></g>
<g><path style="opacity:1" fill="#7101a8" d="M 583.5,43.5 C 586.167,43.5 588.833,43.5 591.5,43.5C 607.5,43.5 623.5,43.5 639.5,43.5C 642.167,43.5 644.833,43.5 647.5,43.5C 651.715,45.4364 656.381,46.1031 661.5,45.5C 664.833,45.5 668.167,45.5 671.5,45.5C 673.905,46.7682 676.572,47.4349 679.5,47.5C 684.743,48.8097 690.077,49.4763 695.5,49.5C 697.905,50.7682 700.572,51.4349 703.5,51.5C 704.167,51.5 704.833,51.5 705.5,51.5C 707.905,52.7682 710.572,53.4349 713.5,53.5C 715.5,53.5 717.5,53.5 719.5,53.5C 719.62,54.5862 720.287,55.2528 721.5,55.5C 726.183,56.8451 730.849,58.1784 735.5,59.5C 746.162,62.8301 756.829,66.1634 767.5,69.5C 776.783,73.4953 786.116,77.4953 795.5,81.5C 807.915,86.6022 819.915,92.6022 831.5,99.5C 835.833,102.669 840.5,105.336 845.5,107.5C 845.973,108.906 846.973,109.573 848.5,109.5C 852.976,113.575 857.976,116.908 863.5,119.5C 867.543,122.387 871.543,125.553 875.5,129C 876.793,129.49 878.127,129.657 879.5,129.5C 879.281,130.675 879.614,131.675 880.5,132.5C 888.502,138.509 896.169,144.842 903.5,151.5C 904.113,156.1 902.946,156.434 900,152.5C 899.333,153.833 898.667,153.833 898,152.5C 898.874,156.076 901.041,158.909 904.5,161C 901.986,161.569 899.652,161.069 897.5,159.5C 886.291,161.409 874.958,162.075 863.5,161.5C 863.5,156.167 863.5,150.833 863.5,145.5C 858.167,145.5 852.833,145.5 847.5,145.5C 847.5,137.5 847.5,129.5 847.5,121.5C 841.5,121.5 835.5,121.5 829.5,121.5C 829.5,118.833 829.5,116.167 829.5,113.5C 826.856,113.84 824.523,113.173 822.5,111.5C 821.377,112.544 820.044,113.21 818.5,113.5C 812.29,111.766 805.956,111.099 799.5,111.5C 799.5,106.833 799.5,102.167 799.5,97.5C 804.833,96.8333 804.833,96.1667 799.5,95.5C 799.5,94.1667 799.5,92.8333 799.5,91.5C 796.379,91.4618 793.379,90.7952 790.5,89.5C 789.5,89.8333 788.5,90.1667 787.5,90.5C 790.833,92.5 794.167,94.5 797.5,96.5C 793.365,97.8738 789.365,97.5404 785.5,95.5C 774.291,97.4087 762.958,98.0754 751.5,97.5C 751.5,92.1667 751.5,86.8333 751.5,81.5C 748.833,81.5 746.167,81.5 743.5,81.5C 743.479,78.4652 742.146,76.1319 739.5,74.5C 732.866,73.5033 726.2,73.17 719.5,73.5C 719.5,76.1667 719.5,78.8333 719.5,81.5C 716.833,81.5 714.167,81.5 711.5,81.5C 711.5,82.5 711.5,83.5 711.5,84.5C 708.833,84.5 706.167,84.5 703.5,84.5C 703.5,78.1667 703.5,71.8333 703.5,65.5C 701.396,65.7989 699.396,65.4656 697.5,64.5C 702.132,63.6717 706.798,63.1717 711.5,63C 705.743,60.6153 699.743,59.4486 693.5,59.5C 693.672,61.4918 693.005,63.1585 691.5,64.5C 684.866,65.4967 678.2,65.83 671.5,65.5C 671.5,70.8333 671.5,76.1667 671.5,81.5C 660.833,81.5 650.167,81.5 639.5,81.5C 639.5,76.1667 639.5,70.8333 639.5,65.5C 612.833,65.5 586.167,65.5 559.5,65.5C 559.5,69.8333 559.5,74.1667 559.5,78.5C 562.167,78.5 564.833,78.5 567.5,78.5C 567.5,79.5 567.5,80.5 567.5,81.5C 559.5,81.5 551.5,81.5 543.5,81.5C 543.5,75.5 543.5,69.5 543.5,63.5C 540.551,63.0686 537.884,61.9019 535.5,60C 532.854,59.5026 530.187,59.3359 527.5,59.5C 527.5,60.8333 527.5,62.1667 527.5,63.5C 538.167,64.1667 538.167,64.8333 527.5,65.5C 527.5,70.8333 527.5,76.1667 527.5,81.5C 522.167,81.5 516.833,81.5 511.5,81.5C 511.5,86.8333 511.5,92.1667 511.5,97.5C 506.167,97.5 500.833,97.5 495.5,97.5C 495.5,98.5 495.5,99.5 495.5,100.5C 492.833,100.5 490.167,100.5 487.5,100.5C 487.5,99.5 487.5,98.5 487.5,97.5C 484.833,97.5 482.167,97.5 479.5,97.5C 479.5,102.833 479.5,108.167 479.5,113.5C 468.833,113.5 458.167,113.5 447.5,113.5C 447.5,118.833 447.5,124.167 447.5,129.5C 442.167,129.5 436.833,129.5 431.5,129.5C 431.5,121.5 431.5,113.5 431.5,105.5C 425.605,106.054 419.938,105.388 414.5,103.5C 410.896,106.079 408.562,109.412 407.5,113.5C 410.167,113.5 412.833,113.5 415.5,113.5C 415.5,124.167 415.5,134.833 415.5,145.5C 410.167,145.5 404.833,145.5 399.5,145.5C 399.5,150.833 399.5,156.167 399.5,161.5C 394.167,161.5 388.833,161.5 383.5,161.5C 383.5,166.833 383.5,172.167 383.5,177.5C 372.833,177.5 362.167,177.5 351.5,177.5C 351.5,182.833 351.5,188.167 351.5,193.5C 346.167,193.5 340.833,193.5 335.5,193.5C 335.5,198.833 335.5,204.167 335.5,209.5C 330.167,209.5 324.833,209.5 319.5,209.5C 319.5,214.833 319.5,220.167 319.5,225.5C 314.167,225.5 308.833,225.5 303.5,225.5C 303.5,230.833 303.5,236.167 303.5,241.5C 298.167,241.5 292.833,241.5 287.5,241.5C 287.5,252.167 287.5,262.833 287.5,273.5C 282.167,273.5 276.833,273.5 271.5,273.5C 271.5,284.167 271.5,294.833 271.5,305.5C 266.167,305.5 260.833,305.5 255.5,305.5C 255.5,316.167 255.5,326.833 255.5,337.5C 250.167,337.5 244.833,337.5 239.5,337.5C 239.5,342.833 239.5,348.167 239.5,353.5C 234.167,353.5 228.833,353.5 223.5,353.5C 223.5,364.167 223.5,374.833 223.5,385.5C 218.167,385.5 212.833,385.5 207.5,385.5C 207.5,396.167 207.5,406.833 207.5,417.5C 205.5,417.5 203.5,417.5 201.5,417.5C 200.833,422.833 200.167,428.167 199.5,433.5C 196.167,433.5 192.833,433.5 189.5,433.5C 188.933,448.588 189.6,463.588 191.5,478.5C 189.341,487.416 189.008,496.416 190.5,505.5C 191.48,502.914 191.813,500.247 191.5,497.5C 194.167,497.5 196.833,497.5 199.5,497.5C 199.5,502.833 199.5,508.167 199.5,513.5C 202.167,513.5 204.833,513.5 207.5,513.5C 208.106,530.277 207.44,546.944 205.5,563.5C 207.54,567.365 207.874,571.365 206.5,575.5C 204.917,573.01 203.917,570.343 203.5,567.5C 202.167,567.5 200.833,567.5 199.5,567.5C 200.176,572.208 201.176,576.875 202.5,581.5C 203.167,582.167 203.833,582.833 204.5,583.5C 205.466,581.604 205.799,579.604 205.5,577.5C 208.833,577.5 212.167,577.5 215.5,577.5C 216.167,582.833 216.833,588.167 217.5,593.5C 219.5,593.5 221.5,593.5 223.5,593.5C 223.5,598.833 223.5,604.167 223.5,609.5C 228.833,609.5 234.167,609.5 239.5,609.5C 239.5,625.5 239.5,641.5 239.5,657.5C 244.833,657.5 250.167,657.5 255.5,657.5C 255.5,662.833 255.5,668.167 255.5,673.5C 260.833,673.5 266.167,673.5 271.5,673.5C 271.5,689.5 271.5,705.5 271.5,721.5C 270.167,721.5 268.833,721.5 267.5,721.5C 267.5,722.833 267.5,724.167 267.5,725.5C 266.167,725.5 264.833,725.5 263.5,725.5C 263.762,724.022 263.429,722.689 262.5,721.5C 260.771,724.537 258.105,726.203 254.5,726.5C 253.859,725.007 252.859,724.007 251.5,723.5C 251.5,722.167 250.833,721.5 249.5,721.5C 235.074,689.979 221.741,657.979 209.5,625.5C 208.019,619.89 206.019,614.557 203.5,609.5C 183.803,557.982 175.136,504.649 177.5,449.5C 179.446,444.604 180.113,439.271 179.5,433.5C 179.5,431.5 179.5,429.5 179.5,427.5C 180.581,424.373 181.247,421.04 181.5,417.5C 182.832,408.84 184.165,400.173 185.5,391.5C 186.458,389.698 187.125,387.698 187.5,385.5C 189.213,374.694 191.547,364.028 194.5,353.5C 200.177,338.151 205.844,322.817 211.5,307.5C 213.341,305.151 214.674,302.485 215.5,299.5C 224.343,281.143 233.677,263.143 243.5,245.5C 244.496,245.586 245.329,245.252 246,244.5C 249.856,238.111 253.689,231.778 257.5,225.5C 327.011,132.05 419.011,73.383 533.5,49.5C 539.487,48.6714 545.487,47.8381 551.5,47C 552.416,46.7216 553.082,46.2216 553.5,45.5C 557.5,45.5 561.5,45.5 565.5,45.5C 571.634,44.9143 577.634,44.2476 583.5,43.5 Z"/></g>
<g><path style="opacity:1" fill="#d7b6dc" d="M 848.5,109.5 C 850.833,109.5 853.167,109.5 855.5,109.5C 855.5,110.833 855.5,112.167 855.5,113.5C 859.309,113.975 861.975,115.975 863.5,119.5C 857.976,116.908 852.976,113.575 848.5,109.5 Z"/></g>
<g><path style="opacity:1" fill="#d3c3d4" d="M 937.5,183.5 C 936.833,183.5 936.167,183.5 935.5,183.5C 927.145,173.814 918.478,164.48 909.5,155.5C 912.833,156.833 916.167,158.167 919.5,159.5C 919.201,157.396 919.534,155.396 920.5,153.5C 921.48,156.086 921.813,158.753 921.5,161.5C 925.795,161.279 926.462,162.612 923.5,165.5C 926.952,170.924 931.285,175.591 936.5,179.5C 937.429,180.689 937.762,182.022 937.5,183.5 Z"/></g>
<g><path style="opacity:1" fill="#d3bdd2" d="M 937.5,183.5 C 938.833,183.5 940.167,183.5 941.5,183.5C 941.5,184.833 941.5,186.167 941.5,187.5C 948.321,187.268 950.987,190.601 949.5,197.5C 947.851,196.286 946.185,194.953 944.5,193.5C 942.125,190.137 939.791,186.803 937.5,183.5 Z"/></g>
<g><path style="opacity:1" fill="#d3bed5" d="M 257.5,225.5 C 253.689,231.778 249.856,238.111 246,244.5C 245.329,245.252 244.496,245.586 243.5,245.5C 244.919,241.007 245.919,236.341 246.5,231.5C 247.842,233.005 249.508,233.672 251.5,233.5C 251.357,229.235 253.357,226.569 257.5,225.5 Z"/></g>
<g><path style="opacity:1" fill="#aa68cb" d="M 533.5,242.5 C 595.665,241.335 657.999,241.168 720.5,242C 722.058,242.21 723.391,242.71 724.5,243.5C 660.852,242.518 597.185,242.185 533.5,242.5 Z"/></g>
<g><path style="opacity:1" fill="#fefdfe" d="M 533.5,242.5 C 597.185,242.185 660.852,242.518 724.5,243.5C 728.18,246.341 732.014,249.007 736,251.5C 736.977,253.74 737.477,256.073 737.5,258.5C 738.492,370.812 738.825,483.145 738.5,595.5C 737.539,597.265 737.205,599.265 737.5,601.5C 742.316,602.65 747.316,602.816 752.5,602C 753.227,600.601 753.727,599.101 754,597.5C 754.5,509.167 754.667,420.834 754.5,332.5C 794.168,332.333 833.835,332.5 873.5,333C 877.164,334.278 880.497,336.111 883.5,338.5C 885.156,342.161 886.823,345.828 888.5,349.5C 889.5,431.831 889.833,514.164 889.5,596.5C 889.167,596.5 888.833,596.5 888.5,596.5C 887.539,598.265 887.205,600.265 887.5,602.5C 898.5,602.5 909.5,602.5 920.5,602.5C 920.5,615.833 920.5,629.167 920.5,642.5C 725.167,642.5 529.833,642.5 334.5,642.5C 334.5,629.167 334.5,615.833 334.5,602.5C 346.5,602.5 358.5,602.5 370.5,602.5C 370.5,600.167 370.5,597.833 370.5,595.5C 370.333,513.833 370.5,432.166 371,350.5C 371.339,347.12 371.839,343.787 372.5,340.5C 374.372,337.277 377.038,335.277 380.5,334.5C 420.143,333.523 459.809,333.19 499.5,333.5C 498.836,420.506 499.503,507.173 501.5,593.5C 501.223,596.448 501.556,599.281 502.5,602C 507.489,602.499 512.489,602.666 517.5,602.5C 517.806,599.615 517.473,596.948 516.5,594.5C 516.177,481.482 516.51,368.482 517.5,255.5C 518.11,254.609 518.443,253.609 518.5,252.5C 521.594,249.799 524.594,246.965 527.5,244C 529.436,243.187 531.436,242.687 533.5,242.5 Z"/></g>
<g><path style="opacity:1" fill="#bb85d5" d="M 635.5,250.5 C 624.974,249.929 614.641,250.929 604.5,253.5C 604.611,252.883 604.944,252.383 605.5,252C 615.559,249.562 625.559,249.062 635.5,250.5 Z"/></g>
<g><path style="opacity:1" fill="#7105a7" d="M 635.5,250.5 C 638.193,250.572 640.86,250.905 643.5,251.5C 649.841,254.324 656.174,256.991 662.5,259.5C 663.209,260.404 664.209,260.737 665.5,260.5C 665.5,261.5 665.5,262.5 665.5,263.5C 667.199,263.34 668.866,263.506 670.5,264C 671.471,265.481 672.804,266.315 674.5,266.5C 679.965,271.612 684.798,277.278 689,283.5C 691.13,286.767 692.963,290.1 694.5,293.5C 695.853,300.761 697.353,308.095 699,315.5C 699.48,324.177 699.313,332.844 698.5,341.5C 697.706,345.358 697.04,349.358 696.5,353.5C 695.519,355.309 694.019,356.643 692,357.5C 689.672,361.98 687.172,366.313 684.5,370.5C 682.81,372.519 681.144,374.519 679.5,376.5C 675.897,378.763 672.564,381.43 669.5,384.5C 662.84,387.123 656.507,390.457 650.5,394.5C 646.184,395.364 641.851,396.031 637.5,396.5C 629.167,396.5 620.833,396.5 612.5,396.5C 604.611,394.369 596.944,391.536 589.5,388C 581.651,382.146 574.484,375.646 568,368.5C 565.004,363.349 561.838,358.349 558.5,353.5C 557.786,346.925 556.453,340.591 554.5,334.5C 554.334,326.826 554.5,319.159 555,311.5C 556.702,306.307 557.702,300.974 558,295.5C 561.067,291.091 563.733,286.424 566,281.5C 567.271,280.117 568.771,279.117 570.5,278.5C 571.829,276.941 573.162,275.275 574.5,273.5C 575.325,272.614 576.325,272.281 577.5,272.5C 577.5,271.5 577.5,270.5 577.5,269.5C 577.804,268.85 578.137,268.183 578.5,267.5C 582.193,265.745 585.526,263.745 588.5,261.5C 591.061,260.455 593.394,259.122 595.5,257.5C 598.526,256.42 601.526,255.086 604.5,253.5C 614.641,250.929 624.974,249.929 635.5,250.5 Z"/></g>
<g><path style="opacity:1" fill="#c598db" d="M 595.5,257.5 C 593.394,259.122 591.061,260.455 588.5,261.5C 590.027,258.932 592.361,257.599 595.5,257.5 Z"/></g>
<g><path style="opacity:1" fill="#8629b4" d="M 518.5,252.5 C 518.443,253.609 518.11,254.609 517.5,255.5C 516.732,256.263 516.232,257.263 516,258.5C 515.5,370.166 515.333,481.833 515.5,593.5C 514.168,480.666 514.168,367.666 515.5,254.5C 516.265,253.388 517.265,252.721 518.5,252.5 Z"/></g>
<g><path style="opacity:1" fill="#d5b5e5" d="M 662.5,259.5 C 663.833,259.5 665.167,259.5 666.5,259.5C 666.5,260.5 666.5,261.5 666.5,262.5C 670.26,261.774 672.927,263.107 674.5,266.5C 672.804,266.315 671.471,265.481 670.5,264C 668.866,263.506 667.199,263.34 665.5,263.5C 665.5,262.5 665.5,261.5 665.5,260.5C 664.209,260.737 663.209,260.404 662.5,259.5 Z"/></g>
<g><path style="opacity:1" fill="#a561c7" d="M 577.5,269.5 C 577.5,270.5 577.5,271.5 577.5,272.5C 576.325,272.281 575.325,272.614 574.5,273.5C 573.162,275.275 571.829,276.941 570.5,278.5C 571.36,274.312 573.693,271.312 577.5,269.5 Z"/></g>
<g><path style="opacity:1" fill="#c191d9" d="M 645.5,280.5 C 633.58,279.521 621.58,279.188 609.5,279.5C 609.827,288.682 609.493,297.682 608.5,306.5C 608.5,297.167 608.5,287.833 608.5,278.5C 621.212,277.854 633.545,278.52 645.5,280.5 Z"/></g>
<g><path style="opacity:1" fill="#fdfcfe" d="M 645.5,280.5 C 645.5,289.167 645.5,297.833 645.5,306.5C 653.984,307.493 662.651,307.826 671.5,307.5C 671.5,318.5 671.5,329.5 671.5,340.5C 663.016,341.493 654.349,341.826 645.5,341.5C 645.806,351.25 645.473,360.916 644.5,370.5C 632.655,370.828 620.988,370.495 609.5,369.5C 609.5,360.167 609.5,350.833 609.5,341.5C 600.5,341.5 591.5,341.5 582.5,341.5C 582.5,330.167 582.5,318.833 582.5,307.5C 591.349,307.826 600.016,307.493 608.5,306.5C 609.493,297.682 609.827,288.682 609.5,279.5C 621.58,279.188 633.58,279.521 645.5,280.5 Z"/></g>
<g><path style="opacity:1" fill="#d6b0d9" d="M 215.5,299.5 C 214.674,302.485 213.341,305.151 211.5,307.5C 210.958,303.741 212.292,301.074 215.5,299.5 Z"/></g>
<g><path style="opacity:1" fill="#d6b7e6" d="M 645.5,306.5 C 654.5,306.5 663.5,306.5 672.5,306.5C 672.5,317.833 672.5,329.167 672.5,340.5C 672.167,340.5 671.833,340.5 671.5,340.5C 671.5,329.5 671.5,318.5 671.5,307.5C 662.651,307.826 653.984,307.493 645.5,306.5 Z"/></g>
<g><path style="opacity:1" fill="#bf8dd7" d="M 608.5,306.5 C 600.016,307.493 591.349,307.826 582.5,307.5C 582.5,318.833 582.5,330.167 582.5,341.5C 581.505,330.012 581.172,318.345 581.5,306.5C 590.5,306.5 599.5,306.5 608.5,306.5 Z"/></g>
<g><path style="opacity:1" fill="#994bbf" d="M 694.5,293.5 C 695.458,293.953 696.292,294.619 697,295.5C 697.298,300.974 698.298,306.307 700,311.5C 700.667,319.167 700.667,326.833 700,334.5C 699.814,337.036 699.314,339.369 698.5,341.5C 699.313,332.844 699.48,324.177 699,315.5C 697.353,308.095 695.853,300.761 694.5,293.5 Z"/></g>
<g><path style="opacity:1" fill="#9b4ec1" d="M 671.5,340.5 C 671.833,340.5 672.167,340.5 672.5,340.5C 664.231,342.47 655.565,343.136 646.5,342.5C 647.139,352.227 646.472,361.56 644.5,370.5C 645.473,360.916 645.806,351.25 645.5,341.5C 654.349,341.826 663.016,341.493 671.5,340.5 Z"/></g>
<g><path style="opacity:1" fill="#d7b8e6" d="M 554.5,334.5 C 556.453,340.591 557.786,346.925 558.5,353.5C 557.883,353.389 557.383,353.056 557,352.5C 555.839,346.532 555.006,340.532 554.5,334.5 Z"/></g>
<g><path style="opacity:1" fill="#b379d0" d="M 582.5,341.5 C 591.5,341.5 600.5,341.5 609.5,341.5C 609.5,350.833 609.5,360.167 609.5,369.5C 608.507,360.682 608.173,351.682 608.5,342.5C 599.651,342.826 590.984,342.493 582.5,341.5 Z"/></g>
<g><path style="opacity:1" fill="#dabce8" d="M 696.5,353.5 C 696.5,354.833 696.5,356.167 696.5,357.5C 694.408,357.561 692.908,358.561 692,360.5C 691.091,363.28 689.925,365.946 688.5,368.5C 687.423,369.705 686.09,370.372 684.5,370.5C 687.172,366.313 689.672,361.98 692,357.5C 694.019,356.643 695.519,355.309 696.5,353.5 Z"/></g>
<g><path style="opacity:1" fill="#d0aae1" d="M 679.5,376.5 C 677.088,380.238 673.754,382.905 669.5,384.5C 672.564,381.43 675.897,378.763 679.5,376.5 Z"/></g>
<g><path style="opacity:1" fill="#ab6acb" d="M 430.5,383.5 C 430.5,383.833 430.5,384.167 430.5,384.5C 420.24,383.898 410.24,384.564 400.5,386.5C 400.5,385.5 400.5,384.5 400.5,383.5C 410.5,383.5 420.5,383.5 430.5,383.5 Z"/></g>
<g><path style="opacity:1" fill="#af71cd" d="M 477.5,413.5 C 477.167,413.5 476.833,413.5 476.5,413.5C 476.5,403.833 476.5,394.167 476.5,384.5C 466.833,384.5 457.167,384.5 447.5,384.5C 447.5,394.167 447.5,403.833 447.5,413.5C 447.167,413.5 446.833,413.5 446.5,413.5C 446.5,403.5 446.5,393.5 446.5,383.5C 456.833,383.5 467.167,383.5 477.5,383.5C 477.5,393.5 477.5,403.5 477.5,413.5 Z"/></g>
<g><path style="opacity:1" fill="#730da8" d="M 787.5,384.5 C 796.833,384.5 806.167,384.5 815.5,384.5C 815.5,394.167 815.5,403.833 815.5,413.5C 806.348,414.494 797.015,414.827 787.5,414.5C 786.833,414.5 786.5,414.167 786.5,413.5C 786.173,403.652 786.506,393.986 787.5,384.5 Z"/></g>
<g><path style="opacity:1" fill="#7105a7" d="M 430.5,384.5 C 430.5,394.167 430.5,403.833 430.5,413.5C 420.5,413.5 410.5,413.5 400.5,413.5C 400.5,404.5 400.5,395.5 400.5,386.5C 410.24,384.564 420.24,383.898 430.5,384.5 Z"/></g>
<g><path style="opacity:1" fill="#7003a7" d="M 476.5,413.5 C 466.833,413.5 457.167,413.5 447.5,413.5C 447.5,403.833 447.5,394.167 447.5,384.5C 457.167,384.5 466.833,384.5 476.5,384.5C 476.5,394.167 476.5,403.833 476.5,413.5 Z"/></g>
<g><path style="opacity:1" fill="#720aa8" d="M 862.5,384.5 C 863.833,394.167 863.833,403.833 862.5,413.5C 852.833,413.5 843.167,413.5 833.5,413.5C 833.5,403.833 833.5,394.167 833.5,384.5C 843.167,384.5 852.833,384.5 862.5,384.5 Z"/></g>
<g><path style="opacity:1" fill="#cca5e0" d="M 517.5,255.5 C 516.51,368.482 516.177,481.482 516.5,594.5C 515.833,594.5 515.5,594.167 515.5,593.5C 515.333,481.833 515.5,370.166 516,258.5C 516.232,257.263 516.732,256.263 517.5,255.5 Z"/></g>
<g><path style="opacity:1" fill="#ab6acb" d="M 787.5,384.5 C 787.5,384.167 787.5,383.833 787.5,383.5C 797.167,383.5 806.833,383.5 816.5,383.5C 816.827,393.681 816.494,403.681 815.5,413.5C 815.5,403.833 815.5,394.167 815.5,384.5C 806.167,384.5 796.833,384.5 787.5,384.5 Z"/></g>
<g><path style="opacity:1" fill="#e9d9f2" d="M 816.5,383.5 C 818.476,393.781 819.143,404.448 818.5,415.5C 807.986,415.828 797.653,415.494 787.5,414.5C 797.015,414.827 806.348,414.494 815.5,413.5C 816.494,403.681 816.827,393.681 816.5,383.5 Z"/></g>
<g><path style="opacity:1" fill="#d49fe4" d="M 187.5,385.5 C 187.125,387.698 186.458,389.698 185.5,391.5C 185.025,388.918 185.692,386.918 187.5,385.5 Z"/></g>
<g><path style="opacity:1" fill="#c598db" d="M 430.5,383.5 C 432.475,393.446 433.142,403.779 432.5,414.5C 421.654,414.828 410.987,414.494 400.5,413.5C 410.5,413.5 420.5,413.5 430.5,413.5C 430.5,403.833 430.5,394.167 430.5,384.5C 430.5,384.167 430.5,383.833 430.5,383.5 Z"/></g>
<g><path style="opacity:1" fill="#a560c7" d="M 862.5,383.5 C 862.5,383.833 862.5,384.167 862.5,384.5C 852.833,384.5 843.167,384.5 833.5,384.5C 833.5,394.167 833.5,403.833 833.5,413.5C 843.167,413.5 852.833,413.5 862.5,413.5C 862.5,413.833 862.5,414.167 862.5,414.5C 852.5,414.5 842.5,414.5 832.5,414.5C 832.5,404.167 832.5,393.833 832.5,383.5C 842.5,383.5 852.5,383.5 862.5,383.5 Z"/></g>
<g><path style="opacity:1" fill="#c599db" d="M 787.5,383.5 C 787.5,383.833 787.5,384.167 787.5,384.5C 786.506,393.986 786.173,403.652 786.5,413.5C 785.834,408.678 785.501,403.678 785.5,398.5C 785.506,393.119 786.172,388.119 787.5,383.5 Z"/></g>
<g><path style="opacity:1" fill="#af71cd" d="M 612.5,396.5 C 620.833,396.5 629.167,396.5 637.5,396.5C 634.42,397.783 631.086,398.45 627.5,398.5C 622.311,398.153 617.311,397.486 612.5,396.5 Z"/></g>
<g><path style="opacity:1" fill="#d6b7e6" d="M 862.5,384.5 C 862.5,384.167 862.5,383.833 862.5,383.5C 863.828,388.288 864.495,393.454 864.5,399C 864.495,404.546 863.828,409.712 862.5,414.5C 862.5,414.167 862.5,413.833 862.5,413.5C 863.833,403.833 863.833,394.167 862.5,384.5 Z"/></g>
<g><path style="opacity:1" fill="#892fb6" d="M 753.5,351.5 C 753.667,432.167 753.5,512.834 753,593.5C 752.713,595.891 752.213,598.224 751.5,600.5C 746.88,601.493 742.214,601.827 737.5,601.5C 737.205,599.265 737.539,597.265 738.5,595.5C 738.5,597.167 738.5,598.833 738.5,600.5C 742.997,601.055 747.164,600.389 751,598.5C 751.924,516.003 752.757,433.669 753.5,351.5 Z"/></g>
<g><path style="opacity:1" fill="#d0abe2" d="M 446.5,413.5 C 446.833,413.5 447.167,413.5 447.5,413.5C 457.167,413.5 466.833,413.5 476.5,413.5C 476.833,413.5 477.167,413.5 477.5,413.5C 472.712,414.828 467.546,415.495 462,415.5C 456.454,415.495 451.288,414.828 446.5,413.5 Z"/></g>
<g><path style="opacity:1" fill="#c17bda" d="M 181.5,417.5 C 181.247,421.04 180.581,424.373 179.5,427.5C 178.931,423.671 179.598,420.337 181.5,417.5 Z"/></g>
<g><path style="opacity:1" fill="#7104a7" d="M 400.5,435.5 C 410.167,435.5 419.833,435.5 429.5,435.5C 429.194,445.25 429.527,454.916 430.5,464.5C 420.5,464.5 410.5,464.5 400.5,464.5C 400.5,454.833 400.5,445.167 400.5,435.5 Z"/></g>
<g><path style="opacity:1" fill="#b47ad1" d="M 447.5,464.5 C 446.342,454.675 446.175,444.675 447,434.5C 457,433.167 467,433.167 477,434.5C 477.5,444.828 477.666,455.161 477.5,465.5C 467.319,465.827 457.319,465.494 447.5,464.5 Z"/></g>
<g><path style="opacity:1" fill="#7003a7" d="M 447.5,464.5 C 447.5,454.833 447.5,445.167 447.5,435.5C 457.167,435.5 466.833,435.5 476.5,435.5C 476.5,445.167 476.5,454.833 476.5,464.5C 466.833,464.5 457.167,464.5 447.5,464.5 Z"/></g>
<g><path style="opacity:1" fill="#c598db" d="M 815.5,434.5 C 815.5,434.833 815.5,435.167 815.5,435.5C 805.833,435.5 796.167,435.5 786.5,435.5C 786.5,445.167 786.5,454.833 786.5,464.5C 786.167,464.5 785.833,464.5 785.5,464.5C 785.334,454.494 785.5,444.494 786,434.5C 795.931,433.171 805.765,433.171 815.5,434.5 Z"/></g>
<g><path style="opacity:1" fill="#7514aa" d="M 815.5,435.5 C 816.658,444.991 816.825,454.658 816,464.5C 806.069,465.829 796.235,465.829 786.5,464.5C 786.5,454.833 786.5,445.167 786.5,435.5C 796.167,435.5 805.833,435.5 815.5,435.5 Z"/></g>
<g><path style="opacity:1" fill="#7003a7" d="M 862.5,435.5 C 862.5,445.167 862.5,454.833 862.5,464.5C 852.833,464.5 843.167,464.5 833.5,464.5C 833.5,454.833 833.5,445.167 833.5,435.5C 843.167,435.5 852.833,435.5 862.5,435.5 Z"/></g>
<g><path style="opacity:1" fill="#dec4ea" d="M 372.5,340.5 C 371.839,343.787 371.339,347.12 371,350.5C 370.5,432.166 370.333,513.833 370.5,595.5C 370.167,595.5 369.833,595.5 369.5,595.5C 369.167,595.5 368.833,595.5 368.5,595.5C 368.333,513.833 368.5,432.166 369,350.5C 369.794,347.529 370.461,344.529 371,341.5C 371.383,340.944 371.883,340.611 372.5,340.5 Z"/></g>
<g><path style="opacity:1" fill="#9545bd" d="M 400.5,435.5 C 400.5,435.167 400.5,434.833 400.5,434.5C 410.5,434.5 420.5,434.5 430.5,434.5C 431.817,444.598 431.817,454.598 430.5,464.5C 429.527,454.916 429.194,445.25 429.5,435.5C 419.833,435.5 410.167,435.5 400.5,435.5 Z"/></g>
<g><path style="opacity:1" fill="#8c52a4" d="M 179.5,433.5 C 180.113,439.271 179.446,444.604 177.5,449.5C 176.887,443.729 177.554,438.396 179.5,433.5 Z"/></g>
<g><path style="opacity:1" fill="#cba3df" d="M 430.5,434.5 C 431.828,439.288 432.495,444.454 432.5,450C 432.495,455.546 431.828,460.712 430.5,465.5C 420.319,465.827 410.319,465.494 400.5,464.5C 410.5,464.5 420.5,464.5 430.5,464.5C 431.817,454.598 431.817,444.598 430.5,434.5 Z"/></g>
<g><path style="opacity:1" fill="#cda6e0" d="M 862.5,434.5 C 863.828,439.288 864.495,444.454 864.5,450C 864.495,455.546 863.828,460.712 862.5,465.5C 862.5,465.167 862.5,464.833 862.5,464.5C 862.5,454.833 862.5,445.167 862.5,435.5C 862.5,435.167 862.5,434.833 862.5,434.5 Z"/></g>
<g><path style="opacity:1" fill="#a45dc7" d="M 862.5,434.5 C 862.5,434.833 862.5,435.167 862.5,435.5C 852.833,435.5 843.167,435.5 833.5,435.5C 833.5,445.167 833.5,454.833 833.5,464.5C 843.167,464.5 852.833,464.5 862.5,464.5C 862.5,464.833 862.5,465.167 862.5,465.5C 852.5,465.5 842.5,465.5 832.5,465.5C 832.5,455.167 832.5,444.833 832.5,434.5C 842.5,434.5 852.5,434.5 862.5,434.5 Z"/></g>
<g><path style="opacity:1" fill="#e9d8f1" d="M 400.5,434.5 C 400.5,434.833 400.5,435.167 400.5,435.5C 400.5,445.167 400.5,454.833 400.5,464.5C 410.319,465.494 420.319,465.827 430.5,465.5C 420.347,466.494 410.014,466.828 399.5,466.5C 399.172,455.654 399.506,444.987 400.5,434.5 Z"/></g>
<g><path style="opacity:1" fill="#ecddf3" d="M 815.5,435.5 C 815.5,435.167 815.5,434.833 815.5,434.5C 816.828,439.288 817.495,444.454 817.5,450C 822,465.5 816.5,471 801,466.5C 795.454,466.495 790.288,465.828 785.5,464.5C 785.833,464.5 786.167,464.5 786.5,464.5C 796.235,465.829 806.069,465.829 816,464.5C 816.825,454.658 816.658,444.991 815.5,435.5 Z"/></g>
<g><path style="opacity:1" fill="#e5d0ef" d="M 501.5,593.5 C 499.503,507.173 498.836,420.506 499.5,333.5C 459.809,333.19 420.143,333.523 380.5,334.5C 381.263,333.732 382.263,333.232 383.5,333C 422.499,332.5 461.499,332.333 500.5,332.5C 500.175,419.529 500.508,506.529 501.5,593.5 Z"/></g>
<g><path style="opacity:1" fill="#af71ce" d="M 737.5,258.5 C 738.268,259.263 738.768,260.263 739,261.5C 739.833,373.001 739.666,484.334 738.5,595.5C 738.825,483.145 738.492,370.812 737.5,258.5 Z"/></g>
<g><path style="opacity:1" fill="#7105a7" d="M 430.5,515.5 C 420.5,515.5 410.5,515.5 400.5,515.5C 400.5,509.167 400.5,502.833 400.5,496.5C 401.479,493.375 401.813,490.042 401.5,486.5C 411.167,486.5 420.833,486.5 430.5,486.5C 430.5,496.167 430.5,505.833 430.5,515.5 Z"/></g>
<g><path style="opacity:1" fill="#720ba8" d="M 476.5,515.5 C 466.833,516.833 457.167,516.833 447.5,515.5C 447.5,505.833 447.5,496.167 447.5,486.5C 457.167,486.5 466.833,486.5 476.5,486.5C 476.5,496.167 476.5,505.833 476.5,515.5 Z"/></g>
<g><path style="opacity:1" fill="#ad6ecc" d="M 446.5,485.5 C 456.833,485.5 467.167,485.5 477.5,485.5C 477.5,495.5 477.5,505.5 477.5,515.5C 477.167,515.5 476.833,515.5 476.5,515.5C 476.5,505.833 476.5,496.167 476.5,486.5C 466.833,486.5 457.167,486.5 447.5,486.5C 447.5,496.167 447.5,505.833 447.5,515.5C 446.506,505.681 446.173,495.681 446.5,485.5 Z"/></g>
<g><path style="opacity:1" fill="#c99fdd" d="M 785.5,485.5 C 786.167,485.5 786.833,485.5 787.5,485.5C 787.5,485.833 787.5,486.167 787.5,486.5C 786.506,495.986 786.173,505.652 786.5,515.5C 785.506,505.681 785.173,495.681 785.5,485.5 Z"/></g>
<g><path style="opacity:1" fill="#730da8" d="M 787.5,486.5 C 796.833,486.5 806.167,486.5 815.5,486.5C 815.5,496.167 815.5,505.833 815.5,515.5C 806.348,516.494 797.015,516.827 787.5,516.5C 786.833,516.5 786.5,516.167 786.5,515.5C 786.173,505.652 786.506,495.986 787.5,486.5 Z"/></g>
<g><path style="opacity:1" fill="#a25ac5" d="M 431.5,485.5 C 431.827,495.681 431.494,505.681 430.5,515.5C 430.5,505.833 430.5,496.167 430.5,486.5C 420.833,486.5 411.167,486.5 401.5,486.5C 401.813,490.042 401.479,493.375 400.5,496.5C 400.5,492.833 400.5,489.167 400.5,485.5C 410.833,485.5 421.167,485.5 431.5,485.5 Z"/></g>
<g><path style="opacity:1" fill="#e8d6f1" d="M 785.5,485.5 C 796.321,484.505 807.321,484.172 818.5,484.5C 818.832,495.187 818.499,505.854 817.5,516.5C 807.372,517.819 797.372,517.819 787.5,516.5C 797.015,516.827 806.348,516.494 815.5,515.5C 816.494,505.681 816.827,495.681 816.5,485.5C 806.833,485.5 797.167,485.5 787.5,485.5C 786.833,485.5 786.167,485.5 785.5,485.5 Z"/></g>
<g><path style="opacity:1" fill="#cbb5c0" d="M 1051.5,439.5 C 1052.83,450.146 1053.5,461.146 1053.5,472.5C 1053.5,483.854 1052.83,494.854 1051.5,505.5C 1051.5,502.833 1051.5,500.167 1051.5,497.5C 1051.5,478.167 1051.5,458.833 1051.5,439.5 Z"/></g>
<g><path style="opacity:1" fill="#a966ca" d="M 787.5,486.5 C 787.5,486.167 787.5,485.833 787.5,485.5C 797.167,485.5 806.833,485.5 816.5,485.5C 816.827,495.681 816.494,505.681 815.5,515.5C 815.5,505.833 815.5,496.167 815.5,486.5C 806.167,486.5 796.833,486.5 787.5,486.5 Z"/></g>
<g><path style="opacity:1" fill="#6f01a6" d="M 587.5,490.5 C 616.167,490.5 644.833,490.5 673.5,490.5C 673.5,510.167 673.5,529.833 673.5,549.5C 672.504,565.658 672.17,581.991 672.5,598.5C 644.167,598.5 615.833,598.5 587.5,598.5C 587.5,562.833 587.5,527.167 587.5,491.5C 587.5,491.167 587.5,490.833 587.5,490.5 Z"/></g>
<g><path style="opacity:1" fill="#a45dc7" d="M 863.5,485.5 C 863.827,495.681 863.494,505.681 862.5,515.5C 852.681,516.494 842.681,516.827 832.5,516.5C 832.5,506.167 832.5,495.833 832.5,485.5C 842.833,485.5 853.167,485.5 863.5,485.5 Z"/></g>
<g><path style="opacity:1" fill="#7003a7" d="M 862.5,515.5 C 852.833,515.5 843.167,515.5 833.5,515.5C 833.5,505.833 833.5,496.167 833.5,486.5C 843.167,486.5 852.833,486.5 862.5,486.5C 862.5,496.167 862.5,505.833 862.5,515.5 Z"/></g>
<g><path style="opacity:1" fill="#d0abe2" d="M 431.5,485.5 C 432.829,495.902 432.829,506.402 431.5,517C 426.333,517.167 421.167,517.333 416,517.5C 410.454,517.495 405.288,516.828 400.5,515.5C 410.5,515.5 420.5,515.5 430.5,515.5C 431.494,505.681 431.827,495.681 431.5,485.5 Z"/></g>
<g><path style="opacity:1" fill="#ebdbf2" d="M 446.5,485.5 C 446.173,495.681 446.506,505.681 447.5,515.5C 457.167,516.833 466.833,516.833 476.5,515.5C 476.833,515.5 477.167,515.5 477.5,515.5C 472.712,516.828 467.546,517.495 462,517.5C 446.424,521.757 440.59,516.09 444.5,500.5C 444.506,495.119 445.172,490.119 446.5,485.5 Z"/></g>
<g><path style="opacity:1" fill="#d098e1" d="M 1051.5,497.5 C 1051.5,500.167 1051.5,502.833 1051.5,505.5C 1052.04,508.698 1051.37,511.365 1049.5,513.5C 1049.78,507.979 1050.45,502.646 1051.5,497.5 Z"/></g>
<g><path style="opacity:1" fill="#d6b7e6" d="M 863.5,485.5 C 864.659,495.658 864.825,505.992 864,516.5C 853.402,517.829 842.902,517.829 832.5,516.5C 842.681,516.827 852.681,516.494 862.5,515.5C 863.494,505.681 863.827,495.681 863.5,485.5 Z"/></g>
<g><path style="opacity:1" fill="#b47ad1" d="M 587.5,490.5 C 587.5,490.833 587.5,491.167 587.5,491.5C 586.167,527.5 586.167,563.5 587.5,599.5C 587.5,599.833 587.5,600.167 587.5,600.5C 586.167,582.512 585.5,564.179 585.5,545.5C 585.5,526.821 586.167,508.488 587.5,490.5 Z"/></g>
<g><path style="opacity:1" fill="#d4c1ce" d="M 1047.5,529.5 C 1046.9,537.845 1046.06,546.178 1045,554.5C 1044.67,554.167 1044.33,553.833 1044,553.5C 1044,556.051 1043.16,558.051 1041.5,559.5C 1042.66,549.213 1044.66,539.213 1047.5,529.5 Z"/></g>
<g><path style="opacity:1" fill="#d0aae1" d="M 754.5,332.5 C 754.667,420.834 754.5,509.167 754,597.5C 753.727,599.101 753.227,600.601 752.5,602C 747.316,602.816 742.316,602.65 737.5,601.5C 742.214,601.827 746.88,601.493 751.5,600.5C 752.213,598.224 752.713,595.891 753,593.5C 753.5,512.834 753.667,432.167 753.5,351.5C 753.177,344.978 753.51,338.645 754.5,332.5 Z"/></g>
<g><path style="opacity:1" fill="#8324b2" d="M 587.5,491.5 C 587.5,527.167 587.5,562.833 587.5,598.5C 615.833,598.5 644.167,598.5 672.5,598.5C 672.17,581.991 672.504,565.658 673.5,549.5C 673.5,566.167 673.5,582.833 673.5,599.5C 644.833,599.5 616.167,599.5 587.5,599.5C 586.167,563.5 586.167,527.5 587.5,491.5 Z"/></g>
<g><path style="opacity:1" fill="#dcb0e5" d="M 1031.5,593.5 C 1031.7,597.606 1030.36,600.939 1027.5,603.5C 1028.27,599.851 1029.6,596.518 1031.5,593.5 Z"/></g>
<g><path style="opacity:1" fill="#a967ca" d="M 673.5,490.5 C 674.498,526.996 674.832,563.663 674.5,600.5C 645.5,600.5 616.5,600.5 587.5,600.5C 587.5,600.167 587.5,599.833 587.5,599.5C 616.167,599.5 644.833,599.5 673.5,599.5C 673.5,582.833 673.5,566.167 673.5,549.5C 673.5,529.833 673.5,510.167 673.5,490.5 Z"/></g>
<g><path style="opacity:1" fill="#9849bf" d="M 888.5,596.5 C 888.833,596.5 889.167,596.5 889.5,596.5C 889.5,597.833 889.5,599.167 889.5,600.5C 900.014,600.172 910.347,600.506 920.5,601.5C 909.833,601.5 899.167,601.5 888.5,601.5C 888.5,599.833 888.5,598.167 888.5,596.5 Z"/></g>
<g><path style="opacity:1" fill="#cba3df" d="M 369.5,595.5 C 369.833,595.5 370.167,595.5 370.5,595.5C 370.5,597.833 370.5,600.167 370.5,602.5C 358.5,602.5 346.5,602.5 334.5,602.5C 345.988,601.505 357.655,601.172 369.5,601.5C 369.5,599.5 369.5,597.5 369.5,595.5 Z"/></g>
<g><path style="opacity:1" fill="#cba3df" d="M 501.5,593.5 C 502.21,595.893 502.877,598.393 503.5,601C 507.821,601.499 512.154,601.666 516.5,601.5C 516.5,599.167 516.5,596.833 516.5,594.5C 517.473,596.948 517.806,599.615 517.5,602.5C 512.489,602.666 507.489,602.499 502.5,602C 501.556,599.281 501.223,596.448 501.5,593.5 Z"/></g>
<g><path style="opacity:1" fill="#c69adc" d="M 888.5,596.5 C 888.5,598.167 888.5,599.833 888.5,601.5C 899.167,601.5 909.833,601.5 920.5,601.5C 920.5,601.833 920.5,602.167 920.5,602.5C 909.5,602.5 898.5,602.5 887.5,602.5C 887.205,600.265 887.539,598.265 888.5,596.5 Z"/></g>
<g><path style="opacity:1" fill="#7101a7" d="M 935.5,183.5 C 936.167,183.5 936.833,183.5 937.5,183.5C 939.791,186.803 942.125,190.137 944.5,193.5C 946.185,194.953 947.851,196.286 949.5,197.5C 990.048,246.489 1019.21,301.822 1037,363.5C 1042.8,388.64 1047.63,413.973 1051.5,439.5C 1051.5,458.833 1051.5,478.167 1051.5,497.5C 1050.45,502.646 1049.78,507.979 1049.5,513.5C 1048.18,518.737 1047.52,524.07 1047.5,529.5C 1044.66,539.213 1042.66,549.213 1041.5,559.5C 1037.25,570.5 1033.91,581.834 1031.5,593.5C 1029.6,596.518 1028.27,599.851 1027.5,603.5C 1025.56,607.987 1024.23,612.654 1023.5,617.5C 1020.71,622.594 1018.21,627.927 1016,633.5C 1015.51,634.793 1015.34,636.127 1015.5,637.5C 1013.93,639.102 1013.26,641.102 1013.5,643.5C 1010.55,647.679 1008.55,652.346 1007.5,657.5C 1005.65,660.54 1004.32,663.873 1003.5,667.5C 1001.54,672.089 999.545,676.755 997.5,681.5C 994.599,685.761 992.599,690.428 991.5,695.5C 988.326,700.516 985.659,705.849 983.5,711.5C 981.785,714.303 980.452,717.303 979.5,720.5C 977.895,723.378 976.561,726.378 975.5,729.5C 973.659,731.849 972.326,734.515 971.5,737.5C 969.907,740.355 968.574,743.355 967.5,746.5C 964.597,751.302 961.93,756.302 959.5,761.5C 957.909,764.352 956.576,767.352 955.5,770.5C 951.138,777.873 947.138,785.54 943.5,793.5C 941.659,795.849 940.326,798.515 939.5,801.5C 935.917,805.514 933.25,810.181 931.5,815.5C 931.5,815.833 931.5,816.167 931.5,816.5C 927.74,821.684 924.74,827.35 922.5,833.5C 907.836,858.2 893.503,883.2 879.5,908.5C 876.586,912.658 873.919,916.991 871.5,921.5C 855.24,947.69 839.24,974.023 823.5,1000.5C 820.048,1004.42 817.381,1008.75 815.5,1013.5C 811.779,1018.56 808.445,1023.9 805.5,1029.5C 803.147,1031.86 801.147,1034.53 799.5,1037.5C 799.635,1039.55 798.968,1041.22 797.5,1042.5C 792.092,1048.98 787.425,1055.98 783.5,1063.5C 774.325,1076.52 765.658,1089.85 757.5,1103.5C 755.485,1105.58 753.485,1107.58 751.5,1109.5C 750.25,1109.58 749.417,1110.24 749,1111.5C 748.82,1109.51 748.986,1107.51 749.5,1105.5C 747.459,1105.85 745.626,1105.85 744,1105.5C 743.5,1094.84 743.333,1084.17 743.5,1073.5C 744.833,1073.5 746.167,1073.5 747.5,1073.5C 747.5,1057.5 747.5,1041.5 747.5,1025.5C 754.167,1025.5 760.833,1025.5 767.5,1025.5C 766.176,1017.57 765.509,1009.57 765.5,1001.5C 766.833,1001.5 768.167,1001.5 769.5,1001.5C 769.5,1004.17 769.5,1006.83 769.5,1009.5C 774.167,1009.5 778.833,1009.5 783.5,1009.5C 783.5,998.833 783.5,988.167 783.5,977.5C 788.167,977.5 792.833,977.5 797.5,977.5C 797.284,966.76 797.951,956.094 799.5,945.5C 804.167,945.5 808.833,945.5 813.5,945.5C 813.172,940.125 813.505,934.792 814.5,929.5C 816.136,918.913 817.136,918.913 817.5,929.5C 822.167,929.5 826.833,929.5 831.5,929.5C 831.5,913.5 831.5,897.5 831.5,881.5C 836.167,881.5 840.833,881.5 845.5,881.5C 846.167,876.167 846.833,870.833 847.5,865.5C 852.167,865.5 856.833,865.5 861.5,865.5C 861.169,857.472 861.502,849.472 862.5,841.5C 863.48,844.086 863.813,846.753 863.5,849.5C 868.833,849.5 874.167,849.5 879.5,849.5C 878.833,838.833 878.167,828.167 877.5,817.5C 883.5,817.5 889.5,817.5 895.5,817.5C 895.821,810.733 895.154,804.066 893.5,797.5C 894.811,793.593 895.478,789.593 895.5,785.5C 900.833,785.5 906.167,785.5 911.5,785.5C 910.176,777.568 909.509,769.568 909.5,761.5C 910.833,761.5 912.167,761.5 913.5,761.5C 913.5,764.167 913.5,766.833 913.5,769.5C 917.5,769.5 921.5,769.5 925.5,769.5C 927.049,758.906 927.716,748.24 927.5,737.5C 932.833,737.5 938.167,737.5 943.5,737.5C 943.5,721.5 943.5,705.5 943.5,689.5C 948.833,689.5 954.167,689.5 959.5,689.5C 957.951,678.906 957.284,668.24 957.5,657.5C 963.5,657.5 969.5,657.5 975.5,657.5C 973.504,644.223 973.171,630.89 974.5,617.5C 975.48,620.086 975.813,622.753 975.5,625.5C 980.167,625.5 984.833,625.5 989.5,625.5C 989.172,620.125 989.505,614.792 990.5,609.5C 991.167,620.167 991.833,630.833 992.5,641.5C 993.495,636.208 993.828,630.875 993.5,625.5C 998.739,626.037 1003.74,625.37 1008.5,623.5C 1009.83,620.167 1009.83,616.833 1008.5,613.5C 1006.97,618.627 1005.97,618.627 1005.5,613.5C 1006.49,609.558 1007.16,605.558 1007.5,601.5C 1005.61,590.869 1005.28,580.202 1006.5,569.5C 1007.48,572.086 1007.81,574.753 1007.5,577.5C 1012.83,577.5 1018.17,577.5 1023.5,577.5C 1025.03,572.308 1025.7,566.974 1025.5,561.5C 1018.83,561.5 1012.17,561.5 1005.5,561.5C 1005.5,550.833 1005.5,540.167 1005.5,529.5C 1010.83,529.5 1016.17,529.5 1021.5,529.5C 1021.5,526.833 1021.5,524.167 1021.5,521.5C 1022.83,521.5 1024.17,521.5 1025.5,521.5C 1025.5,524.167 1025.5,526.833 1025.5,529.5C 1027.5,529.5 1029.5,529.5 1031.5,529.5C 1031.5,524.167 1031.5,518.833 1031.5,513.5C 1028.17,513.5 1024.83,513.5 1021.5,513.5C 1023.05,502.906 1023.72,492.24 1023.5,481.5C 1026.17,481.5 1028.83,481.5 1031.5,481.5C 1031.5,454.833 1031.5,428.167 1031.5,401.5C 1029.5,401.5 1027.5,401.5 1025.5,401.5C 1025.81,404.247 1025.48,406.914 1024.5,409.5C 1022.4,396.245 1021.4,382.911 1021.5,369.5C 1016.83,369.5 1012.17,369.5 1007.5,369.5C 1007.83,374.875 1007.49,380.208 1006.5,385.5C 1005,373.436 1005.34,361.436 1007.5,349.5C 1006.19,345.593 1005.52,341.593 1005.5,337.5C 1000.83,337.5 996.167,337.5 991.5,337.5C 991.5,326.833 991.5,316.167 991.5,305.5C 986.167,305.5 980.833,305.5 975.5,305.5C 975.5,294.833 975.5,284.167 975.5,273.5C 977.604,273.799 979.604,273.466 981.5,272.5C 976.417,268.803 974.417,263.803 975.5,257.5C 964.833,257.5 954.167,257.5 943.5,257.5C 943.478,253.407 942.811,249.407 941.5,245.5C 942.167,242.833 942.833,240.167 943.5,237.5C 942.189,233.593 941.522,229.593 941.5,225.5C 936.833,225.5 932.167,225.5 927.5,225.5C 927.5,212.167 927.5,198.833 927.5,185.5C 924.833,185.5 922.167,185.5 919.5,185.5C 919.5,184.167 919.5,182.833 919.5,181.5C 916.833,181.5 914.167,181.5 911.5,181.5C 911.063,176.639 911.563,171.972 913,167.5C 914.604,168.649 916.27,168.649 918,167.5C 919.171,168.34 920.338,169.173 921.5,170C 921.167,170.333 920.833,170.667 920.5,171C 921.448,171.483 922.448,171.649 923.5,171.5C 923.675,174.329 922.342,175.996 919.5,176.5C 921.859,177.705 924.026,177.372 926,175.5C 929.064,178.406 932.23,181.073 935.5,183.5 Z"/></g>
<g><path style="opacity:1" fill="#dbb3de" d="M 203.5,609.5 C 206.019,614.557 208.019,619.89 209.5,625.5C 208.265,625.279 207.265,624.612 206.5,623.5C 204.546,619.02 203.546,614.353 203.5,609.5 Z"/></g>
<g><path style="opacity:1" fill="#8c35b8" d="M 368.5,595.5 C 368.833,595.5 369.167,595.5 369.5,595.5C 369.5,597.5 369.5,599.5 369.5,601.5C 357.655,601.172 345.988,601.505 334.5,602.5C 333.504,615.99 333.171,629.656 333.5,643.5C 332.339,629.673 332.173,615.673 333,601.5C 344.753,600.512 356.586,600.179 368.5,600.5C 368.5,598.833 368.5,597.167 368.5,595.5 Z"/></g>
<g><path style="opacity:1" fill="#d3b6d8" d="M 1023.5,617.5 C 1022.82,622.208 1021.82,626.875 1020.5,631.5C 1018.8,633.641 1017.13,635.641 1015.5,637.5C 1015.34,636.127 1015.51,634.793 1016,633.5C 1018.21,627.927 1020.71,622.594 1023.5,617.5 Z"/></g>
<g><path style="opacity:1" fill="#c294d9" d="M 334.5,602.5 C 334.5,615.833 334.5,629.167 334.5,642.5C 529.833,642.5 725.167,642.5 920.5,642.5C 920.5,629.167 920.5,615.833 920.5,602.5C 921.496,615.99 921.829,629.656 921.5,643.5C 725.5,643.5 529.5,643.5 333.5,643.5C 333.171,629.656 333.504,615.99 334.5,602.5 Z"/></g>
<g><path style="opacity:1" fill="#d9b3e4" d="M 1013.5,643.5 C 1013.09,648.981 1011.09,653.648 1007.5,657.5C 1008.55,652.346 1010.55,647.679 1013.5,643.5 Z"/></g>
<g><path style="opacity:1" fill="#deb0e2" d="M 1007.5,657.5 C 1007.7,661.606 1006.36,664.939 1003.5,667.5C 1004.32,663.873 1005.65,660.54 1007.5,657.5 Z"/></g>
<g><path style="opacity:1" fill="#d9b5e4" d="M 997.5,681.5 C 997.126,685.629 996.126,689.629 994.5,693.5C 993.735,694.612 992.735,695.279 991.5,695.5C 992.599,690.428 994.599,685.761 997.5,681.5 Z"/></g>
<g><path style="opacity:1" fill="#d8b4dd" d="M 991.5,695.5 C 990.989,700.533 989.323,705.199 986.5,709.5C 985.735,710.612 984.735,711.279 983.5,711.5C 985.659,705.849 988.326,700.516 991.5,695.5 Z"/></g>
<g><path style="opacity:1" fill="#d5afdc" d="M 983.5,711.5 C 983.876,715.409 982.543,718.409 979.5,720.5C 980.452,717.303 981.785,714.303 983.5,711.5 Z"/></g>
<g><path style="opacity:1" fill="#ba96d2" d="M 249.5,721.5 C 250.833,721.5 251.5,722.167 251.5,723.5C 251.5,724.167 251.5,724.833 251.5,725.5C 249.824,724.817 249.157,723.483 249.5,721.5 Z"/></g>
<g><path style="opacity:1" fill="#d9ade0" d="M 975.5,729.5 C 976.042,733.259 974.708,735.926 971.5,737.5C 972.326,734.515 973.659,731.849 975.5,729.5 Z"/></g>
<g><path style="opacity:1" fill="#d1b6d4" d="M 261.5,747.5 C 262.376,747.369 263.043,747.702 263.5,748.5C 265.253,752.1 266.587,755.766 267.5,759.5C 266.265,759.279 265.265,758.612 264.5,757.5C 262.483,754.45 261.483,751.117 261.5,747.5 Z"/></g>
<g><path style="opacity:1" fill="#d3b4da" d="M 967.5,746.5 C 966.919,750.247 965.919,753.914 964.5,757.5C 963.083,759.261 961.417,760.594 959.5,761.5C 961.93,756.302 964.597,751.302 967.5,746.5 Z"/></g>
<g><path style="opacity:1" fill="#a059bb" d="M 271.5,765.5 C 272.467,766.806 273.801,767.473 275.5,767.5C 275.5,769.5 275.5,771.5 275.5,773.5C 273.153,771.473 271.819,768.806 271.5,765.5 Z"/></g>
<g><path style="opacity:1" fill="#d5b9da" d="M 955.5,770.5 C 953.293,778.356 950.627,786.023 947.5,793.5C 946.167,793.5 944.833,793.5 943.5,793.5C 947.138,785.54 951.138,777.873 955.5,770.5 Z"/></g>
<g><path style="opacity:1" fill="#d4b2d7" d="M 939.5,801.5 C 939.799,803.604 939.466,805.604 938.5,807.5C 936.603,810.686 934.269,813.353 931.5,815.5C 933.25,810.181 935.917,805.514 939.5,801.5 Z"/></g>
<g><path style="opacity:1" fill="#d5bada" d="M 931.5,816.5 C 931.5,819.5 931.5,822.5 931.5,825.5C 930.167,825.5 928.833,825.5 927.5,825.5C 926.83,829.176 925.33,832.509 923,835.5C 922.536,834.906 922.369,834.239 922.5,833.5C 924.74,827.35 927.74,821.684 931.5,816.5 Z"/></g>
<g><path style="opacity:1" fill="#d8b0e2" d="M 313.5,845.5 C 315.555,847.896 317.221,850.562 318.5,853.5C 314.47,852.494 312.803,849.827 313.5,845.5 Z"/></g>
<g><path style="opacity:1" fill="#deb3e7" d="M 879.5,908.5 C 879.098,914.316 876.432,918.65 871.5,921.5C 873.919,916.991 876.586,912.658 879.5,908.5 Z"/></g>
<g><path style="opacity:1" fill="#cea0d8" d="M 387.5,971.5 C 389.326,973.147 390.66,975.147 391.5,977.5C 388.687,976.554 387.354,974.554 387.5,971.5 Z"/></g>
<g><path style="opacity:1" fill="#d1add6" d="M 823.5,1000.5 C 821.7,1004.66 820.367,1008.99 819.5,1013.5C 818.167,1013.5 816.833,1013.5 815.5,1013.5C 817.381,1008.75 820.048,1004.42 823.5,1000.5 Z"/></g>
<g><path style="opacity:1" fill="#d9b2db" d="M 815.5,1013.5 C 815.097,1020.76 811.764,1026.09 805.5,1029.5C 808.445,1023.9 811.779,1018.56 815.5,1013.5 Z"/></g>
<g><path style="opacity:1" fill="#d2a0dd" d="M 805.5,1029.5 C 804.833,1032.17 804.167,1034.83 803.5,1037.5C 802.167,1037.5 800.833,1037.5 799.5,1037.5C 801.147,1034.53 803.147,1031.86 805.5,1029.5 Z"/></g>
<g><path style="opacity:1" fill="#d5c0d6" d="M 797.5,1042.5 C 797.56,1045.02 796.894,1047.35 795.5,1049.5C 796.833,1051.5 798.167,1053.5 799.5,1055.5C 799.167,1056.17 798.833,1056.83 798.5,1057.5C 797.122,1055.79 795.455,1054.45 793.5,1053.5C 790.609,1057.29 787.276,1060.62 783.5,1063.5C 787.425,1055.98 792.092,1048.98 797.5,1042.5 Z"/></g>
<g><path style="opacity:1" fill="#cbb1d4" d="M 451.5,1073.5 C 454.449,1075.37 456.449,1078.04 457.5,1081.5C 453.975,1079.98 451.975,1077.31 451.5,1073.5 Z"/></g>
<g><path style="opacity:1" fill="#7202a8" d="M 543.5,1205.5 C 540.534,1202.31 537.534,1198.98 534.5,1195.5C 528.527,1184.7 521.527,1174.7 513.5,1165.5C 513.123,1163.74 512.456,1162.08 511.5,1160.5C 509.388,1158.07 507.388,1155.74 505.5,1153.5C 502.562,1147.9 499.229,1142.57 495.5,1137.5C 493.853,1134.53 491.853,1131.86 489.5,1129.5C 488.449,1126.04 486.449,1123.37 483.5,1121.5C 475.332,1107.83 466.665,1094.49 457.5,1081.5C 456.449,1078.04 454.449,1075.37 451.5,1073.5C 451.649,1072.45 451.483,1071.45 451,1070.5C 435.982,1047.15 420.982,1023.82 406,1000.5C 405.517,999.552 405.351,998.552 405.5,997.5C 403.98,994.421 403.147,991.088 403,987.5C 394.861,982.135 395.694,980.135 405.5,981.5C 405.5,980.167 405.5,978.833 405.5,977.5C 402.833,977.5 400.167,977.5 397.5,977.5C 397.421,975.334 396.754,973.334 395.5,971.5C 397.413,968.349 398.746,965.016 399.5,961.5C 404.833,961.5 410.167,961.5 415.5,961.5C 415.5,966.833 415.5,972.167 415.5,977.5C 420.833,977.5 426.167,977.5 431.5,977.5C 431.5,985.5 431.5,993.5 431.5,1001.5C 434.167,1001.5 436.833,1001.5 439.5,1001.5C 439.5,1004.17 439.5,1006.83 439.5,1009.5C 442.167,1009.5 444.833,1009.5 447.5,1009.5C 448.075,1020.96 447.409,1032.29 445.5,1043.5C 446.754,1045.33 447.421,1047.33 447.5,1049.5C 450.167,1049.5 452.833,1049.5 455.5,1049.5C 455.5,1052.17 455.5,1054.83 455.5,1057.5C 457.666,1057.58 459.666,1058.25 461.5,1059.5C 464.642,1057.88 467.975,1057.21 471.5,1057.5C 471.187,1060.25 471.52,1062.91 472.5,1065.5C 474.833,1067.83 477.167,1070.17 479.5,1072.5C 484.792,1073.49 490.125,1073.83 495.5,1073.5C 495.5,1078.83 495.5,1084.17 495.5,1089.5C 500.833,1089.5 506.167,1089.5 511.5,1089.5C 511.5,1094.83 511.5,1100.17 511.5,1105.5C 516.833,1105.5 522.167,1105.5 527.5,1105.5C 527.5,1116.17 527.5,1126.83 527.5,1137.5C 532.833,1137.5 538.167,1137.5 543.5,1137.5C 543.5,1148.17 543.5,1158.83 543.5,1169.5C 548.833,1169.5 554.167,1169.5 559.5,1169.5C 559.5,1174.83 559.5,1180.17 559.5,1185.5C 560.833,1185.5 562.167,1185.5 563.5,1185.5C 563.5,1190.83 563.5,1196.17 563.5,1201.5C 564.833,1201.5 566.167,1201.5 567.5,1201.5C 567.827,1206.21 567.493,1210.88 566.5,1215.5C 563.816,1218.04 561.149,1218.04 558.5,1215.5C 556.593,1211.59 553.927,1208.26 550.5,1205.5C 549.571,1204.31 549.238,1202.98 549.5,1201.5C 548.167,1201.5 546.833,1201.5 545.5,1201.5C 545.843,1203.48 545.176,1204.82 543.5,1205.5 Z"/></g>
<g><path style="opacity:1" fill="#d5bad6" d="M 757.5,1103.5 C 756.424,1106.73 755.757,1110.07 755.5,1113.5C 754.167,1113.5 752.833,1113.5 751.5,1113.5C 751.025,1117.31 749.025,1119.98 745.5,1121.5C 747.951,1117.72 749.951,1113.72 751.5,1109.5C 753.485,1107.58 755.485,1105.58 757.5,1103.5 Z"/></g>
<g><path style="opacity:1" fill="#dab4da" d="M 483.5,1121.5 C 486.449,1123.37 488.449,1126.04 489.5,1129.5C 485.975,1127.98 483.975,1125.31 483.5,1121.5 Z"/></g>
<g><path style="opacity:1" fill="#d4aadc" d="M 489.5,1129.5 C 491.853,1131.86 493.853,1134.53 495.5,1137.5C 494.167,1137.5 492.833,1137.5 491.5,1137.5C 490.833,1134.83 490.167,1132.17 489.5,1129.5 Z"/></g>
<g><path style="opacity:1" fill="#d2b5d8" d="M 505.5,1153.5 C 507.388,1155.74 509.388,1158.07 511.5,1160.5C 512.456,1162.08 513.123,1163.74 513.5,1165.5C 511.718,1164.28 509.718,1163.61 507.5,1163.5C 507.243,1160.07 506.576,1156.73 505.5,1153.5 Z"/></g>
<g><path style="opacity:1" fill="#d4bed5" d="M 729.5,1145.5 C 727.477,1149.24 725.81,1153.24 724.5,1157.5C 718.692,1163 719.692,1165.34 727.5,1164.5C 724.771,1167.86 721.771,1168.2 718.5,1165.5C 712.744,1170.37 709.077,1176.37 707.5,1183.5C 705.282,1183.61 703.282,1184.28 701.5,1185.5C 709.653,1173.2 717.82,1160.87 726,1148.5C 727.039,1147.29 728.206,1146.29 729.5,1145.5 Z"/></g>
<g><path style="opacity:1" fill="#d2abdb" d="M 549.5,1217.5 C 552.449,1219.37 554.449,1222.04 555.5,1225.5C 551.975,1223.98 549.975,1221.31 549.5,1217.5 Z"/></g>
<g><path style="opacity:1" fill="#daaee3" d="M 645.5,1265.5 C 645.025,1269.31 643.025,1271.98 639.5,1273.5C 641.037,1270.4 643.037,1267.73 645.5,1265.5 Z"/></g>
<g><path style="opacity:1" fill="#dcaee0" d="M 639.5,1273.5 C 638.833,1278.17 636.167,1280.83 631.5,1281.5C 633.833,1278.5 636.5,1275.83 639.5,1273.5 Z"/></g>
<g><path style="opacity:1" fill="#dbbbde" d="M 591.5,1277.5 C 594.5,1277.17 595.833,1278.5 595.5,1281.5C 607.491,1288.17 619.491,1288.17 631.5,1281.5C 630.594,1283.42 629.261,1285.08 627.5,1286.5C 616.724,1288.02 606.057,1287.52 595.5,1285C 594.031,1282.56 592.698,1280.06 591.5,1277.5 Z"/></g>
</svg>
